<?xml version="1.0" encoding="utf-8"?>
<!-- Generator: Adobe Illustrator 25.4.1, SVG Export Plug-In . SVG Version: 6.00 Build 0)  -->
<svg version="1.1" id="Layer_1" xmlns="http://www.w3.org/2000/svg" xmlns:xlink="http://www.w3.org/1999/xlink" x="0px" y="0px"
	 viewBox="0 0 152.96 133.71" style="enable-background:new 0 0 152.96 133.71;" xml:space="preserve">
<g>
	<path d="M76.35,51.73c0.64,2.03,1.3,4,1.88,5.99c1.43,4.87,2.83,9.75,4.24,14.62c0.32,1.11,0.62,2.24,1.03,3.32
		c0.26,0.69,0.66,1.35,1.1,1.95c1.69,2.37,3.4,4.74,5.15,7.07c1.17,1.57,2.41,3.09,3.66,4.59c0.5,0.6,1.06,0.46,1.38-0.21
		c0.84-1.76,1.7-3.51,2.55-5.26c0.09-0.18,0.16-0.35,0.31-0.68c-0.45-0.41-0.92-0.84-1.39-1.26c-2.39-2.17-3.82-5.02-5.4-7.74
		c-2.13-3.66-3.6-7.58-3.99-11.84c-0.37-3.96,0.45-7.48,3.79-10.05c1.6-1.23,2.68-1.06,3.78,0.6c0.65,0.98,1.35,1.93,2.03,2.89
		c0.08-0.05,0.16-0.1,0.25-0.16c-0.42-0.7-0.87-1.38-1.24-2.1c-1.24-2.43-1.69-4.99-1.11-7.67c0.38-1.77,1.53-2.89,3.31-3.22
		c1.72-0.32,2.95,0.58,3.8,1.95c0.66,1.07,1.13,2.26,1.75,3.51c1.19-1.39,2.73-1.67,4.58-1.23c0.05-0.61,0.08-1.15,0.14-1.7
		c0.35-3.07,1.09-6,3.39-8.26c0.77-0.75,1.65-1.39,2.53-2.01c3.71-2.62,8.65-1.82,11.32,2.85c1.92,3.35,2.9,7,3.99,10.63
		c1.17,3.88,1.69,7.89,2.04,11.91c0.3,3.42,0.63,6.84,0.94,10.15c0.16,0.15,0.21,0.23,0.28,0.26c2.89,1.1,3.63,3.49,1.93,6.24
		c-0.97,1.56-0.97,1.56-0.45,2.91c0.24-0.03,0.51-0.04,0.77-0.1c1.46-0.33,2.87-0.14,4.24,0.38c2.6,0.98,2.89,3.39,2.41,5.08
		c-0.4,1.41-1.35,2.42-2.36,3.41c-1.62,1.58-1.61,1.59-0.61,3.66c1.66,3.42,3.29,6.84,4.97,10.25c0.85,1.72,1.08,3.53,0.8,5.38
		c-0.34,2.28-1.73,3.84-3.86,4.66c-1.19,0.46-2.45,0.74-3.7,1.02c-2.23,0.51-3.8-0.19-4.96-2.15c-0.43-0.72-0.84-1.45-1.31-2.27
		c-1.74,1.93-3.6,2.45-5.7,0.6c-0.39,1.58-0.74,3.04-1.11,4.49c-0.19,0.73-0.39,1.47-0.65,2.18c-0.63,1.72-2.06,2.51-3.82,1.96
		c-1-0.31-1.91-0.9-3.05-1.45c-0.23,0.56-0.56,1.3-0.84,2.05c-0.37,0.98-0.93,1.44-1.89,1.25c-2.14-0.42-4.17-1.16-5.69-2.84
		c-1.08-1.19-1.72-2.59-1.63-4.25c0.08-1.48,0.16-2.95,0.22-4.43c0.02-0.42,0-0.84,0-1.47c-0.76,0.43-1.35,0.75-1.92,1.1
		c-6.83,4.15-13.66,8.32-20.5,12.45c-3.05,1.84-6.17,3.55-9.19,5.43c-1.31,0.81-2.42,0.75-3.67,0c-3.76-2.27-7.53-4.54-11.33-6.75
		c-4.43-2.57-8.89-5.07-13.35-7.59c-1.28-0.73-2.58-1.42-3.97-2.19c-0.54,1.2-1.05,2.31-1.55,3.43c-2.08,4.63-4.15,9.26-6.23,13.89
		c-0.26,0.58-0.48,1.25-1.34,1.11c-0.96-0.16-1.29-0.89-0.84-1.92c1.11-2.56,2.24-5.12,3.36-7.69c1.3-2.96,2.59-5.93,3.89-8.9
		c0.16-0.36,0.29-0.73,0.44-1.14c-0.99-0.63-1.89-1.28-2.86-1.82c-2.57-1.42-4.18-3.7-5.4-6.24c-0.81-1.68-1.48-3.49-1.79-5.31
		c-0.75-4.41,0.57-8.23,4.02-11.18c0.68-0.58,1.56-0.93,2.45-1.44c-0.51-1.09-1-2.16-1.61-3.46c-0.33,0.44-0.57,0.72-0.77,1.03
		c-2.5,3.78-5.77,6.6-10.05,8.2c-2.34,0.88-4.8,1.21-7.19,0.62c-3.91-0.98-6.22-3.73-7.3-7.54c-0.81-2.86-0.77-5.75-0.22-8.67
		c1.01-5.39,2.68-10.53,5.43-15.29c0.26-0.45,0.48-0.93,0.75-1.37c2.22-3.64,2.32-7.5,1.08-11.44c-0.79-2.52-1.31-5.04-0.71-7.65
		c0.87-3.78,3.21-6.49,6.47-8.4c2.7-1.58,5.71-2.23,8.82-2.42c2.84-0.17,5.66-0.42,8.33-1.52c1.25-0.52,2.2-1.3,2.72-2.54
		c0.79-1.88,1.58-3.76,2.33-5.65c2.49-6.32,7.06-10.09,13.71-11.44c2.91-0.59,5.55,0.06,8.07,1.46c0.42,0.23,0.82,0.5,1.19,0.8
		c1.96,1.63,3.98,6.49,3.85,9.03c-0.21,4.01-2.32,7.14-4.64,10.18c-0.22,0.29-0.48,0.54-0.71,0.81c-0.05,0.06-0.07,0.14-0.1,0.19
		c1.4,3.45,2.79,6.88,4.23,10.42c0.73-0.28,1.38-0.54,2.05-0.78c2.08-0.75,4.18-1.29,6.45-0.94c2.4,0.38,4.26,1.6,5.73,3.42
		c1.42,1.77,1.2,3.75,0.24,5.65c-0.89,1.75-2.27,3.09-3.93,4.12C79.24,50.1,77.83,50.87,76.35,51.73z M85.48,97.57
		c-0.52,0.29-0.87,0.48-1.2,0.68c-3.22,2.02-6.44,4.02-9.64,6.07c-0.88,0.57-1.62,0.61-2.52,0c-3.17-2.16-6.44-4.18-9.56-6.4
		c-4.66-3.31-9.22-6.75-13.82-10.13c-2.54-1.86-5.14-3.54-8.46-3.57c-2.04-0.02-4.03,0.12-5.57,1.66c-2.36,2.36-3.42,5.26-2.86,8.52
		c0.84,4.91,3.21,8.9,7.69,11.4c2.51,1.4,5.05,2.75,7.55,4.19c5.64,3.25,11.26,6.55,16.89,9.82c2.63,1.53,5.26,3.03,7.89,4.55
		c0.55,0.32,1.05,0.42,1.67,0.05c3.4-2.03,6.83-3.98,10.23-6.02c3.36-2.01,6.69-4.08,10.03-6.12c0.26-0.16,0.51-0.35,0.85-0.59
		C91.57,106.96,88.54,102.28,85.48,97.57z M64.37,29.26c-1.1,0.68-2.04,1.37-3.07,1.87c-2.84,1.37-5.67,2.8-8.61,3.94
		c-3.53,1.37-7.16,2.12-11.02,1.07c-1.97-0.54-3.05,0.33-3.38,2.07c-0.12,0.61-0.17,1.3-0.01,1.88c0.25,0.87,0.67,1.7,1.1,2.5
		c1.16,2.18,1.42,4.37,0.38,6.67c-0.77,1.7-1.82,3.18-3.22,4.43c-0.6,0.53-1.13,1.12-1.7,1.69c-0.39,0.38-0.46,0.8-0.22,1.31
		c0.68,1.44,1.22,2.97,2.04,4.33c1.72,2.87,2.14,5.93,1.44,9.13c-0.42,1.9-1.11,3.75-1.74,5.6c-0.18,0.54-0.27,0.98,0.08,1.46
		c0.75,1.03,1.39,2.18,2.29,3.07c0.86,0.84,1.92,1.84,3.02,2.01c2.72,0.42,4.99,1.65,7.15,3.19c2.18,1.55,4.33,3.15,6.43,4.8
		c0.75,0.59,1.36,0.67,2.15,0.17c0.67-0.43,1.41-0.76,2.1-1.15c2.85-1.62,5.67-3.28,8.54-4.85c3.16-1.72,6.38-3.33,9.54-5.04
		c1.39-0.75,2.71-1.65,4.09-2.5c-0.21-0.68-0.38-1.24-0.55-1.79c-0.23,0.02-0.36,0-0.46,0.05c-2.08,0.92-4.14,1.89-6.24,2.76
		c-5.19,2.14-10.47,3.57-16.22,2.76c-3.61-0.51-6.35-2.1-8.61-4.87c-1.47-1.81-2.15-3.79-2.05-6.09c0.02-0.52,0.03-1.04,0-1.56
		c-0.22-3.76,1.4-6.79,3.92-9.33c4.37-4.4,9.82-5.94,15.9-5.57c2.03,0.12,4.06,0.33,6.09,0.49c0.34,0.03,0.69-0.04,1.18-0.07
		c-0.12-0.45-0.19-0.79-0.3-1.12c-0.55-1.5-0.29-2.05,1.1-2.77c1.52-0.79,3.09-1.55,4.45-2.57c1.09-0.82,2.02-1.93,2.78-3.08
		c0.81-1.22,0.61-2.74-0.27-3.68c-1.27-1.34-2.77-2.26-4.68-2.41c-2.54-0.19-4.79,0.72-7.03,1.71c-1.33,0.59-2,0.4-2.53-0.95
		c-0.92-2.34-1.8-4.7-2.72-7.05C65.16,30.91,64.75,30.1,64.37,29.26z M121.58,66.23c-0.31-0.37-0.54-0.89-0.95-1.1
		c-1.53-0.81-3.05-0.96-4.64,0.04c-4.14,2.6-7.34,6.17-10.32,9.93c-3.11,3.91-5.77,8.16-8.16,12.55c-0.91,1.68-0.92,1.67,0.3,3.09
		c0.16,0.18,0.3,0.37,0.45,0.56c3.26,3.93,6.83,7.5,11.33,10.04c0.85,0.48,1.53,0.53,2.34,0.16c2.35-1.08,4.75-2.09,7.05-3.27
		c4.15-2.14,8.27-4.35,12.36-6.62c2.52-1.4,4.96-2.95,6.87-5.16c0.48-0.56,0.9-1.23,1.15-1.92c0.44-1.21-0.03-2.09-1.24-2.58
		c-1.24-0.5-2.47-0.55-3.73-0.03c-4.15,1.71-8.19,3.61-11.8,6.34c-0.99,0.75-2.02,1.42-3.03,2.14c-0.48,0.34-0.99,0.43-1.43,0.01
		c-0.49-0.46-0.38-1.02,0.01-1.51c0.22-0.28,0.49-0.53,0.78-0.75c1.83-1.43,3.64-2.87,5.51-4.25c2.71-2.01,5.12-4.34,7.35-6.86
		c0.56-0.64,1.02-1.46,1.27-2.27c0.41-1.33-0.05-1.98-1.41-2.17c-0.62-0.09-1.3-0.1-1.89,0.06c-1.27,0.35-2.53,0.77-3.73,1.29
		c-4.32,1.9-7.64,5.2-11.18,8.18c-0.94,0.79-1.7,1.8-2.55,2.7c-0.44,0.47-0.98,0.82-1.57,0.31c-0.55-0.47-0.38-1.08-0.05-1.63
		c0.1-0.17,0.24-0.32,0.37-0.47c0.46-0.55,0.94-1.09,1.39-1.65c3.24-4.04,6.11-8.3,8.38-12.96
		C121.11,67.76,121.29,67.06,121.58,66.23z M115.06,63.28c2.28-1.18,4.37-0.99,6.43-0.04c1.19,0.55,1.95,1.47,1.83,2.82
		c-0.1,1.06-0.23,2.18-0.67,3.12c-0.84,1.81-1.91,3.51-2.89,5.25c-0.23,0.42-0.5,0.82-0.74,1.22c3.44-2.41,6.95-4.4,11.04-5.15
		c0.12-3.61-0.11-3.55-2.7-4.53c-0.56-0.21-1.13-0.41-1.71-0.53c-0.67-0.14-1.23-0.38-1.46-1.07c-0.24-0.73-0.02-1.34,0.55-1.83
		c1.13-0.95,2.22-1.96,3.43-2.79c0.71-0.49,0.96-1,0.83-1.79c-0.13-0.83-0.34-1.66-0.35-2.49c-0.01-1.39-0.86-1.96-1.99-2.33
		c-0.34-0.11-0.7-0.18-1.05-0.22c-2.47-0.29-4.94-0.42-7.4,0.15c-1.08,0.25-1.67-0.52-1.27-1.57c0.07-0.18,0.18-0.36,0.29-0.52
		c2.11-3.02,4.3-5.97,7.24-8.27c0.25-0.19,0.54-0.33,0.79-0.49c-0.82-1.51-1.38-2.86-2.21-4.02c-2.07-2.92-3.32-3.28-6.1-2.58
		c-2.58,0.64-4.71,2.43-5.82,5.01c-1.32,3.06-1.6,6.25-0.82,9.51c0.65,2.68,1.37,5.34,2.49,7.87
		C113.57,59.73,114.28,61.45,115.06,63.28z M80.12,85.57c-0.35,1.84-0.99,3.44-2.35,4.58c-1.53,1.29-3.36,0.55-5.12,0.49
		c-0.51,1.68-0.95,3.43-2.75,4.15c-1.63,0.65-3.35,0.62-5.08,0.15c-0.25,0.55-0.45,1.02-0.68,1.53c0.31,0.28,0.55,0.54,0.84,0.74
		c2.5,1.65,5.02,3.27,7.51,4.94c0.67,0.45,1.18,0.41,1.84-0.01c4.17-2.67,8.35-5.34,12.57-7.93c1.4-0.85,2.16-2.1,2.75-3.51
		c0.5-1.21,0.46-2.35-0.5-3.45c-0.91-1.05-1.63-2.27-2.43-3.42c-0.17-0.24-0.35-0.46-0.55-0.71C84.84,85.63,82.74,86.06,80.12,85.57
		z M87.15,96.43c3.14,4.84,6.17,9.51,9.21,14.2c4.27-2.07,7.59-4.9,9.85-8.98c-0.41-0.31-0.74-0.52-1.04-0.79
		c-1.79-1.58-3.62-3.12-5.33-4.79c-1.23-1.19-2.29-2.55-3.42-3.84c-0.87-1-0.86-1-1.94-0.33c-0.92,0.56-1.86,1.09-2.78,1.66
		C90.22,94.47,88.75,95.42,87.15,96.43z M94.69,56.77c-0.72-1.04-1.49-2.14-2.28-3.27c-2.92,1.85-3.77,4.63-3.59,7.72
		c0.18,3,0.76,5.95,2.19,8.66c1.12,2.12,2.23,4.24,3.41,6.33c0.51,0.9,1.12,1.77,1.82,2.51c1.54,1.62,3.5,1.38,4.67-0.48
		c0.19-0.3,0.37-0.62,0.6-0.9c0.77-0.95,0.75-1.91,0.26-3.02c-0.36-0.82-0.47-1.75-0.65-2.64c-0.08-0.41-0.06-0.85-0.08-1.23
		c-2.79-0.7-4.12-1.5-5.6-3.4c-1.37-1.76-1.98-3.81-2.24-5.99c-0.19-1.6,0.58-2.85,1.43-4.08C94.67,56.95,94.67,56.91,94.69,56.77z
		 M126.63,96.78c0.5,1.32,0.84,2.57,1.42,3.7c1.73,3.33,3.54,6.62,5.36,9.91c0.6,1.08,1.42,1.43,2.62,1.16
		c1.13-0.25,2.26-0.54,3.36-0.88c1.73-0.53,2.99-2.29,2.96-4.09c-0.04-1.86-0.9-3.43-1.7-5.03c-0.82,0.11-1.53,0.3-2.24,0.28
		c-1.67-0.05-3.34-0.11-4.99-0.34c-1.05-0.15-1.33-0.82-0.86-1.76c1.13-2.28,2.14-4.64,4.09-6.44c-0.34-0.67-0.65-1.29-0.97-1.92
		C132.6,93.21,129.66,94.97,126.63,96.78z M111.2,64.56c0.09-0.02,0.18-0.04,0.26-0.05c0.1-0.57,0.33-1.16,0.26-1.71
		c-0.16-1.3-0.36-2.61-0.73-3.86c-0.64-2.14-1.39-4.25-2.16-6.34c-0.38-1.04-0.84-2.07-1.41-3.02c-0.75-1.25-1.94-1.21-2.75,0.01
		c-0.26,0.39-0.35,0.92-0.65,1.28c-0.3,0.37-0.77,0.85-1.16,0.84c-0.37-0.01-0.87-0.52-1.05-0.93c-0.38-0.87-0.55-1.84-0.9-2.73
		c-0.35-0.88-0.78-1.75-1.25-2.57c-0.36-0.62-0.94-1.01-1.71-0.86c-0.76,0.14-1.29,0.61-1.56,1.34c-0.1,0.26-0.17,0.54-0.2,0.81
		c-0.21,2.08,0.03,4.1,1.18,5.88c0.97,1.51,2.03,2.96,3.12,4.39c2.14,2.79,4.33,5.54,6.52,8.29c0.75,0.94,1.38,1.05,2.56,0.44
		c-1.8-2.47-2.69-5.34-3.55-8.21c-0.14-0.46-0.28-0.92-0.35-1.39c-0.08-0.59,0.02-1.16,0.73-1.3c0.62-0.12,0.98,0.25,1.17,0.79
		c0.13,0.38,0.21,0.77,0.35,1.15c0.78,2.09,1.54,4.19,2.36,6.27C110.5,63.61,110.89,64.07,111.2,64.56z M62.03,95.22
		c0.14-0.02,0.28-0.04,0.42-0.06c0.12-0.36,0.29-0.71,0.35-1.08c0.32-1.84,0.54-1.92,2.24-1.35c0.92,0.31,1.94,0.45,2.91,0.42
		c1.48-0.04,2.13-0.71,2.43-2.18c0.09-0.47,0.1-0.95,0.15-1.43c0.15-1.32,0.83-1.74,2.06-1.28c0.52,0.19,1.05,0.39,1.59,0.5
		c1.79,0.35,2.5,0.02,3.29-1.6c0.31-0.63,0.48-1.35,0.59-2.05c0.24-1.6,0.74-1.96,2.34-1.66c0.62,0.12,1.26,0.24,1.89,0.21
		c1.3-0.06,2.02-0.89,2.04-2.18c0.02-1.25-0.79-1.99-1.56-2.8c-2.35,1.38-4.59,2.68-6.82,4.01c-3.88,2.31-8.18,3.8-11.97,6.3
		c-1.81,1.2-2.82,2.97-2.48,5.13C61.59,94.52,61.86,94.86,62.03,95.22z M125.07,99.67c-0.09,0.04-0.18,0.09-0.27,0.13
		c0.05,0.63,0.12,1.26,0.16,1.88c0.04,0.66-0.12,1.26-0.86,1.36c-0.78,0.11-1.03-0.5-1.13-1.12c-0.11-0.67-0.13-1.35-0.23-2.02
		c-0.13-0.83-0.35-0.89-1.13-0.68c-1.17,0.31-1.49,1.18-1.7,2.2c-0.66,3.25-1.37,6.49-2.03,9.73c-0.27,1.34-0.35,2.7,0.1,4.03
		c0.21,0.62,1.14,1.24,1.87,1.27c0.82,0.03,1.07-0.56,1.28-1.19c0.71-2.21,1.29-4.45,1.37-6.79c0.02-0.68-0.07-1.37,0.05-2.03
		c0.07-0.41,0.37-0.91,0.71-1.11c0.51-0.31,1.01,0.05,1.33,0.5c0.28,0.39,0.48,0.83,0.73,1.23c0.25,0.4,0.49,0.84,0.8,1.18
		c0.59,0.64,1.22,0.72,1.82,0.31c0.62-0.42,1.04-1.5,0.76-2.08c-0.93-1.95-1.87-3.89-2.84-5.81
		C125.68,100.28,125.34,100,125.07,99.67z M113.25,117.96c0.8-1.76,1.68-3.5,2.37-5.31c0.35-0.91,0.37-1.95,0.47-2.94
		c0.03-0.31-0.05-0.74-0.26-0.96c-1.01-1.08-1.6-2.36-1.95-3.78c-0.22-0.89-0.74-1.24-1.67-1.14c-0.51,0.06-1.03,0.16-1.52,0.31
		c-1.46,0.47-2.25,1.49-2.36,2.99c-0.12,1.55-0.13,3.11-0.38,4.64C107.44,115.09,109.51,117.39,113.25,117.96z M105.11,66.35
		c-1.65-2.18-3.25-4.31-4.87-6.43c-0.51-0.67-1.04-1.32-1.61-1.93c-0.19-0.2-0.54-0.39-0.8-0.36c-1.42,0.16-2.65,1.57-2.58,3.03
		c0.12,2.31,0.85,4.41,2.56,6.03c1,0.94,2.14,1.78,3.63,1.53C102.85,67.98,104.08,67.33,105.11,66.35z M127.93,51.19
		c-0.67-2.22-1.35-4.48-2.06-6.84c-2.61,1.62-4.03,4.08-5.8,6.28c1.33,0.13,2.59,0.07,3.85,0.14
		C125.21,50.84,126.5,51.03,127.93,51.19z M107.87,69.5c-0.9-1.22-0.92-1.26-2.12-0.87c-0.59,0.19-1.15,0.54-1.68,0.89
		c-1.33,0.87-1.34,3.11-0.01,4.16C105.32,72.3,106.57,70.92,107.87,69.5z M139.84,99.78c-0.86-1.67-1.54-3-2.34-4.55
		c-1.05,1.55-2.13,2.8-2.5,4.55C136.59,99.78,138.07,99.78,139.84,99.78z M117.81,101.59c-0.12-0.07-0.24-0.14-0.36-0.21
		c-0.52,0.32-1.19,0.54-1.52,1c-0.59,0.83,0.1,3.36,1.08,4.17C117.29,104.84,117.55,103.21,117.81,101.59z M126.87,63.25
		c0.03,0.12,0.05,0.24,0.08,0.35c0.78,0.31,1.56,0.61,2.58,1.01c-0.11-1.17-0.19-2.06-0.27-2.95c-0.1-0.03-0.21-0.06-0.31-0.08
		C128.26,62.14,127.57,62.7,126.87,63.25z M130.76,81.12c1-0.24,1-0.24,0.9-0.94C131.35,80.49,131.1,80.76,130.76,81.12z"/>
	<path d="M55.79,49.42c-2.23,0.17-4.43-0.48-6.25-2.22c-1.6-1.53-2.15-3.42-1.82-5.57c0.25-1.6,1.21-2.71,2.63-3.35
		c3.8-1.74,7.77-2.17,11.82-1.13c2.38,0.61,4,3.08,4.22,5.86c0.13,1.62-0.42,2.99-1.32,4.25c-0.23,0.33-0.67,0.56-1.06,0.71
		C61.1,49.08,59.21,49.41,55.79,49.42z M59.23,38.85c-0.16-0.06-0.3-0.14-0.44-0.15c-2.72-0.16-5.34,0.25-7.77,1.53
		c-1.03,0.54-1.43,1.5-1.35,2.62c0.08,1.23,0.52,2.31,1.53,3.13c1.48,1.22,3.19,1.59,5.04,1.51c0.68-0.03,1.36-0.17,2.13-0.27
		C56.05,44.01,56.26,42.24,59.23,38.85z"/>
</g>
</svg>
