<?xml version="1.0" encoding="utf-8"?>
<!-- Generator: Adobe Illustrator 25.4.1, SVG Export Plug-In . SVG Version: 6.00 Build 0)  -->
<svg version="1.1" id="Layer_1" xmlns="http://www.w3.org/2000/svg" xmlns:xlink="http://www.w3.org/1999/xlink" x="0px" y="0px"
	 viewBox="0 0 60.07 156.42" style="enable-background:new 0 0 60.07 156.42;" xml:space="preserve">
<g>
	<path d="M5.06,93.5c0-0.58-0.04-1.24,0.01-1.89c0.06-0.77,0.13-1.56,0.3-2.31c0.19-0.86,0.8-1.46,1.44-2.03
		c0.44-0.39,0.86-0.8,1.28-1.21c0.81-0.79,1.82-1.2,2.85-1.58c0.67-0.25,1.34-0.5,2-0.77c1.3-0.55,2.6-1.1,4.03-1.23
		c0.52-0.05,1.04-0.18,1.55-0.31c1.47-0.36,2.95-0.45,4.46-0.3c0.52,0.05,1.08,0.09,1.57-0.04c1.65-0.46,3.3-0.36,4.96-0.22
		c0.52,0.04,1.06,0.08,1.58,0.02c1.48-0.18,2.94-0.11,4.41,0.14c0.93,0.16,1.89,0.07,2.84,0.13c0.69,0.05,1.38,0.14,2.06,0.26
		c0.68,0.12,1.34,0.24,2.06,0.17c0.68-0.07,1.38,0.07,2.06,0.16c1.15,0.16,2.29,0.35,3.43,0.53c0.02,0,0.04,0,0.06,0
		c1.48,0.42,3.06,0.56,4.29,1.67c1.93,1.73,3.37,3.78,3.91,6.34c0.15,0.73,0.06,1.51,0.06,2.27c0.01,0.67-0.06,1.35,0.01,2.02
		c0.08,0.79-0.13,1.51-0.36,2.23c-0.39,1.22-0.97,2.34-1.96,3.19c-0.16,0.14-0.33,0.27-0.52,0.35c-0.9,0.36-1.8,0.7-2.71,1.05
		c-0.69,0.26-1.4,0.46-2.06,0.78c-1.13,0.56-2.32,0.86-3.55,1.11c-0.61,0.12-1.19,0.39-1.79,0.55c-0.77,0.21-1.54,0.45-2.32,0.56
		c-0.77,0.1-1.56,0.03-2.34,0.06c-0.57,0.03-1.13,0.1-1.69,0.17c-1.71,0.21-3.4,0.51-5.16,0.33c-1.21-0.12-2.45-0.02-3.66,0.08
		c-2.6,0.22-5.13-0.13-7.64-0.72c-1.5-0.35-3.02-0.6-4.52-0.94c-0.67-0.15-1.32-0.43-1.98-0.66c-1.92-0.68-3.9-1.24-5.63-2.38
		c-0.05-0.03-0.12-0.05-0.17-0.09c-1.13-0.98-2.31-1.92-2.97-3.31c-0.27-0.57-0.36-1.16-0.32-1.79C4.99,95.13,5.02,94.35,5.06,93.5z
		 M46.78,96c0.56-0.16,1.13-0.29,1.68-0.48c0.75-0.27,1.47-0.66,2.23-0.86c0.81-0.21,1.57-0.46,2.25-0.95
		c0.26-0.19,0.72-0.33,0.46-0.74c-0.25-0.4-0.59-0.08-0.88,0.06c-0.59,0.28-1.17,0.56-1.78,0.8c-0.68,0.27-1.38,0.49-2.08,0.73
		c-0.59,0.2-1.19,0.53-1.79,0.55c-1.45,0.04-2.85,0.29-4.21,0.78c-0.98,0.36-1.99,0.59-3.03,0.5c-1.7-0.14-3.29,0.41-4.93,0.67
		c-0.13,0.02-0.32,0.25-0.31,0.37c0.01,0.12,0.21,0.31,0.35,0.33c0.24,0.04,0.5,0,0.75-0.05c1.41-0.27,2.8-0.65,4.25-0.56
		c1.18,0.07,2.3-0.16,3.4-0.58C44.31,96.13,45.51,95.91,46.78,96z M26.62,97.76c0.01-0.04,0.02-0.07,0.03-0.11
		c0.27-0.01,0.56,0.02,0.82-0.06c0.16-0.05,0.28-0.25,0.42-0.38c-0.16-0.13-0.31-0.29-0.49-0.39c-0.07-0.04-0.2,0-0.31,0.02
		c-0.66,0.08-1.29,0-1.91-0.27c-0.32-0.14-0.68-0.27-1.03-0.29c-1.22-0.07-2.44-0.08-3.66-0.14c-0.44-0.02-0.88-0.07-1.31-0.15
		c-0.77-0.13-1.52-0.3-2.29-0.45c-0.16-0.03-0.35-0.06-0.5,0c-0.13,0.05-0.3,0.21-0.32,0.33c-0.01,0.11,0.14,0.28,0.26,0.37
		c0.09,0.07,0.24,0.08,0.36,0.09c1.74,0.26,3.47,0.69,5.25,0.6c0.25-0.01,0.51-0.03,0.76,0c0.68,0.09,1.37,0.17,2.05,0.31
		C25.39,97.38,26,97.59,26.62,97.76z M13.47,94.77c-0.07-0.07-0.16-0.25-0.3-0.34c-1.07-0.66-2.11-1.39-3.24-1.93
		c-1.1-0.54-1.82-1.39-2.49-2.34c-0.11-0.15-0.24-0.34-0.39-0.38c-0.17-0.05-0.45,0-0.54,0.11c-0.09,0.1-0.05,0.4,0.04,0.54
		C6.73,90.7,7,90.91,7.2,91.18c0.62,0.84,1.31,1.58,2.32,1.98c0.15,0.06,0.28,0.19,0.42,0.28c0.69,0.44,1.38,0.88,2.08,1.3
		c0.29,0.17,0.59,0.32,0.91,0.44C13.24,95.3,13.46,95.16,13.47,94.77z M21.76,84.81c0,0.01,0,0.02,0,0.04
		c0.19,0,0.39,0.04,0.56-0.01c0.18-0.05,0.43-0.16,0.47-0.29c0.08-0.27-0.14-0.43-0.4-0.44c-0.58-0.01-1.17-0.02-1.75,0.05
		c-0.15,0.02-0.28,0.29-0.42,0.45c0.18,0.11,0.35,0.29,0.54,0.31C21.09,84.94,21.42,84.85,21.76,84.81z M32.15,83.62
		c-0.28,0.02-0.51,0.04-0.74,0.07c-0.25,0.03-0.47,0.1-0.44,0.41c0.03,0.3,0.26,0.36,0.51,0.36c0.5,0.01,1.01,0.03,1.51,0
		c0.15-0.01,0.28-0.19,0.42-0.29c-0.12-0.15-0.22-0.37-0.37-0.42C32.75,83.65,32.42,83.65,32.15,83.62z M45.3,84.7
		c0,0.01-0.01,0.03-0.01,0.04c-0.08,0-0.17,0-0.25,0c-0.25,0-0.49,0.03-0.51,0.34c-0.02,0.31,0.19,0.39,0.45,0.41
		c0.34,0.04,0.67,0.11,1.01,0.1c0.15,0,0.39-0.15,0.41-0.26c0.02-0.13-0.11-0.38-0.24-0.44C45.89,84.78,45.58,84.76,45.3,84.7z
		 M38.34,88.29c-0.23,0-0.33-0.03-0.39,0.01c-0.16,0.09-0.31,0.22-0.47,0.33c0.13,0.13,0.24,0.34,0.41,0.39
		c0.27,0.09,0.58,0.13,0.87,0.11c0.14-0.01,0.37-0.18,0.39-0.3c0.02-0.12-0.14-0.34-0.27-0.41C38.67,88.31,38.43,88.31,38.34,88.29z
		 M47.15,87.4c0.02,0.03,0.03,0.06,0.05,0.1c0.15-0.11,0.37-0.18,0.44-0.33c0.11-0.25-0.08-0.46-0.32-0.5
		c-0.32-0.05-0.66-0.07-0.98-0.02c-0.12,0.02-0.3,0.26-0.29,0.38c0.02,0.13,0.22,0.29,0.36,0.33C46.64,87.42,46.9,87.39,47.15,87.4z
		 M14.97,86.37c0.19-0.01,0.38,0.03,0.51-0.04c0.17-0.1,0.28-0.3,0.42-0.45c-0.15-0.11-0.29-0.27-0.46-0.33
		c-0.14-0.05-0.33,0.02-0.49,0.05c-0.29,0.05-0.71-0.06-0.69,0.42C14.28,86.5,14.71,86.31,14.97,86.37z M23.83,86.86
		c0.39-0.06,0.65-0.06,0.88-0.16c0.13-0.06,0.25-0.27,0.26-0.42c0.01-0.08-0.21-0.24-0.34-0.26c-0.25-0.03-0.52-0.04-0.75,0.04
		c-0.16,0.05-0.39,0.28-0.37,0.4C23.52,86.62,23.74,86.76,23.83,86.86z M49.61,89.28c0.1-0.08,0.34-0.2,0.37-0.35
		c0.03-0.12-0.17-0.36-0.32-0.44c-0.19-0.1-0.44-0.16-0.66-0.13c-0.14,0.01-0.33,0.17-0.39,0.31c-0.04,0.09,0.1,0.32,0.22,0.38
		C49.02,89.15,49.26,89.18,49.61,89.28z M34.8,86.45c0-0.01,0-0.01,0-0.02c0.1,0,0.23,0.04,0.31-0.01c0.15-0.08,0.36-0.21,0.37-0.33
		c0.01-0.13-0.16-0.39-0.27-0.4c-0.3-0.04-0.61,0-0.91,0.06c-0.08,0.02-0.19,0.23-0.17,0.35c0.01,0.11,0.14,0.25,0.25,0.3
		C34.49,86.46,34.66,86.44,34.8,86.45z M28.15,88.56c-0.15-0.08-0.33-0.23-0.51-0.24c-0.28-0.02-0.56,0.1-0.57,0.44
		c-0.01,0.28,0.22,0.39,0.47,0.36C27.81,89.09,28.08,89.02,28.15,88.56z"/>
	<path d="M26.55,58.49c-0.95,0.38-1.88,0.75-2.82,1.12c-1.39,0.55-2.76,1.17-4.18,1.63c-1.27,0.41-2.63,0.61-3.93,0.19
		c-1.58-0.52-2.94-1.39-3.53-3.08c-0.11-0.32-0.26-0.62-0.39-0.94c-0.09,0.01-0.16,0-0.2,0.03c-1.34,0.88-2.68,1.75-4,2.66
		c-0.53,0.36-1.08,0.57-1.71,0.57c-0.88,0-1.52-0.45-1.84-1.28c-0.54-1.42-0.35-2.3,0.89-3.21c1.01-0.75,2.08-1.46,3.2-2.02
		c1.14-0.57,2.37-0.99,3.59-1.39c0.57-0.19,1.2-0.23,1.8-0.25c0.88-0.04,1.5,0.41,1.81,1.21c0.18,0.47,0.26,0.97,0.4,1.46
		c0.09,0.3,0.16,0.61,0.3,0.89c0.35,0.72,0.96,1.07,1.72,0.81c1.31-0.44,2.6-0.98,3.88-1.5c1.37-0.55,2.71-1.16,4.1-1.66
		c0.66-0.24,1.4-0.4,2.1-0.39c1.3,0.02,2.22,0.7,2.71,1.93c0.38,0.96,0.76,1.92,1.13,2.88c0.42,1.08,1.05,1.54,2.48,1.22
		c1.3-0.29,2.54-0.76,3.67-1.49c0.97-0.63,1.91-1.34,2.92-1.88c1.63-0.88,3.29-1.71,4.98-2.46c1.08-0.48,2.25-0.5,3.41-0.15
		c1.39,0.43,2.21,1.51,2.22,2.95c0,0.04,0,0.08,0,0.13c-0.09,1.42,0.49,1.86,1.98,1.53c0.43-0.1,0.82-0.12,1.23-0.03
		c0.91,0.2,1.63,0.93,1.79,1.84c0.12,0.68-0.29,1.4-1,1.65c-1.22,0.42-2.45,0.73-3.77,0.67c-2.12-0.11-3.69-1.2-4.42-3.19
		c-0.16-0.43-0.31-0.87-0.5-1.39c-0.58,0.37-1.12,0.69-1.64,1.04c-0.96,0.65-1.92,1.31-2.86,1.98c-1.86,1.33-3.92,2.25-6.1,2.85
		c-1.45,0.4-2.95,0.54-4.43,0.04c-0.36-0.12-0.71-0.27-1.03-0.47c-1.66-1.04-3.05-2.33-3.8-4.19
		C26.69,58.71,26.62,58.62,26.55,58.49z M33.95,62.07c0-0.02-0.01-0.04-0.01-0.06c-0.1-0.01-0.23-0.06-0.31-0.01
		c-0.15,0.08-0.4,0.23-0.39,0.31c0.03,0.17,0.18,0.36,0.33,0.44c0.15,0.08,0.37,0.07,0.56,0.04c0.66-0.12,1.32-0.24,1.97-0.41
		c0.3-0.08,0.78-0.17,0.62-0.62c-0.15-0.44-0.55-0.21-0.87-0.13C35.22,61.79,34.58,61.92,33.95,62.07z M13.05,54.34
		c0.01,0.02,0.01,0.05,0.02,0.07c0.17,0.01,0.35,0.07,0.5,0.02c0.16-0.04,0.38-0.17,0.4-0.28c0.02-0.13-0.13-0.34-0.27-0.42
		c-0.17-0.1-0.4-0.12-0.61-0.14c-0.76-0.06-1.46,0.18-2.13,0.51c-0.16,0.08-0.23,0.34-0.34,0.52c0.2,0.06,0.4,0.17,0.61,0.18
		c0.18,0,0.35-0.13,0.53-0.18C12.19,54.52,12.62,54.43,13.05,54.34z M29.05,54.95c-0.13-0.11-0.27-0.31-0.45-0.38
		c-0.76-0.28-1.52-0.25-2.26,0.11c-0.24,0.11-0.41,0.3-0.27,0.54c0.08,0.13,0.38,0.24,0.52,0.19c0.66-0.24,1.3-0.3,1.96-0.02
		C28.8,55.49,28.99,55.33,29.05,54.95z M49.38,54.97c-0.08-0.08-0.17-0.23-0.3-0.29c-0.68-0.32-1.38-0.32-2.08-0.07
		c-0.13,0.05-0.21,0.26-0.31,0.4c0.16,0.1,0.34,0.32,0.47,0.29c0.59-0.12,1.15-0.12,1.73,0.1C49.13,55.5,49.32,55.34,49.38,54.97z
		 M6.64,59.24c1.15-0.45,0.96-0.96,0.35-1.57c-0.1-0.1-0.23-0.19-0.35-0.26c-0.23-0.13-0.48-0.24-0.67,0.03
		c-0.19,0.28,0,0.48,0.22,0.62C6.59,58.32,6.85,58.64,6.64,59.24z M23.98,56.32c0.43-0.15,0.79-0.25,1.13-0.41
		c0.11-0.05,0.23-0.32,0.19-0.4c-0.07-0.13-0.29-0.28-0.42-0.26c-0.35,0.05-0.7,0.15-1.02,0.29c-0.14,0.06-0.31,0.31-0.28,0.41
		C23.61,56.1,23.83,56.19,23.98,56.32z M55.51,59.97c-0.23-0.21-0.38-0.47-0.59-0.53c-0.27-0.07-0.36,0.19-0.38,0.45
		c-0.01,0.14-0.1,0.28-0.1,0.42c0,0.13,0.04,0.33,0.13,0.38c0.12,0.07,0.37,0.09,0.45,0.01C55.2,60.51,55.31,60.27,55.51,59.97z
		 M38.36,61.34c-0.08-0.07-0.2-0.23-0.35-0.27c-0.3-0.08-0.73,0.24-0.67,0.49c0.03,0.14,0.21,0.3,0.36,0.33
		C37.98,61.97,38.33,61.69,38.36,61.34z M9.89,55.04c-0.11-0.06-0.27-0.2-0.44-0.2c-0.29-0.01-0.53,0.14-0.55,0.47
		c-0.02,0.25,0.13,0.39,0.39,0.37C9.58,55.67,9.9,55.39,9.89,55.04z"/>
	<path d="M31.95,153.49c-1.39-0.1-2.78-0.21-4.16-0.32c-2.02-0.16-4.04-0.31-6.05-0.49c-3.05-0.27-6.06-0.82-9.07-1.36
		c-1.87-0.34-3.6-1.02-5.3-1.83c-1.98-0.95-3.02-2.47-3.07-4.69c-0.03-1.35-0.14-2.69-0.24-4.04c-0.11-1.41,0.5-2.36,1.67-3.15
		c1.63-1.11,3.44-1.76,5.23-2.49c2.43-1,4.99-1.39,7.55-1.76c1.81-0.26,3.63-0.55,5.45-0.73c1.19-0.12,2.4-0.07,3.6-0.1
		c0.72-0.02,1.43-0.08,2.15-0.09c3.21-0.04,6.41,0.15,9.6,0.47c1.87,0.19,3.73,0.41,5.56,0.83c1.64,0.38,3.26,0.86,4.86,1.39
		c0.53,0.18,0.97,0.65,1.44,0.99c0.22,0.16,0.42,0.36,0.65,0.5c1.89,1.1,2.78,2.85,3.23,4.91c0.33,1.52,0.03,2.98-0.32,4.44
		c-0.14,0.58-0.52,1-0.98,1.36c-1.96,1.52-4.12,2.61-6.51,3.29c-1.17,0.34-2.31,0.81-3.48,1.13c-2.04,0.55-4.12,0.84-6.23,1.04
		c-1.38,0.13-2.75,0.43-4.13,0.62c-0.48,0.06-0.97,0.01-1.45,0.01C31.95,153.45,31.95,153.47,31.95,153.49z M5.26,139.33
		c-0.07,0.01-0.13,0.01-0.2,0.02c-0.04,1.04-0.13,2.09-0.1,3.13c0.03,0.95,0.17,1.89,0.3,2.83c0.15,1.15,0.59,2.15,1.62,2.8
		c1.38,0.87,2.85,1.61,4.44,1.95c2.58,0.54,5.18,0.97,7.78,1.38c1.5,0.24,3.01,0.36,4.53,0.5c1.53,0.14,3.07,0.26,4.6,0.35
		c1.62,0.09,3.25,0.29,4.86,0.18c2.26-0.15,4.52-0.51,6.77-0.84c1.21-0.18,2.41-0.44,3.59-0.75c1.24-0.33,2.44-0.81,3.67-1.17
		c2.21-0.65,4.23-1.67,6.05-3.08c0.38-0.3,0.64-0.66,0.73-1.14c0.13-0.77,0.36-1.53,0.4-2.3c0.05-0.85-0.11-1.71-0.48-2.62
		c-0.09,0.14-0.13,0.26-0.19,0.27c-0.2,0.05-0.45,0.14-0.61,0.06c-0.11-0.05-0.12-0.36-0.11-0.55c0.01-0.16,0.1-0.32,0.19-0.47
		c0.2-0.34,0.1-0.61-0.1-0.92c-0.88-1.31-2.31-1.93-3.51-2.83c-0.26-0.2-0.59-0.33-0.92-0.42c-2.42-0.67-4.83-1.38-7.33-1.66
		c-1.93-0.21-3.86-0.41-5.8-0.51c-2.14-0.11-4.3-0.1-6.44-0.12c-1.22-0.01-2.45-0.02-3.67,0.05c-3.23,0.2-6.4,0.79-9.59,1.28
		c-2.36,0.36-4.54,1.29-6.72,2.18c-0.75,0.31-1.46,0.73-2.17,1.15c-0.61,0.36-0.72,0.93-0.36,1.55c0.88,1.54,2.32,2.34,3.92,2.91
		c1.17,0.41,2.36,0.79,3.54,1.17c2.75,0.9,5.53,1.66,8.46,1.73c0.25,0.01,0.5,0.05,0.76,0.07c0.29,0.03,0.5,0.16,0.48,0.47
		c-0.01,0.32-0.25,0.41-0.53,0.41c-2.58,0.05-5.07-0.51-7.53-1.21c-1.72-0.49-3.4-1.12-5.11-1.65
		C8.16,142.8,6.28,141.61,5.26,139.33z"/>
	<path d="M29.58,4.37c2.68,0.09,5.36,0.1,8.03,0.3c2.11,0.16,4.13,0.8,6.08,1.65c0.35,0.15,0.68,0.33,1.04,0.47
		c2.13,0.81,3.89,2.18,5.49,3.76c0.49,0.49,0.99,0.98,1.45,1.5c0.95,1.05,1.8,2.17,2.34,3.51c0.31,0.78,0.78,1.5,1.09,2.28
		c0.51,1.27,0.29,2-0.91,2.65c-1.82,0.98-3.69,1.85-5.55,2.76c-2.18,1.06-4.55,1.54-6.84,2.26c-2.36,0.74-4.79,1.15-7.23,1.53
		c-0.6,0.09-1.22,0.12-1.83,0.17c-1.93,0.16-3.86,0.41-5.8,0.46c-1.66,0.04-3.33-0.1-4.99-0.24c-2.9-0.24-5.66-1.11-8.38-2.08
		c-0.97-0.35-1.96-0.64-2.94-0.97c-0.46-0.16-0.91-0.33-1.35-0.54c-0.99-0.47-1.99-0.92-2.93-1.49c-0.6-0.36-1.17-0.84-1.63-1.38
		c-0.37-0.44-0.37-1.04-0.21-1.63c1.05-3.87,3.45-6.75,6.66-9.02c0.76-0.54,1.5-1.1,2.28-1.6c0.54-0.36,1.11-0.69,1.71-0.94
		c1.44-0.6,2.87-1.23,4.36-1.7c2.43-0.76,4.91-1.39,7.47-1.57c0.86-0.06,1.72-0.14,2.58-0.21C29.58,4.33,29.58,4.35,29.58,4.37z
		 M19.2,7.18c-0.79,0.31-1.49,0.65-2.23,0.87c-1.82,0.54-3.32,1.63-4.82,2.73c-0.14,0.11-0.26,0.33-0.28,0.5
		c-0.08,0.74-0.32,0.98-1.06,0.87c-0.28-0.04-0.48-0.01-0.69,0.18C8.69,13.6,7.42,15,6.53,16.71c-0.68,1.31-0.76,2.68-0.12,4.02
		c0.2,0.41,0.54,0.84,0.93,1.06c1.64,0.9,3.33,1.71,5.15,2.23c2.27,0.65,4.49,1.45,6.77,2.06c1.17,0.32,2.41,0.45,3.62,0.53
		c1.64,0.1,3.28,0.11,4.92,0.08c1.09-0.02,2.18-0.19,3.28-0.29c0.88-0.07,1.77-0.08,2.65-0.2c2.51-0.32,5-0.75,7.43-1.48
		c2.7-0.82,5.47-1.43,8.01-2.73c0.9-0.46,1.81-0.9,2.73-1.32c0.8-0.37,1.37-0.96,1.79-1.72c0.24-0.45,0.34-0.93,0.14-1.4
		c-0.57-1.38-1.07-2.81-2.09-3.95c-0.83-0.93-1.65-1.87-2.54-2.73c-1.35-1.31-2.85-2.44-4.63-3.14c-0.45-0.18-0.88-0.41-1.33-0.58
		c-0.92-0.35-1.85-0.67-2.77-1.01c-0.38,1.12-0.6,1.37-1.11,1.19c-0.17-0.06-0.4-0.2-0.43-0.33c-0.06-0.37-0.02-0.76-0.02-1.22
		c-0.54-0.07-1.14-0.18-1.75-0.21c-1.83-0.09-3.67-0.15-5.5-0.22c-0.82-0.03-1.64-0.1-2.46-0.12c-0.55-0.01-1.07,0.04-1.51,0.48
		c-0.29,0.28-0.67,0.29-1.05,0.05c-0.19-0.12-0.46-0.18-0.68-0.18c-0.38,0-0.76,0.05-1.13,0.14c-1.41,0.32-2.82,0.66-4.22,0.99
		c-0.03,0.19-0.06,0.32-0.08,0.44c-0.07,0.39-0.1,0.8-0.22,1.17c-0.11,0.37-0.43,0.52-0.81,0.42c-0.38-0.09-0.46-0.4-0.43-0.74
		C19.1,7.75,19.15,7.5,19.2,7.18z"/>
	<path d="M34.1,127.99c-1.99-0.01-3.87-0.33-5.76-0.73c-1.46-0.31-2.94-0.55-4.42-0.78c-1.05-0.16-1.97,0.11-2.62,1.02
		c-0.49,0.68-1.2,0.91-1.98,0.94c-1.72,0.06-3.21-0.61-4.6-1.55c-0.65-0.44-1.25-0.94-1.93-1.32c-0.89-0.5-1.88-0.55-2.89-0.54
		c-1.48,0.02-2.96,0-4.34-0.64c-0.25-0.11-0.5-0.23-0.71-0.4c-0.52-0.41-0.98-0.85-1.63-1.1c-0.67-0.25-0.83-0.97-0.71-1.61
		c0.11-0.56,0.3-1.2,0.67-1.6c1.98-2.17,4.02-4.28,6.55-5.83c0.71-0.43,1.45-0.76,2.3-0.81c0.62-0.04,1.18,0.11,1.66,0.49
		c0.42,0.34,0.9,0.4,1.37,0.29c0.59-0.14,1.23-0.28,1.72-0.6c1.99-1.3,4.23-1.98,6.44-2.73c1.09-0.37,2.2-0.44,3.3-0.14
		c0.47,0.13,0.98,0.35,1.32,0.68c1.04,1.03,2.22,1.18,3.56,0.8c1.5-0.43,2.99-0.89,4.51-1.22c0.87-0.19,1.8-0.19,2.7-0.18
		c0.91,0.01,1.65,0.48,2.22,1.19c0.25,0.31,0.52,0.61,0.75,0.94c0.7,0.98,1.67,1.19,2.75,0.93c1.58-0.38,3.14-0.83,4.7-1.26
		c1.59-0.43,3.17-0.91,4.84-0.83c0.69,0.03,1.32,0.15,1.74,0.82c0.44,0.7,0.49,1.41,0.09,2.09c-0.82,1.43-1.87,2.66-3.37,3.42
		c-0.84,0.42-1.58,0.95-2.21,1.66c-0.34,0.39-0.6,0.8-0.68,1.33c-0.1,0.73-0.49,1.27-1.07,1.72c-1.61,1.25-3.5,1.74-5.47,1.96
		c-1.15,0.13-2.32,0.13-3.47,0.24c-0.48,0.04-0.95,0.19-1.41,0.33c-0.29,0.09-0.47,0.29-0.46,0.66c0.01,1.2-0.9,2.16-2.14,2.27
		C34.97,127.97,34.51,127.97,34.1,127.99z M4.98,122.96c0.31,0.2,0.56,0.38,0.83,0.53c1.14,0.61,2.4,0.57,3.64,0.63
		c0.9,0.04,1.81,0.09,2.7,0.24c0.5,0.09,0.98,0.37,1.42,0.64c0.7,0.43,1.35,0.94,2.04,1.38c0.79,0.5,1.64,0.88,2.56,1.06
		c1.02,0.19,1.94,0.14,2.66-0.81c0.74-0.97,1.84-1.22,3.02-1.09c0.88,0.1,1.75,0.25,2.63,0.4c1.85,0.32,3.69,0.66,5.54,0.99
		c1.11,0.2,2.23,0.17,3.34,0.05c0.78-0.09,1.3-0.66,1.28-1.41c-0.02-0.63,0.28-1.04,0.8-1.33c0.76-0.42,1.6-0.5,2.45-0.56
		c1.11-0.07,2.24-0.1,3.34-0.25c1.51-0.2,2.98-0.58,4.26-1.48c0.58-0.4,0.96-0.87,1.12-1.59c0.12-0.55,0.46-1.08,0.82-1.53
		c0.68-0.88,1.61-1.46,2.6-1.98c1.29-0.67,2.2-1.76,2.89-3.01c0.34-0.62,0.04-1.26-0.64-1.44c-0.36-0.09-0.75-0.13-1.12-0.09
		c-1.92,0.2-3.74,0.8-5.59,1.34c-1.13,0.33-2.29,0.59-3.45,0.79c-1.22,0.21-2.3-0.09-3.1-1.12c-0.28-0.37-0.6-0.71-0.89-1.07
		c-0.48-0.6-1.09-0.88-1.86-0.91c-1.18-0.05-2.32,0.15-3.44,0.46c-1.16,0.31-2.3,0.71-3.46,1.01c-1.53,0.39-2.92,0.13-4.09-1.02
		c-0.23-0.23-0.55-0.42-0.86-0.5c-0.82-0.22-1.68-0.29-2.5-0.02c-1.6,0.54-3.18,1.13-4.75,1.73c-0.47,0.18-0.92,0.43-1.34,0.71
		c-0.77,0.52-1.61,0.84-2.5,1.03c-0.76,0.16-1.51,0.11-2.16-0.42c-0.43-0.35-0.94-0.49-1.48-0.3c-0.42,0.15-0.85,0.28-1.23,0.49
		c-2.58,1.49-4.59,3.63-6.59,5.78c-0.25,0.27-0.39,0.71-0.46,1.09c-0.11,0.57,0.19,0.83,0.86,0.79c-0.01-0.26-0.08-0.54-0.02-0.79
		c0.04-0.19,0.2-0.47,0.35-0.51c0.14-0.04,0.44,0.15,0.51,0.31C5.36,121.74,5.41,122.33,4.98,122.96z"/>
	<path d="M54.53,36.98c-0.15,0.29-0.25,0.63-0.47,0.85c-1,1-1.97,2.04-3.07,2.91c-1.53,1.22-3.16,2.33-4.77,3.44
		c-1.98,1.37-3.98,2.69-5.98,4.02c-0.38,0.26-0.82,0.44-1.22,0.67c-0.68,0.38-1.41,0.27-2.1,0.11c-2.5-0.61-4.98-1.27-7.47-1.9
		c-1.27-0.32-2.54-0.6-3.8-0.96c-3.54-1-7.16-1.61-10.75-2.34c-2.34-0.48-4.69-0.85-7.06-1.08c-0.48-0.05-0.96-0.15-1.42-0.29
		c-0.67-0.2-0.9-0.83-0.5-1.4c0.22-0.32,0.52-0.62,0.85-0.84c1.56-1,3.12-2.01,4.72-2.94c2.43-1.41,4.88-2.77,7.34-4.11
		c1.74-0.95,3.52-1.83,5.28-2.73c0.51-0.26,1.05-0.25,1.6-0.19c1.92,0.23,3.86,0.39,5.78,0.65c2.04,0.28,4.08,0.66,6.11,1
		c1.5,0.25,3,0.47,4.48,0.79c1.34,0.29,2.64,0.7,3.97,1.04c1.18,0.3,2.37,0.57,3.56,0.87c1.3,0.33,2.61,0.65,3.9,1.03
		C54.12,35.76,54.44,36.29,54.53,36.98z M6.69,41.37c0.03,0.06,0.05,0.13,0.08,0.19c0.31,0.06,0.61,0.15,0.92,0.19
		c1.19,0.15,2.4,0.22,3.58,0.43c3.17,0.57,6.35,1.16,9.5,1.82c2.1,0.44,4.18,1,6.27,1.51c0.92,0.22,1.84,0.44,2.76,0.7
		c2.52,0.7,5.01,1.48,7.6,1.93c0.56,0.09,1.05,0.04,1.52-0.25c0.97-0.6,1.94-1.2,2.89-1.81c1.08-0.7,2.16-1.39,3.22-2.13
		c1.16-0.8,2.27-1.68,3.45-2.46c1.73-1.16,3.27-2.52,4.69-4.02c0.56-0.6,0.46-0.9-0.35-1.12c-1.04-0.28-2.07-0.55-3.11-0.82
		c-0.08-0.02-0.17-0.03-0.25-0.05c-1.27-0.31-2.54-0.61-3.8-0.93c-1.78-0.45-3.53-0.99-5.33-1.34c-2.27-0.44-4.57-0.76-6.87-1.09
		c-2.02-0.3-4.05-0.59-6.08-0.8c-1.87-0.19-3.65,0.17-5.3,1.12c-1.46,0.84-2.97,1.6-4.44,2.43c-3.05,1.72-6.09,3.45-9.12,5.21
		C7.88,40.44,7.3,40.93,6.69,41.37z"/>
	<path d="M20.36,76.64c-0.22-0.01-0.31,0.01-0.38-0.02c-0.78-0.34-1.46-0.04-2.17,0.25c-0.78,0.31-1.6,0.26-2.42,0.02
		c-0.29-0.09-0.62-0.12-0.92-0.07c-0.88,0.15-1.67-0.02-2.41-0.52c-0.25-0.17-0.55-0.33-0.85-0.38c-0.6-0.09-1.06-0.38-1.31-0.89
		c-0.42-0.87-0.94-1.75-1.07-2.68c-0.18-1.19,0.16-2.29,1.44-2.96c0.46-0.24,0.85-0.53,1.15-0.96c0.39-0.56,1-0.82,1.6-1.09
		c0.45-0.21,0.9-0.46,1.31-0.75c0.55-0.39,1.11-0.66,1.81-0.65c0.3,0,0.65-0.09,0.88-0.27c0.49-0.38,1.03-0.45,1.6-0.46
		c0.23,0,0.51,0.02,0.67-0.1c0.82-0.63,1.73-0.56,2.66-0.39c0.76,0.14,1.53,0.29,2.29,0.44c1.14,0.22,1.94,0.86,2.44,1.9
		c0.09,0.19,0.26,0.34,0.35,0.52c0.19,0.39,0.42,0.78,0.51,1.2c0.16,0.72,0.19,1.46,0.33,2.18c0.12,0.56-0.04,0.99-0.41,1.39
		c-0.44,0.48-0.89,0.96-1.33,1.44c-0.54,0.57-1.2,0.95-1.98,1.03c-0.54,0.05-0.93,0.31-1.34,0.63c-0.51,0.39-1.08,0.72-1.65,1.02
		C20.88,76.6,20.54,76.61,20.36,76.64z M19.5,73.56c0.6,0.11,1.04-0.16,1.5-0.5c0.38-0.28,0.83-0.47,1.27-0.63
		c0.45-0.16,0.95-0.22,1.4-0.36c0.25-0.08,0.47-0.25,0.69-0.4c0.47-0.34,0.91-0.75,1.4-1.05c0.9-0.55,1.13-1.67,0.47-2.5
		c-0.17-0.21-0.32-0.44-0.44-0.68c-0.36-0.73-0.92-1.2-1.72-1.34c-1.01-0.19-2.03-0.37-3.05-0.5c-0.31-0.04-0.69,0.02-0.95,0.17
		c-0.49,0.29-0.99,0.41-1.56,0.42c-0.33,0.01-0.69,0.14-0.99,0.3c-0.43,0.24-0.86,0.45-1.37,0.41c-0.52-0.04-0.92,0.2-1.33,0.49
		c-0.44,0.31-0.94,0.54-1.41,0.81c-0.41,0.24-0.89,0.43-1.2,0.77c-0.46,0.5-0.9,0.99-1.54,1.27c-0.79,0.35-0.9,1.11-0.98,1.85
		c-0.05,0.44,0.26,0.73,0.68,0.86c0.39,0.12,0.79,0.27,1.15,0.47c0.39,0.21,0.77,0.36,1.2,0.24c0.75-0.21,1.46-0.1,2.13,0.28
		c0.49,0.28,1,0.29,1.52,0.09c0.32-0.12,0.62-0.28,0.94-0.36c0.42-0.1,0.86-0.16,1.29-0.18C18.91,73.45,19.21,73.53,19.5,73.56z"/>
	<path d="M51.04,72.61c-0.06,0.73-0.1,1.47-0.18,2.2c-0.07,0.68-0.55,1.07-1.09,1.38c-0.69,0.39-1.42,0.73-2.12,1.11
		c-0.97,0.53-1.99,0.66-3.06,0.45c-0.78-0.16-1.52-0.15-2.28,0.18c-1.16,0.51-2.32,0.18-3.44-0.22c-0.3-0.11-0.57-0.3-0.87-0.38
		c-0.54-0.16-1.09-0.27-1.64-0.4c-0.43-0.1-0.88-0.14-1.28-0.29c-0.74-0.28-1.23-0.8-1.32-1.62c-0.13-1.13-0.35-2.25-0.15-3.39
		c0.09-0.52,0.3-0.95,0.69-1.31c0.34-0.31,0.67-0.64,0.98-0.98c0.81-0.91,1.84-1.23,3.01-1.15c0.44,0.03,0.83-0.01,1.2-0.25
		c0.69-0.46,1.45-0.57,2.24-0.43c0.49,0.09,0.95,0.08,1.42-0.11c0.55-0.22,1.1-0.21,1.67-0.02c0.26,0.08,0.58,0.07,0.85,0
		c1.27-0.33,2.36-0.01,3.31,0.87c0.37,0.34,0.73,0.7,1.06,1.08c0.61,0.7,0.98,1.51,0.96,2.47c-0.01,0.27,0,0.55,0,0.82
		C51.01,72.6,51.02,72.6,51.04,72.61z M38.07,69.05c-0.86,0.08-1.64,0.27-2.19,1c-0.25,0.33-0.57,0.61-0.88,0.9
		c-0.5,0.46-0.62,1.05-0.21,1.57c0.61,0.77,1.31,1.46,2.38,1.5c0.76,0.03,1.45,0.28,2.09,0.65c0.92,0.53,1.88,0.55,2.87,0.26
		c0.62-0.18,1.23-0.24,1.86-0.01c0.65,0.24,1.31,0.22,1.97-0.07c0.61-0.27,1.25-0.5,1.9-0.69c0.51-0.15,0.93-0.4,1.23-0.83
		c0.22-0.31,0.43-0.63,0.61-0.96c0.49-0.88,0.33-1.79-0.41-2.49c-0.29-0.27-0.58-0.55-0.84-0.86c-0.36-0.42-0.79-0.62-1.35-0.71
		c-0.58-0.1-1.1-0.09-1.65,0.06c-0.24,0.07-0.55,0.01-0.8-0.08c-0.46-0.15-0.91-0.17-1.35,0.03c-0.5,0.22-1.01,0.23-1.55,0.12
		c-0.52-0.1-1.06-0.14-1.54,0.16C39.53,69.01,38.84,69.27,38.07,69.05z"/>
	<path d="M33.46,146.31c-0.96,0.04-2.46,0.13-3.95,0.14c-1.22,0.01-2.44-0.07-3.66-0.13c-0.31-0.01-0.53-0.17-0.5-0.52
		c0.03-0.33,0.26-0.38,0.55-0.38c1.62,0,3.24-0.01,4.86-0.02c1.6,0,3.2-0.01,4.8,0.01c1.27,0.01,2.51-0.1,3.76-0.37
		c1.19-0.26,2.42-0.34,3.63-0.52c2.68-0.39,5.25-1.19,7.77-2.18c0.33-0.13,0.62-0.35,0.92-0.54c0.24-0.15,0.49-0.22,0.68,0.02
		c0.21,0.26,0.12,0.53-0.13,0.72c-0.3,0.22-0.61,0.46-0.96,0.6c-2.37,1.01-4.85,1.69-7.37,2.2c-1.13,0.23-2.3,0.29-3.45,0.46
		c-0.98,0.15-1.95,0.41-2.93,0.49C36.32,146.38,35.15,146.31,33.46,146.31z"/>
	<path d="M29.74,21.23c-0.01,0.8-0.49,1.12-1.1,0.82c-0.22-0.11-0.44-0.28-0.56-0.48c-0.28-0.47-0.52-0.96-0.72-1.47
		c-0.07-0.17-0.02-0.5,0.11-0.61c0.12-0.11,0.48-0.11,0.61-0.01c0.53,0.41,1.02,0.87,1.5,1.34C29.7,20.94,29.71,21.16,29.74,21.23z"
		/>
	<path d="M31.22,6.8c0.58,0.25,1.12,0.47,1.64,0.72C33,7.59,33.11,7.75,33.2,7.89c0.26,0.4,0.22,0.82-0.09,1.08
		c-0.3,0.25-0.78,0.25-1.1-0.04c-0.42-0.38-0.83-0.77-1.2-1.2c-0.13-0.15-0.22-0.44-0.16-0.6C30.71,6.98,31,6.92,31.22,6.8z"/>
	<path d="M33.54,15.34c-0.17,0.68-0.31,1.3-0.49,1.9c-0.06,0.19-0.2,0.4-0.36,0.5c-0.2,0.12-0.52,0.23-0.68,0.14
		c-0.19-0.1-0.41-0.43-0.39-0.63c0.1-0.88,0.54-1.63,1.07-2.32c0.07-0.09,0.35-0.15,0.45-0.08C33.32,14.96,33.42,15.18,33.54,15.34z
		"/>
	<path d="M19.61,17.45c0.03-0.34,0.03-0.75,0.13-1.13c0.04-0.18,0.27-0.42,0.43-0.43c0.15-0.01,0.43,0.22,0.47,0.38
		c0.16,0.71,0.28,1.44,0.34,2.17c0.04,0.5-0.23,0.8-0.59,0.82c-0.36,0.02-0.64-0.26-0.72-0.74C19.62,18.18,19.63,17.84,19.61,17.45z
		"/>
	<path d="M31.77,11.05c0.11,0.08,0.38,0.19,0.41,0.34c0.03,0.16-0.12,0.43-0.27,0.54c-0.55,0.39-1.13,0.73-1.7,1.09
		c-0.36,0.22-0.69,0.19-0.91-0.07c-0.23-0.28-0.19-0.66,0.16-0.94C30.1,11.49,30.84,11.21,31.77,11.05z"/>
	<path d="M41.36,12.29c0,0.25,0.04,0.51-0.01,0.75c-0.04,0.18-0.17,0.42-0.31,0.46c-0.15,0.04-0.44-0.07-0.53-0.21
		c-0.19-0.27-0.34-0.59-0.4-0.91c-0.08-0.4-0.1-0.83-0.07-1.24c0.03-0.35,0.3-0.55,0.66-0.56c0.39-0.01,0.58,0.25,0.64,0.58
		c0.06,0.37,0.06,0.75,0.08,1.13C41.39,12.29,41.38,12.29,41.36,12.29z"/>
	<path d="M16.52,12.18c0,0.02,0,0.05-0.01,0.06c-0.46,0.64-0.89,1.31-1.39,1.92c-0.18,0.22-0.54,0.24-0.8,0.01
		c-0.29-0.25-0.32-0.6-0.09-0.85c0.49-0.54,1.01-1.06,1.58-1.51C16.13,11.57,16.54,11.82,16.52,12.18z"/>
	<path d="M47.86,19.29c0.13-0.3,0.19-0.57,0.34-0.75c0.32-0.39,0.66-0.77,1.04-1.08c0.16-0.13,0.51-0.19,0.66-0.1
		c0.14,0.09,0.22,0.48,0.14,0.64c-0.31,0.59-0.66,1.16-1.07,1.68c-0.12,0.15-0.51,0.17-0.73,0.1
		C48.08,19.73,47.98,19.46,47.86,19.29z"/>
	<path d="M39.92,20.5c0.06-0.13,0.13-0.38,0.28-0.57c0.28-0.36,0.6-0.7,0.93-1.03c0.19-0.19,0.46-0.31,0.67-0.1
		c0.12,0.13,0.19,0.43,0.13,0.61c-0.15,0.45-0.35,0.91-0.6,1.31c-0.14,0.23-0.42,0.43-0.67,0.52C40.26,21.37,39.9,21.04,39.92,20.5z
		"/>
	<path d="M46.28,11.19c0.32,0.15,0.62,0.21,0.78,0.4c0.31,0.36,0.57,0.77,0.8,1.19c0.07,0.12,0.01,0.4-0.09,0.51
		c-0.1,0.1-0.37,0.16-0.5,0.1c-0.48-0.25-0.95-0.53-1.4-0.84c-0.3-0.2-0.35-0.55-0.18-0.85C45.8,11.49,46.06,11.37,46.28,11.19z"/>
	<path d="M34.73,24.33c0.2-0.6,0.53-1.22,1.15-1.63c0.12-0.08,0.4-0.06,0.51,0.03c0.12,0.09,0.19,0.34,0.16,0.49
		c-0.13,0.53-0.3,1.05-0.48,1.56c-0.12,0.34-0.38,0.5-0.74,0.43C35,25.16,34.73,24.79,34.73,24.33z"/>
	<path d="M10.48,16.28c-0.01,0.04-0.02,0.14-0.06,0.2c-0.37,0.51-0.72,1.04-1.13,1.51c-0.28,0.33-0.7,0.33-0.96,0.09
		c-0.32-0.3-0.23-0.65,0.01-0.9c0.43-0.46,0.88-0.9,1.38-1.28C10.08,15.62,10.49,15.83,10.48,16.28z"/>
	<path d="M13.69,21.5c-0.15-0.08-0.45-0.17-0.65-0.36c-0.3-0.29-0.56-0.63-0.77-0.99c-0.23-0.38,0.02-0.77,0.45-0.7
		c0.71,0.11,1.32,0.47,1.69,1.09C14.69,21,14.34,21.53,13.69,21.5z"/>
	<path d="M23.54,24.73c-0.06,0.08-0.17,0.37-0.35,0.42c-0.22,0.06-0.63-0.02-0.71-0.16c-0.32-0.6-0.59-1.24-0.78-1.9
		c-0.11-0.37,0.32-0.6,0.67-0.41C22.69,22.85,23.54,24.22,23.54,24.73z"/>
	<path d="M24.72,11.7c-0.2,0.23-0.34,0.5-0.56,0.62c-0.29,0.16-0.6-0.01-0.75-0.28c-0.34-0.59-0.34-1.25-0.24-1.89
		c0.06-0.4,0.64-0.49,0.83-0.14C24.28,10.52,24.46,11.08,24.72,11.7z"/>
	<path d="M10.25,119.41c1.21-0.15,2.32-0.3,3.43-0.42c0.48-0.05,0.97-0.07,1.45-0.05c0.69,0.03,1.33-0.14,1.97-0.35
		c2.25-0.75,4.1-2.14,5.82-3.72c0.12-0.11,0.25-0.23,0.38-0.34c0.23-0.19,0.5-0.31,0.73-0.05c0.25,0.28,0.1,0.55-0.14,0.77
		c-0.05,0.04-0.09,0.09-0.14,0.13c-1.48,1.32-2.98,2.63-4.81,3.46c-0.06,0.03-0.12,0.04-0.14,0.12c1.78-0.1,3.52-0.17,5.22-0.59
		c1.8-0.44,3.61-0.87,5.42-1.26c0.84-0.18,1.71-0.26,2.57-0.34c0.6-0.06,1.08-0.21,1.54-0.68c1.01-1.01,2.27-1.67,3.53-2.33
		c0.22-0.12,0.45-0.28,0.69-0.31c0.19-0.03,0.47,0.05,0.59,0.18c0.19,0.21,0.03,0.45-0.18,0.58c-0.27,0.17-0.56,0.3-0.83,0.46
		c-0.92,0.54-1.83,1.09-2.75,1.63c0.02,0.06,0.04,0.12,0.06,0.18c0.71,0,1.41-0.03,2.12,0.01c1.43,0.06,2.86,0.19,4.29,0.23
		c1.2,0.03,2.4-0.03,3.6-0.05c0.19,0,0.38-0.04,0.57-0.05c0.26-0.01,0.51,0.1,0.48,0.37c-0.02,0.18-0.22,0.37-0.39,0.48
		c-0.15,0.1-0.36,0.09-0.55,0.11c-1.56,0.17-3.12,0.13-4.67-0.04c-2.51-0.28-5.01-0.28-7.51,0.07c-1.8,0.25-3.61,0.38-5.35,0.96
		c-0.1,0.03-0.19,0.07-0.42,0.14c0.42,0.24,0.74,0.42,1.07,0.59c1.87,0.99,3.79,1.85,5.91,2.18c0.27,0.04,0.54,0.06,0.82,0.09
		c0.29,0.03,0.51,0.15,0.51,0.46c-0.01,0.34-0.26,0.49-0.56,0.46c-0.5-0.04-1.01-0.1-1.5-0.2c-2.44-0.48-4.62-1.57-6.75-2.8
		c-0.65-0.38-1.25-0.47-1.98-0.26c-1.65,0.47-3.36,0.6-5.07,0.65c-1.71,0.05-3.42,0.01-5.12,0.01c-0.22,0-0.45,0-0.67,0
		c-0.01,0.05-0.01,0.1-0.02,0.15c0.16,0.06,0.32,0.13,0.49,0.18c1.61,0.47,3.1,1.22,4.56,2.02c0.18,0.1,0.4,0.2,0.51,0.36
		c0.1,0.14,0.16,0.43,0.09,0.55c-0.07,0.12-0.35,0.16-0.53,0.16c-0.13,0-0.26-0.12-0.39-0.2c-2.17-1.31-4.55-2.1-6.96-2.78
		c-0.35-0.1-0.79,0.02-1.17,0.12c-0.91,0.25-1.82,0.55-2.72,0.82c-0.14,0.04-0.28,0.1-0.42,0.14c-0.28,0.07-0.52,0.01-0.62-0.28
		c-0.1-0.3,0.09-0.49,0.34-0.59c0.57-0.21,1.15-0.42,1.74-0.58c0.44-0.12,0.72-0.35,0.94-0.76c0.28-0.52,0.65-0.98,0.99-1.47
		c0.08-0.12,0.2-0.26,0.32-0.29c0.2-0.04,0.5-0.08,0.61,0.03c0.1,0.11,0.09,0.45-0.01,0.6c-0.2,0.34-0.5,0.62-0.74,0.94
		C10.39,119.11,10.34,119.23,10.25,119.41z"/>
	<path d="M20.96,42.6c1.8,0.22,3.57,0.6,5.31,1.12c1.39,0.42,2.79,0.8,4.19,1.21c0.18,0.05,0.4,0.07,0.53,0.18
		c0.12,0.1,0.22,0.32,0.2,0.47c-0.01,0.11-0.21,0.29-0.33,0.3c-0.24,0.02-0.51-0.01-0.74-0.08c-1.7-0.48-3.4-1-5.11-1.45
		c-1.18-0.31-2.39-0.51-3.58-0.76c-0.19-0.04-0.38-0.05-0.56-0.09c-0.52-0.09-0.75-0.27-0.68-0.57
		C20.31,42.52,20.64,42.56,20.96,42.6z"/>
	<path d="M33.76,45.73c0.26,0.04,0.38,0.06,0.51,0.09c0.93,0.26,1.86,0.52,2.78,0.78c0.29,0.08,0.51,0.23,0.43,0.58
		c-0.07,0.3-0.33,0.38-0.59,0.32c-0.33-0.06-0.65-0.17-0.97-0.25c-0.73-0.2-1.45-0.4-2.18-0.61c-0.28-0.08-0.47-0.27-0.37-0.55
		C33.43,45.92,33.66,45.81,33.76,45.73z"/>
	<path d="M14.42,71.97c-0.18-0.13-0.39-0.21-0.43-0.35c-0.05-0.14,0-0.43,0.11-0.49c0.37-0.23,0.76-0.42,1.17-0.57
		c0.12-0.04,0.38,0.1,0.45,0.22c0.06,0.13,0.02,0.42-0.08,0.5C15.27,71.53,14.85,71.72,14.42,71.97z"/>
	<path d="M19.19,70.56c0.37,0.2,0.72,0.35,1.02,0.58c0.11,0.08,0.16,0.36,0.11,0.49c-0.06,0.13-0.32,0.27-0.44,0.23
		c-0.37-0.11-0.74-0.28-1.08-0.48c-0.1-0.06-0.17-0.37-0.1-0.49C18.78,70.74,19,70.67,19.19,70.56z"/>
	<path d="M18.66,67.94c-0.19,0.38-0.34,0.75-0.55,1.08c-0.06,0.09-0.32,0.14-0.44,0.09c-0.12-0.05-0.29-0.27-0.27-0.36
		c0.12-0.39,0.29-0.77,0.49-1.12c0.05-0.09,0.32-0.12,0.44-0.07C18.46,67.61,18.53,67.79,18.66,67.94z"/>
	<path d="M16.78,71.64c0-0.02,0-0.04,0-0.06c-0.04-0.36-0.05-0.71,0.43-0.75c0.37-0.03,0.54,0.28,0.5,0.84
		c-0.01,0.1-0.01,0.21-0.03,0.31c-0.07,0.29-0.23,0.52-0.56,0.47c-0.32-0.04-0.39-0.28-0.36-0.56
		C16.76,71.81,16.77,71.72,16.78,71.64z"/>
	<path d="M19.47,69.69c-0.11-0.1-0.36-0.22-0.41-0.41c-0.1-0.32,0.15-0.5,0.45-0.54c0.27-0.03,0.55-0.07,0.81-0.01
		c0.16,0.04,0.37,0.25,0.37,0.38c0,0.15-0.19,0.36-0.34,0.43C20.13,69.64,19.86,69.63,19.47,69.69z"/>
	<path d="M16.52,69.22c-0.05,0.28-0.25,0.48-0.52,0.38c-0.32-0.13-0.63-0.35-0.87-0.6c-0.17-0.18-0.11-0.45,0.14-0.59
		C15.63,68.2,16.53,68.77,16.52,69.22z"/>
	<path d="M38.66,73.01c-0.14-0.15-0.38-0.29-0.41-0.47c-0.02-0.14,0.19-0.4,0.36-0.48c0.3-0.14,0.64-0.23,0.97-0.24
		c0.18-0.01,0.48,0.14,0.52,0.28c0.04,0.15-0.1,0.46-0.25,0.54C39.52,72.81,39.14,72.87,38.66,73.01z"/>
	<path d="M44.21,72.1c0.42,0.29,0.8,0.49,1.1,0.77c0.1,0.09,0.11,0.44,0.02,0.55c-0.09,0.11-0.39,0.16-0.55,0.11
		c-0.33-0.12-0.65-0.29-0.94-0.5c-0.12-0.09-0.24-0.37-0.19-0.46C43.77,72.38,44,72.27,44.21,72.1z"/>
	<path d="M40.11,70.57c-0.02,0.51-0.38,0.73-0.68,0.55c-0.25-0.15-0.49-0.33-0.7-0.53c-0.25-0.23-0.23-0.6,0.05-0.67
		c0.23-0.06,0.54,0,0.76,0.12C39.79,70.17,39.97,70.43,40.11,70.57z"/>
	<path d="M45.19,71.01c-0.15-0.12-0.35-0.21-0.39-0.35c-0.04-0.14,0.03-0.42,0.14-0.48c0.32-0.18,0.68-0.31,1.05-0.38
		c0.11-0.02,0.36,0.17,0.4,0.3c0.04,0.14-0.05,0.4-0.17,0.48C45.92,70.74,45.57,70.85,45.19,71.01z"/>
	<path d="M42.67,73.35c-0.08,0.06-0.22,0.25-0.4,0.3c-0.26,0.07-0.88-0.69-0.79-0.99c0.05-0.17,0.28-0.36,0.46-0.4
		C42.3,72.19,42.68,72.71,42.67,73.35z"/>
	<path d="M42.79,69.93c-0.2,0.22-0.33,0.46-0.51,0.52c-0.3,0.1-0.47-0.15-0.5-0.42c-0.03-0.29,0-0.6,0.05-0.89
		c0.01-0.05,0.37-0.11,0.43-0.05C42.46,69.32,42.59,69.6,42.79,69.93z"/>
</g>
</svg>
