<?xml version="1.0" encoding="utf-8"?>
<!-- Generator: Adobe Illustrator 25.4.1, SVG Export Plug-In . SVG Version: 6.00 Build 0)  -->
<svg version="1.1" id="Layer_1" xmlns="http://www.w3.org/2000/svg" xmlns:xlink="http://www.w3.org/1999/xlink" x="0px" y="0px"
	 viewBox="0 0 221.31 216.66" style="enable-background:new 0 0 221.31 216.66;" xml:space="preserve">
<g>
	<path d="M72.86,12.61c0.57,0.2,1.19,0.29,1.67,0.61c0.74,0.49,1.16,0.27,1.57-0.38c0.79-1.27,1.97-1.94,3.4-2.24
		c1.1-0.23,2.13-0.12,3.12,0.48c0.97,0.58,1.22,0.54,1.9-0.37c0.88-1.18,2.02-1.88,3.45-2.22c1.36-0.32,2.71-0.69,4.06-1.09
		c3.3-0.97,6.34,1.12,7.05,4.03c0.89,3.69,2.03,7.32,3.06,10.98c0.09,0.31,0.17,0.62,0.23,0.93c0.32,1.61,0.05,2.8-2.05,3.21
		c-1.33,0.26-2.63,0.69-3.94,1.05c-1.73,0.47-2.6,0.01-2.96-1.77c-0.52-2.63-0.93-5.27-1.38-7.91c-0.03-0.2-0.05-0.4-0.09-0.59
		c-0.25-1.22-1.03-1.76-2.13-1.51c-1.17,0.27-1.84,1.3-1.45,2.44c0.84,2.5,1.75,4.98,2.62,7.47c0.16,0.45,0.31,0.92,0.36,1.39
		c0.12,1.09-0.38,1.91-1.42,2.21c-1.76,0.52-3.54,1.01-5.32,1.46c-1.17,0.29-2.07-0.24-2.42-1.56c-0.38-1.43-0.57-2.9-0.83-4.35
		c-0.29-1.61-0.52-3.24-0.86-4.84c-0.24-1.13-1.06-1.59-2.13-1.32c-1.08,0.27-1.68,1.18-1.4,2.26c0.24,0.93,0.54,1.84,0.87,2.74
		c0.57,1.58,1.18,3.14,1.77,4.71c0.13,0.34,0.24,0.68,0.34,1.03c0.49,1.75,0,2.62-1.78,3.1c-1.31,0.36-2.62,0.71-3.94,1.05
		c-1.65,0.43-2.6-0.1-3.06-1.77c-0.71-2.54-1.38-5.1-2.05-7.65c-0.61-2.32-1.23-4.64-1.82-6.97c-0.55-2.18,0.03-3.12,2.2-3.69
		C70.58,13.23,71.7,12.93,72.86,12.61z"/>
	<path d="M18.85,68.28c0.55,0.12,1.1,0.21,1.63,0.35c3.71,0.98,7.43,1.96,11.14,2.95c0.42,0.11,0.84,0.25,1.24,0.43
		c1.41,0.64,1.74,1.36,1.33,2.87c-0.4,1.47-0.8,2.93-1.21,4.4c-0.42,1.53-1.25,2.03-2.78,1.56c-1.37-0.42-2.71-0.97-4.05-1.48
		c-1.35-0.51-2.68-1.05-4.03-1.55c-1.34-0.5-2.22-0.14-2.59,1.03c-0.4,1.26,0.19,2.23,1.62,2.52c2.35,0.48,4.71,0.92,7.07,1.37
		c0.47,0.09,0.95,0.17,1.4,0.31c1.35,0.41,1.92,1.39,1.56,2.78c-0.39,1.55-0.83,3.09-1.26,4.63c-0.48,1.69-1.49,2.24-3.18,1.62
		c-2.14-0.78-4.26-1.63-6.39-2.44c-0.67-0.26-1.35-0.52-2.04-0.71c-1.04-0.29-1.81,0.18-2.1,1.21c-0.29,1.05,0.14,2.06,1.11,2.33
		c1.07,0.31,2.17,0.54,3.27,0.75c1.84,0.35,3.7,0.62,5.54,1.01c1.89,0.41,2.38,1.27,1.88,3.12c-0.34,1.28-0.68,2.55-1.04,3.82
		c-0.5,1.8-1.4,2.33-3.23,1.82c-4.43-1.22-8.86-2.47-13.29-3.72c-0.62-0.17-1.24-0.33-1.83-0.56c-1.35-0.54-1.88-1.57-1.53-2.97
		c0.25-1.01,0.55-2.01,0.81-3.01c0.23-0.9,0.76-1.56,1.55-2.05c0.96-0.6,0.98-0.62,0.5-1.7c-0.49-1.11-0.62-2.22-0.3-3.39
		c0.36-1.32,0.97-2.46,2.29-3.06c0.72-0.33,0.95-0.85,0.6-1.55c-0.78-1.58-0.63-3.16-0.12-4.78c0.4-1.26,0.68-2.55,1.05-3.82
		C14.22,69.92,16.37,68.31,18.85,68.28z"/>
	<path d="M125.29,209.5c-2.48,0-4.65-1.51-5.35-3.89c-1.17-3.99-2.29-7.99-3.41-12c-0.13-0.46-0.18-0.95-0.19-1.42
		c-0.01-0.95,0.46-1.63,1.36-1.89c1.77-0.51,3.54-1.01,5.32-1.45c1.11-0.27,1.98,0.3,2.28,1.56c0.34,1.44,0.55,2.9,0.81,4.36
		c0.26,1.46,0.48,2.92,0.74,4.37c0.25,1.35,1.07,1.92,2.28,1.6c1.17-0.31,1.72-1.29,1.3-2.51c-0.85-2.5-1.77-4.97-2.63-7.46
		c-0.17-0.48-0.31-1-0.33-1.51c-0.05-0.99,0.44-1.72,1.39-2c1.8-0.54,3.61-1.04,5.44-1.49c1.2-0.29,2.12,0.43,2.44,1.89
		c0.31,1.44,0.54,2.91,0.79,4.36c0.26,1.46,0.47,2.92,0.77,4.37c0.27,1.26,1.04,1.75,2.14,1.48c1.16-0.28,1.77-1.29,1.37-2.48
		c-0.73-2.2-1.54-4.37-2.31-6.55c-0.25-0.72-0.55-1.42-0.72-2.16c-0.31-1.34,0.19-2.17,1.49-2.55c1.46-0.43,2.92-0.83,4.39-1.21
		c1.56-0.4,2.55,0.17,2.99,1.74c0.61,2.15,1.17,4.32,1.75,6.48c0.7,2.63,1.4,5.25,2.08,7.88c0.13,0.5,0.25,1.02,0.25,1.53
		c0.01,0.95-0.38,1.78-1.31,2.09c-1.32,0.44-2.68,0.83-4.05,1.07c-0.62,0.11-1.35-0.11-1.96-0.35c-1.08-0.42-1.1-0.51-1.75,0.44
		c-0.93,1.36-2.27,2.05-3.83,2.17c-0.83,0.06-1.74-0.17-2.52-0.5c-1.14-0.48-1.3-0.56-2.01,0.38c-0.88,1.17-2.02,1.88-3.45,2.22
		c-1.32,0.31-2.62,0.72-3.94,1.06C126.39,209.29,125.84,209.38,125.29,209.5z"/>
	<path d="M200.03,147.9c-0.51-0.1-1.02-0.17-1.52-0.29c-3.76-0.95-7.52-1.9-11.28-2.86c-0.39-0.1-0.77-0.22-1.14-0.37
		c-1.55-0.64-1.92-1.4-1.49-3c0.39-1.47,0.78-2.94,1.18-4.4c0.39-1.46,1.22-1.97,2.69-1.53c1.34,0.4,2.64,0.91,3.96,1.39
		c1.39,0.51,2.76,1.05,4.15,1.56c1.35,0.5,2.27,0.14,2.62-0.98c0.41-1.31-0.22-2.29-1.71-2.58c-2.59-0.5-5.19-0.95-7.78-1.45
		c-0.54-0.1-1.1-0.28-1.54-0.59c-0.76-0.53-0.96-1.33-0.71-2.24c0.43-1.58,0.83-3.17,1.26-4.75c0.44-1.63,1.46-2.19,3.09-1.63
		c2.07,0.72,4.12,1.52,6.18,2.28c0.75,0.28,1.5,0.56,2.27,0.78c1.11,0.31,1.88-0.16,2.17-1.27c0.28-1.04-0.19-1.98-1.21-2.26
		c-0.92-0.26-1.86-0.46-2.81-0.63c-1.73-0.31-3.47-0.57-5.2-0.87c-0.51-0.09-1.03-0.19-1.51-0.37c-1.04-0.37-1.56-1.2-1.32-2.25
		c0.39-1.71,0.85-3.42,1.36-5.1c0.35-1.14,1.32-1.61,2.6-1.33c1.25,0.28,2.48,0.62,3.72,0.95c3.7,1.01,7.41,2.02,11.11,3.04
		c2.24,0.62,2.75,1.56,2.15,3.82c-0.2,0.77-0.41,1.55-0.6,2.32c-0.22,0.9-0.73,1.58-1.5,2.09c-1,0.66-1.01,0.67-0.51,1.81
		c0.83,1.86,0.56,3.61-0.58,5.21c-0.35,0.5-0.92,0.88-1.45,1.2c-0.63,0.39-0.84,0.86-0.52,1.5c0.81,1.62,0.68,3.23,0.16,4.9
		c-0.39,1.26-0.65,2.56-1.03,3.82C204.55,146.27,202.5,147.82,200.03,147.9z"/>
	<path d="M41.15,155.9c0.28,0.18,0.8,0.39,1.19,0.76c1.19,1.12,2.34,2.29,3.5,3.46c0.95,0.96,1.01,1.99,0.02,2.93
		c-1.19,1.13-2.48,2.14-3.73,3.2c-1.04,0.87-2.11,1.72-3.14,2.6c-0.99,0.85-1.06,1.83-0.23,2.69c0.87,0.9,1.98,0.93,2.83-0.03
		c1.8-2.04,3.55-4.12,5.33-6.18c0.18-0.21,0.36-0.43,0.57-0.62c0.96-0.86,2.05-0.86,3,0.05c1.16,1.11,2.28,2.24,3.42,3.37
		c1.31,1.3,1.29,2.44-0.13,3.65c-1.7,1.45-3.44,2.86-5.16,4.29c-0.55,0.46-1.11,0.92-1.62,1.42c-0.84,0.82-0.83,1.71-0.02,2.51
		c0.78,0.77,1.84,0.87,2.56,0.16c0.79-0.79,1.54-1.63,2.26-2.48c1.21-1.43,2.39-2.89,3.59-4.33c0.18-0.21,0.38-0.41,0.6-0.59
		c0.92-0.72,1.84-0.7,2.69,0.12c1.18,1.14,2.34,2.29,3.48,3.47c0.83,0.87,0.85,1.99,0.1,2.93c-0.17,0.22-0.38,0.41-0.58,0.61
		c-3.4,3.39-6.8,6.77-10.2,10.15c-0.34,0.34-0.7,0.67-1.09,0.93c-1.03,0.68-2.05,0.6-2.95-0.24c-0.82-0.77-1.68-1.5-2.36-2.38
		c-0.46-0.6-0.78-1.39-0.9-2.14c-0.2-1.21-0.12-1.29-1.31-1.38c-1.65-0.13-2.84-0.99-3.8-2.24c-0.6-0.78-0.92-1.68-0.81-2.69
		c0.08-0.8-0.32-1.24-1.08-1.28c-1.76-0.09-3.07-0.98-4.23-2.23c-0.87-0.94-1.83-1.79-2.72-2.71c-2.26-2.34-2.23-5.6,0.04-7.94
		c2.74-2.81,5.46-5.62,8.2-8.42C39.13,156.62,39.85,155.98,41.15,155.9z"/>
	<path d="M189.44,45.97c-0.06,1.27-0.43,2.5-1.4,3.52c-2.83,2.99-5.65,5.99-8.49,8.98c-0.25,0.26-0.53,0.49-0.82,0.7
		c-1.11,0.84-1.98,0.79-2.98-0.17c-1.16-1.11-2.31-2.22-3.45-3.33c-1.01-0.98-1.06-2.01-0.01-3.01c1.15-1.11,2.39-2.12,3.6-3.16
		c1.06-0.91,2.14-1.8,3.19-2.73c0.92-0.82,0.95-1.78,0.15-2.61c-0.87-0.89-2.04-0.95-2.85-0.02c-1.16,1.33-2.23,2.72-3.35,4.08
		c-0.71,0.86-1.42,1.73-2.17,2.57c-1.15,1.29-2.26,1.32-3.49,0.14c-1.1-1.05-2.19-2.1-3.28-3.16c-1.29-1.25-1.3-2.39,0.03-3.56
		c1.65-1.45,3.34-2.85,5.01-4.28c0.61-0.52,1.21-1.04,1.78-1.61c0.76-0.77,0.75-1.67,0.02-2.44c-0.77-0.81-1.93-0.91-2.66-0.15
		c-0.78,0.8-1.51,1.65-2.22,2.52c-1.19,1.45-2.32,2.95-3.54,4.37c-1.26,1.47-2.25,1.47-3.63,0.14c-1.01-0.97-2.03-1.93-3.03-2.91
		c-1.05-1.04-1.1-2.2-0.07-3.27c3.61-3.74,7.23-7.47,10.89-11.17c1.32-1.34,2.54-1.29,3.86-0.01c0.66,0.64,1.32,1.28,1.99,1.91
		c0.67,0.64,1.03,1.41,1.08,2.33c0.07,1.17,0.08,1.2,1.32,1.3c1.69,0.13,2.98,0.98,3.86,2.33c0.45,0.69,0.63,1.61,0.76,2.46
		c0.15,0.96,0.24,1.26,1.18,1.32c1.67,0.11,2.94,0.88,4.06,2.06c0.91,0.96,1.9,1.83,2.85,2.75
		C188.77,42.93,189.39,44.28,189.44,45.97z"/>
	<path d="M28.05,115.04c0.12,1.95,0.25,3.91,0.35,5.86c0.11,2.17-1.28,3.88-3.47,4.13c-1.7,0.2-3.42,0.27-5.14,0.38
		c-2.15,0.14-4.31,0.25-6.46,0.39c-2.89,0.19-5.46-1.79-5.88-4.67c-0.24-1.62-0.27-3.26-0.37-4.9c-0.12-1.91-0.24-3.83-0.32-5.74
		c-0.14-3.26,2.01-5.71,5.27-5.94c3.67-0.25,7.34-0.46,11.01-0.64c2.45-0.12,4.46,1.89,4.63,4.54c0.14,2.19,0.24,4.39,0.36,6.58
		C28.04,115.04,28.05,115.04,28.05,115.04z M15.85,117.04c1.2-0.18,2.81-0.42,4.42-0.66c1.05-0.15,1.39-0.45,1.41-1.25
		c0.01-0.83-0.43-1.41-1.36-1.49c-1.7-0.15-3.41-0.16-5.12-0.27c-1.18-0.08-1.83,0.84-1.74,1.91
		C13.56,116.43,14.27,117.08,15.85,117.04z"/>
	<path d="M45.13,31.76c0.09-2.43,0.78-4.06,2.37-5.16c2.92-2.02,5.86-4.03,8.85-5.94c2.37-1.51,5.48-0.93,7.17,1.42
		c2.26,3.15,4.4,6.38,6.48,9.65c1.24,1.95,0.6,4.53-1.39,5.94c-2.18,1.55-4.44,2.99-6.66,4.48c-1.29,0.87-2.58,1.75-3.87,2.62
		c-1.88,1.26-4.18,0.89-5.49-0.99c-2.24-3.21-4.45-6.45-6.58-9.73C45.49,33.26,45.31,32.23,45.13,31.76z M56.62,28.66
		c-1.07,0.12-1.69,0.51-2.06,1.24c-0.35,0.69-0.18,1.32,0.28,1.89c0.99,1.25,2,2.48,2.96,3.76c0.46,0.61,0.94,0.98,1.71,0.6
		c0.71-0.35,1.09-1.16,0.72-1.91c-0.82-1.68-1.72-3.33-2.66-4.95C57.37,28.96,56.84,28.8,56.62,28.66z"/>
	<path d="M200.76,111.96c-1.71,0.11-3.43,0.24-5.14,0.32c-2.49,0.11-4.56-1.59-4.77-4.08c-0.37-4.38-0.66-8.76-0.92-13.15
		c-0.11-1.91,1.38-3.65,3.4-3.84c4.09-0.37,8.2-0.67,12.31-0.86c2.46-0.11,4.74,1.84,5.19,4.31c0.27,1.53,0.31,3.09,0.43,4.65
		c0.15,1.99,0.27,3.98,0.43,5.97c0.27,3.48-1.92,6.03-5.42,6.28C204.43,111.71,202.59,111.83,200.76,111.96
		C200.76,111.96,200.76,111.96,200.76,111.96z M200.91,102.73C200.91,102.73,200.91,102.73,200.91,102.73
		c0.4,0.02,0.8,0.07,1.19,0.08c0.44,0.01,0.88,0.01,1.32-0.03c1.02-0.11,1.56-0.75,1.54-1.77c-0.03-1.28-0.9-2.06-2.21-1.89
		c-1.54,0.2-3.07,0.46-4.61,0.68c-1.02,0.14-1.43,0.48-1.45,1.24c-0.03,0.82,0.53,1.46,1.47,1.56
		C199.07,102.68,199.99,102.69,200.91,102.73z"/>
	<path d="M173.62,185.27c-0.05,1.77-0.64,3.34-2.1,4.38c-3.04,2.15-6.1,4.27-9.24,6.26c-2.14,1.36-4.94,0.8-6.68-1.09
		c-0.32-0.35-0.61-0.74-0.88-1.14c-1.84-2.72-3.67-5.44-5.5-8.16c-1.76-2.61-1.28-5.21,1.3-6.96c3.41-2.32,6.82-4.62,10.24-6.92
		c1.73-1.16,4.01-0.76,5.33,0.98c0.75,0.99,1.42,2.03,2.12,3.06c1.44,2.12,2.87,4.24,4.32,6.35
		C173.21,183.01,173.68,184.05,173.62,185.27z M164.41,185.64c-0.12-0.23-0.3-0.72-0.6-1.12c-0.92-1.2-1.89-2.37-2.83-3.55
		c-0.64-0.81-1.13-0.97-1.81-0.58c-0.69,0.4-0.98,1.15-0.58,1.96c0.77,1.57,1.63,3.11,2.47,4.65c0.4,0.73,1.05,0.96,1.83,0.74
		C163.71,187.51,164.38,186.7,164.41,185.64z"/>
	<path d="M56.88,192.6c0.15-0.45,0.35-1.4,0.75-2.25c1.46-3.07,2.98-6.11,4.48-9.15c1.22-2.47,3.76-3.44,6.25-2.26
		c3.9,1.85,7.77,3.76,11.63,5.69c1.79,0.89,2.45,3.1,1.54,5.08c-1.09,2.36-2.25,4.68-3.38,7.02c-0.52,1.08-1.03,2.16-1.56,3.24
		c-1.35,2.75-4.37,4-7.17,2.75c-3.32-1.48-6.58-3.1-9.81-4.77C57.7,196.97,56.89,195.23,56.88,192.6z M68.32,194.97
		c0.85-0.02,1.44-0.42,1.75-1.21c0.63-1.59,1.27-3.18,1.88-4.78c0.29-0.75,0-1.34-0.75-1.63c-0.72-0.28-1.35-0.14-1.78,0.53
		c-0.93,1.44-1.82,2.9-2.76,4.33C65.75,193.61,66.98,194.88,68.32,194.97z"/>
	<path d="M160.85,22.9c-0.28,0.91-0.47,1.85-0.86,2.71c-1.42,3.13-2.91,6.22-4.39,9.33c-1.12,2.37-3.64,3.39-6.03,2.31
		c-4-1.81-7.97-3.69-11.93-5.6c-1.75-0.84-2.39-3.12-1.49-5.11c1.16-2.59,2.39-5.14,3.58-7.72c0.37-0.8,0.77-1.58,1.09-2.4
		c1.19-3,4.72-4.06,7.18-3.01c1.58,0.67,3.12,1.43,4.68,2.16c1.63,0.76,3.27,1.5,4.88,2.29C159.62,18.86,160.72,20.64,160.85,22.9z
		 M147.37,28.93c0.16-0.12,0.64-0.31,0.87-0.66c0.99-1.54,1.93-3.1,2.82-4.7c0.4-0.72,0.17-1.39-0.46-1.9
		c-1.15-0.93-2.56-0.59-3.11,0.79c-0.62,1.55-1.19,3.12-1.78,4.68C145.35,28.12,145.98,28.95,147.37,28.93z"/>
	<path d="M31.6,43.81c1.31,0.04,1.56-0.16,1.59-1.45c0.05-1.67,0.56-3.12,1.76-4.32c0.62-0.62,1.14-1.34,1.77-1.96
		c1.44-1.43,3.18-1.47,4.7-0.16c3.73,3.2,7.45,6.4,11.18,9.61c1.62,1.4,1.68,2.29,0.24,3.92c-0.95,1.08-1.9,2.16-2.87,3.22
		c-1.06,1.17-2.04,1.23-3.15,0.07c-1.88-1.96-3.69-3.99-5.55-5.96c-0.4-0.42-0.88-0.84-1.41-1.02c-0.75-0.26-1.63,0.27-1.97,1
		c-0.4,0.86-0.27,1.77,0.49,2.38c1.28,1.02,2.61,1.97,3.91,2.96c1.02,0.77,2.05,1.53,3.04,2.34c0.97,0.8,1.17,2.01,0.38,2.99
		c-1.15,1.43-2.38,2.8-3.64,4.14c-0.73,0.77-1.74,0.71-2.7-0.09c-1.07-0.9-2.1-1.84-3.15-2.77c-2.95-2.63-5.91-5.26-8.86-7.89
		c-1.53-1.36-1.58-2.45-0.21-3.99c0.56-0.63,1.12-1.25,1.67-1.89C29.56,44.09,30.5,43.74,31.6,43.81z"/>
	<path d="M204.72,71.23c-0.29,0.65-0.52,1.32-0.87,1.93c-0.48,0.85-0.49,1.34,0.36,1.78c2.82,1.45,3.4,4.2,4.02,6.88
		c0.37,1.6-0.6,3-2.16,3.55c-4.71,1.67-9.43,3.33-14.15,4.98c-1.91,0.67-2.71,0.26-3.36-1.66c-0.46-1.36-0.91-2.73-1.37-4.1
		c-0.56-1.67-0.16-2.48,1.58-2.91c2.72-0.66,5.45-1.25,8.18-1.87c1.07-0.24,1.5-0.64,1.61-1.51c0.11-0.85-0.26-1.62-0.97-2.04
		c-0.66-0.38-1.31-0.27-1.96,0.01c-1.43,0.62-2.85,1.26-4.28,1.87c-1.1,0.47-2.21,0.94-3.33,1.36c-1.35,0.51-2.49,0.01-3-1.35
		c-0.51-1.35-0.94-2.72-1.38-4.09c-0.64-1.95-0.26-2.73,1.66-3.37c3.26-1.1,6.53-2.17,9.79-3.26c1.71-0.57,3.41-1.14,5.13-1.68
		c1.75-0.55,2.76-0.03,3.33,1.71C203.95,68.7,204.31,69.92,204.72,71.23z"/>
	<path d="M187.13,172.62c-1.3-0.07-1.53,0.13-1.57,1.45c-0.05,1.72-0.61,3.2-1.82,4.43c-0.5,0.51-0.96,1.07-1.42,1.62
		c-1.23,1.46-3.51,1.77-5.1,0.34c-3.53-3.19-7.21-6.21-10.83-9.3c-0.27-0.23-0.55-0.47-0.8-0.72c-0.87-0.87-0.98-1.85-0.2-2.79
		c1.17-1.42,2.39-2.8,3.63-4.16c0.76-0.83,1.74-0.83,2.65,0.01c0.73,0.68,1.38,1.44,2.06,2.17c1.36,1.46,2.71,2.94,4.08,4.39
		c0.84,0.89,1.95,0.9,2.74,0.06c0.73-0.78,0.71-2.07-0.15-2.78c-1.13-0.94-2.34-1.8-3.51-2.69c-1.08-0.82-2.17-1.63-3.25-2.46
		c-1.25-0.95-1.44-2.22-0.44-3.43c0.99-1.2,2.04-2.36,3.1-3.51c1.08-1.18,2.05-1.2,3.32-0.09c2.31,2.03,4.62,4.08,6.92,6.12
		c1.62,1.43,3.23,2.86,4.83,4.31c1.57,1.42,1.61,2.4,0.23,3.98c-0.58,0.66-1.17,1.31-1.75,1.97
		C189.1,172.36,188.18,172.66,187.13,172.62z"/>
	<path d="M16.94,150.62c-1.12-0.03-1.86-0.45-2.2-1.38c-0.42-1.16-0.8-2.35-1.14-3.54c-0.27-0.95,0.04-1.81,0.58-2.6
		c0.65-0.97,0.64-1.43-0.31-1.94c-2.84-1.53-3.34-4.35-3.92-7.07c-0.31-1.47,0.7-2.83,2.16-3.33c4.76-1.64,9.53-3.26,14.3-4.87
		c1.84-0.62,2.66-0.19,3.27,1.64c0.47,1.4,0.93,2.81,1.39,4.21c0.5,1.55,0.09,2.43-1.44,2.8c-2.64,0.63-5.3,1.17-7.95,1.77
		c-0.53,0.12-1.1,0.26-1.54,0.56c-0.61,0.41-0.73,1.38-0.41,2.08c0.36,0.78,1.09,1.26,1.91,1.18c0.35-0.04,0.71-0.15,1.03-0.28
		c2.44-1,4.87-2.01,7.31-3.01c1.53-0.63,2.66-0.13,3.21,1.44c0.5,1.43,0.96,2.88,1.41,4.33c0.47,1.49,0.05,2.35-1.46,2.87
		c-1.59,0.55-3.19,1.05-4.79,1.56c-3.39,1.09-6.77,2.17-10.16,3.25C17.74,150.44,17.27,150.53,16.94,150.62z"/>
	<path d="M97.91,210.35c-1.38-0.29-2.76-0.52-4.1-0.9c-0.88-0.25-1.42-0.98-1.8-1.82c-0.4-0.87-0.91-1.1-1.71-0.59
		c-2.71,1.74-5.42,0.84-8.08-0.01c-1.5-0.48-2.19-2.01-1.89-3.59c0.92-4.91,1.84-9.83,2.77-14.74c0.37-1.97,1.13-2.47,3.12-2.08
		c1.45,0.28,2.9,0.57,4.35,0.88c1.5,0.32,2.04,1.1,1.65,2.58c-0.43,1.62-0.96,3.22-1.45,4.82c-0.37,1.18-0.77,2.35-1.12,3.54
		c-0.36,1.2,0.13,2.11,1.27,2.43c1.08,0.3,2.23-0.38,2.42-1.55c0.25-1.58,0.4-3.17,0.59-4.75c0.16-1.31,0.3-2.62,0.5-3.93
		c0.19-1.22,1.15-2.02,2.4-1.83c1.82,0.27,3.62,0.64,5.41,1.08c1.05,0.26,1.47,1.15,1.26,2.39c-0.2,1.18-0.46,2.35-0.71,3.53
		c-0.84,4.07-1.69,8.14-2.52,12.22c-0.17,0.81-0.42,1.57-1.18,1.99C98.72,210.2,98.31,210.24,97.91,210.35z"/>
	<path d="M124.08,18.47c-0.22,1.86-0.43,3.73-0.65,5.59c-0.06,0.56-0.14,1.11-0.21,1.67c-0.16,1.4-1.06,2.23-2.43,2.05
		c-1.78-0.24-3.55-0.58-5.3-0.97c-1.14-0.26-1.59-1.19-1.34-2.56c0.55-3.03,1.13-6.05,1.7-9.07c0.42-2.2,0.83-4.4,1.27-6.59
		c0.39-1.92,1.26-2.49,3.15-2.14c0.82,0.15,1.65,0.31,2.48,0.45c1.19,0.2,2.04,0.83,2.56,1.93c0.48,1.01,0.92,1.18,1.88,0.59
		c1.64-1.01,3.35-1.2,5.18-0.73c0.77,0.2,1.58,0.27,2.34,0.49c1.77,0.51,2.67,1.94,2.36,3.75c-0.84,4.96-1.69,9.93-2.56,14.89
		c-0.32,1.83-1.09,2.34-2.94,2c-1.49-0.27-2.99-0.55-4.48-0.82c-1.48-0.27-2.05-1.08-1.66-2.57c0.44-1.7,0.95-3.38,1.45-5.07
		c0.33-1.11,0.7-2.21,1.01-3.32c0.33-1.18-0.21-2.14-1.32-2.42c-1.08-0.28-2.17,0.41-2.42,1.56c-0.09,0.42-0.12,0.86-0.17,1.29
		C124.02,18.47,124.05,18.47,124.08,18.47z"/>
	<path d="M31.01,157.42c-2.27-0.03-4.12-1.98-4.09-4.3c0.03-2.23,1.95-4.11,4.19-4.1c2.3,0.01,4.22,1.91,4.22,4.2
		C35.34,155.57,33.41,157.44,31.01,157.42z"/>
	<path d="M191.33,152.82c-0.04,2.62-2.01,4.23-4.27,4.25c-2.27,0.01-4.15-1.98-4.13-4.29c0.02-2.25,1.9-4.11,4.16-4.11
		C189.45,148.67,191.32,150.51,191.33,152.82z"/>
	<path d="M186.96,58.89c2.28-0.01,4.17,1.91,4.16,4.22c-0.01,2.28-1.97,4.21-4.24,4.18c-2.26-0.03-4.12-1.87-4.17-4.13
		C182.66,60.82,184.57,58.9,186.96,58.89z"/>
	<path d="M31.58,59.37c2.3,0.01,4.19,1.93,4.18,4.22c-0.01,2.26-2,4.21-4.25,4.17c-2.34-0.05-4.16-1.92-4.14-4.24
		C27.39,61.18,29.24,59.35,31.58,59.37z"/>
	<path d="M113.39,198.06c-0.03,2.14-1.52,4.19-4.35,4.12c-2.48-0.06-3.98-1.89-4.01-4.23c-0.03-2.3,1.93-4.16,4.23-4.14
		C111.57,193.85,113.41,195.74,113.39,198.06z"/>
	<path d="M104.16,18.77c0.01-2.31,1.85-4.27,4.17-4.18c2.52,0.09,4.14,1.94,4.15,4.22c0.01,2.32-1.88,4.18-4.19,4.17
		C105.98,22.97,104.15,21.1,104.16,18.77z"/>
</g>
</svg>
