<?xml version="1.0" encoding="utf-8"?>
<!-- Generator: Adobe Illustrator 25.4.1, SVG Export Plug-In . SVG Version: 6.00 Build 0)  -->
<svg version="1.1" id="Layer_1" xmlns="http://www.w3.org/2000/svg" xmlns:xlink="http://www.w3.org/1999/xlink" x="0px" y="0px"
	 viewBox="0 0 101.88 103.33" style="enable-background:new 0 0 101.88 103.33;" xml:space="preserve">
<g>
	<path d="M16.97,77.67c-0.57,0-1,0-1.42,0c-1.68,0.02-3.21-0.52-4.57-1.45c-1.69-1.16-1.79-3.07-0.24-4.4c0.6-0.51,1.3-0.91,2-1.29
		c0.52-0.29,1.09-0.47,1.74-0.74c-0.18-0.46-0.33-0.9-0.52-1.34c-1.23-2.91-2.48-5.81-3.4-8.84c-0.65-2.15-1.25-4.33-1.99-6.45
		c-0.72-2.07-1.54-4.1-2.43-6.11c-0.88-1.99-1.24-4-0.78-6.16c0.22-1.01,0.69-1.86,1.27-2.68c2.16-3.04,4.28-6.12,6.49-9.13
		c1.31-1.79,2.76-3.49,4.15-5.22c1.43-1.77,2.87-3.54,4.31-5.31c0.67-0.82,1.35-1.62,2-2.45c0.19-0.25,0.39-0.57,0.41-0.87
		c0.14-1.58,0.6-3.07,1.12-4.55c0.22-0.62,0.67-0.93,1.3-0.9c0.65,0.03,1.3,0.12,1.95,0.22C28.73,10.07,29,10,29.23,9.66
		c0.57-0.8,1.39-1.19,2.36-1.14c0.93,0.05,1.85,0.21,2.78,0.31c0.16,0.02,0.33-0.02,0.5-0.02c0.88,0.04,1.75,0.1,2.63,0.13
		c0.23,0.01,0.53,0,0.68-0.13c1.14-1.07,3.73-0.66,4.72,0.97c0.44,0.71,0.72,1.48,0.66,2.35c-0.01,0.16-0.04,0.38,0.04,0.49
		c0.48,0.65,0.98,1.29,1.53,1.99c0.66-0.55,1.12-1.3,1.58-2.04c1.19-1.93,2.52-3.75,4.39-5.07c1.68-1.18,3.53-2.04,5.61-2.09
		c3.24-0.07,5.94,1.09,7.6,3.99c0.84,1.47,0.94,3.12,0.8,4.81c-0.18,2.3-1.1,4.35-2.02,6.4c-0.19,0.41-0.39,0.82-0.61,1.29
		c0.52,0.13,1.01,0.21,1.48,0.37c2.52,0.87,4.45,3.66,4.44,6.4c0,0.89,0,0.89,0.91,1.16c0.49-0.78,0.97-1.58,1.48-2.36
		c0.74-1.12,1.61-2.11,3.03-2.3c0.52-0.07,1.09-0.01,1.59,0.13c0.87,0.25,1.37,1.05,1.12,1.94c-0.31,1.11-0.76,2.2-1.22,3.26
		c-0.28,0.64-0.68,1.23-1.03,1.85c0.1,0.09,0.15,0.16,0.23,0.21c2.34,1.36,4.69,2.7,7.01,4.09c0.7,0.42,1.33,0.97,1.99,1.47
		c1.94,1.46,3.73,3.08,5.47,4.77c0.78,0.75,1.65,1.41,2.42,2.17c1.34,1.32,2.73,2.6,3.91,4.05c1.89,2.31,1.81,5.34,0,8.02
		c-0.61,0.9-1.2,1.81-1.87,2.66c-0.6,0.75-1.27,1.46-1.96,2.13c-1.7,1.64-3.42,3.27-5.15,4.88c-3.3,3.06-6.61,6.12-9.94,9.15
		c-1.94,1.76-3.95,3.45-5.9,5.2c-0.2,0.18-0.32,0.53-0.33,0.8c-0.09,2.79-0.16,5.59-0.23,8.38c-0.02,0.74-0.12,1.48-0.09,2.22
		c0.03,0.73-0.28,1.2-0.86,1.53c-0.84,0.47-1.67,1.01-2.56,1.36c-2.66,1.02-5.4,1.8-8.26,2.1c-2.46,0.26-4.92,0.64-7.38,0.94
		c-0.99,0.12-1.99,0.21-2.98,0.22c-2.42,0.04-4.85,0.06-7.27,0.01c-2.19-0.04-4.4-0.05-6.57-0.33c-3.05-0.4-6.1-0.9-9.09-1.62
		c-2.34-0.56-4.66-1.31-6.82-2.45c-0.75-0.4-1.07-0.9-1.07-1.75c0.01-4.59-0.02-9.18-0.04-13.77C16.97,78.43,16.97,78.1,16.97,77.67
		z M17.62,65.35c0.25,1.62,1.34,2.25,2.61,2.65c0.87,0.28,1.76,0.46,2.65,0.67c0.41,0.1,0.71,0.32,0.61,0.77
		c-0.1,0.46-0.49,0.52-0.89,0.44c-0.53-0.11-1.07-0.21-1.58-0.36c-0.94-0.28-1.86-0.6-2.84-0.91c-0.04,0.37-0.09,0.63,0.34,0.78
		c0.2,0.07,0.49,0.5,0.44,0.57c-0.16,0.25-0.43,0.53-0.71,0.6c-0.6,0.15-1.24,0.15-1.86,0.24c-1.72,0.24-3.35,0.68-4.7,1.85
		c-1.07,0.92-1.01,1.96,0.22,2.68c1.11,0.66,2.31,1.14,3.64,1.07c0.71-0.04,1.42-0.09,2.12-0.19c1.55-0.21,3.1-0.42,4.64-0.67
		c0.73-0.12,1.45-0.32,2.17-0.47c0.39-0.08,0.75,0.04,0.77,0.44c0.01,0.24-0.25,0.51-0.43,0.73c-0.08,0.09-0.26,0.1-0.4,0.13
		c-1.42,0.3-2.84,0.61-4.27,0.89c-0.61,0.12-1.23,0.16-1.84,0.23c-0.04,0.19-0.08,0.3-0.08,0.4c0.03,4.85,0.06,9.7,0.09,14.55
		c0,0.39,0.16,0.62,0.51,0.79c2.34,1.16,4.8,1.95,7.34,2.48c1.53,0.32,3.09,0.55,4.63,0.8c1.71,0.28,3.42,0.68,5.15,0.76
		c3.42,0.16,6.84,0.14,10.26,0.17c1.14,0.01,2.29,0.01,3.41-0.11c2.91-0.33,5.82-0.77,8.73-1.1c2.72-0.31,5.3-1.09,7.83-2.06
		c0.66-0.25,1.27-0.65,1.88-1.01c0.39-0.22,0.61-0.53,0.62-1.03c0.09-4.1,0.23-8.21,0.33-12.31c0.08-3.33,0.15-6.67,0.21-10
		c0.01-0.68,0-1.36,0-2.13c-0.33,0.13-0.59,0.22-0.85,0.32c-0.61,0.23-1.22,0.47-1.84,0.68c-0.38,0.13-0.75,0.01-0.81-0.38
		c-0.03-0.23,0.19-0.55,0.37-0.75c0.14-0.15,0.42-0.15,0.63-0.25c0.92-0.44,1.87-0.85,2.74-1.36c0.82-0.48,1.14-1.29,1.11-2.21
		c-1.12,0.53-2.19,1.12-3.32,1.56c-1.14,0.44-2.32,0.78-3.51,1.08c-5.97,1.51-12.07,2.12-18.2,2.35c-5.47,0.2-10.95,0.19-16.4-0.46
		C25.2,67.8,21.27,67.29,17.62,65.35z M26.58,57.72c-0.21-0.28-0.36-0.48-0.5-0.68c-0.44-0.62-0.98-1.2-1.29-1.89
		c-1.09-2.35-2.13-4.73-3.15-7.11c-0.53-1.25-1.04-2.51-1.47-3.8c-0.35-1.03-0.16-2,0.59-2.87c1.18-1.36,2.3-2.76,3.43-4.15
		c1.87-2.3,3.73-4.6,5.61-6.9c0.39-0.48,0.8-0.95,1.26-1.49c-3.15-2.78-6.24-5.5-9.35-8.24c-1.55,1.82-3.01,3.52-4.45,5.24
		c-0.93,1.12-1.88,2.23-2.72,3.41c-2.28,3.17-4.49,6.39-6.77,9.56c-1.4,1.95-1.79,4.02-0.99,6.3c0.25,0.7,0.52,1.39,0.84,2.05
		c1.79,3.66,2.78,7.59,3.95,11.46c1.07,3.53,2.53,6.89,3.95,10.27c0.1,0.23,0.25,0.44,0.4,0.7c0.31-0.04,0.61-0.07,0.97-0.12
		c-0.01-1.06,0.11-2.04-0.26-3.01c-0.24-0.64-0.44-1.3-0.54-1.97c-0.07-0.49-0.02-1.02,0.1-1.5c0.28-1.16,1.1-1.9,2.09-2.48
		c1.72-1,3.6-1.56,5.5-2.07C24.67,58.19,25.58,57.98,26.58,57.72z M75.49,50.77c1.73,0.69,3.19,1.66,4.58,2.77
		c1.04,0.83,1.07,1.47,0.06,2.36c-2.55,2.27-5.11,4.55-7.68,6.8c-0.37,0.33-0.57,0.64-0.6,1.14c-0.05,0.99-0.37,1.89-1.06,2.64
		c-0.17,0.18-0.26,0.49-0.27,0.75c-0.09,2.96-0.15,5.92-0.22,8.89c-0.01,0.48,0,0.95,0,1.43c0.17,0.01,0.26,0.03,0.34,0.01
		c0.24-0.08,0.48-0.18,0.72-0.26c2.16-0.7,3.93-2.05,5.63-3.47c1.44-1.2,2.8-2.51,4.16-3.81c3.04-2.88,5.99-5.87,9.11-8.66
		c1.91-1.71,3.3-3.77,4.56-5.93c0.98-1.69,0.89-3.51-0.18-5.19c-0.3-0.48-0.67-0.93-1.08-1.32c-2.78-2.66-5.56-5.31-8.37-7.93
		c-0.64-0.59-1.39-1.06-2.21-1.67C80.46,43.17,78.01,46.93,75.49,50.77z M46.52,55.77c0.13,0.04,0.18,0.07,0.24,0.08
		c2.79,0.1,5.58,0.21,8.37,0.28c0.21,0.01,0.51-0.23,0.63-0.43c1.57-2.84,3.11-5.7,4.68-8.55c0.24-0.43,0.16-0.71-0.13-1.05
		c-0.36-0.43-0.77-0.88-0.95-1.39c-0.36-1.05-0.48-2.16-0.32-3.29c0.12-0.87,0.26-1.75,0.26-2.63c0-1.41-0.85-2.58-2.04-2.81
		c-1.56-0.3-2.43-1.26-2.84-2.73c-0.05-0.18-0.11-0.36-0.2-0.62c-0.6,0.44-1.14,0.84-1.7,1.23c-1.64,1.13-3.43,1.85-5.44,2.08
		c-1.7,0.19-3.37,0.06-5.02-0.23c-2.04-0.36-3.86-1.2-5.22-2.84c-0.29-0.35-0.56-0.72-0.79-1.11c-0.28-0.46-0.58-0.39-0.9-0.1
		c-0.14,0.13-0.28,0.3-0.35,0.48c-0.33,0.75-0.65,1.51-0.94,2.28c-0.66,1.77-1.46,3.42-3.61,3.65c-1.26,0.14-1.84,0.91-2.14,2
		c-0.13,0.46-0.14,0.96-0.19,1.44c-0.17,1.73-0.23,3.47-1.06,5.06c-0.08,0.16-0.07,0.38-0.06,0.57c0.26,2.78,0.52,5.56,0.79,8.33
		c0.06,0.67,0.16,1.33,0.24,1.98c3.21-0.41,6.33-0.81,9.48-1.22c0.02-0.18,0.05-0.35,0.06-0.51c0.03-0.45,0.09-0.91,0.68-0.89
		c0.6,0.02,0.55,0.51,0.6,0.95c0.08,0.73,0.14,1.48,0.34,2.19c0.33,1.17,1.13,1.94,2.34,2.09c0.59,0.07,1.24-0.13,1.83-0.3
		c1.36-0.4,2.11-1.41,2.13-2.84c0.01-0.62-0.09-1.25-0.13-1.87c-0.02-0.38,0.08-0.7,0.5-0.77c0.41-0.06,0.63,0.18,0.71,0.57
		C46.4,55.13,46.46,55.44,46.52,55.77z M82.07,38.42c-0.78-0.43-1.53-0.81-2.25-1.25c-1.02-0.62-1.99-1.33-3.02-1.92
		c-1.6-0.93-3.26-1.75-4.86-2.69c-1.48-0.88-3.04-1.55-4.68-2.04c-1.62-0.48-2.52,0.23-2.39,1.91c0.03,0.33,0.13,0.68,0.29,0.97
		c0.49,0.88,1.12,1.65,2.02,2.15c1.84,1.02,3.68,2.04,5.52,3.07c0.35,0.19,0.71,0.39,0.98,0.67c0.13,0.14,0.18,0.51,0.09,0.67
		c-0.1,0.17-0.41,0.28-0.64,0.28c-0.2,0-0.41-0.17-0.61-0.28c-1.21-0.62-2.42-1.25-3.89-2c-0.12,0.2-0.25,0.46-0.41,0.7
		c-0.8,1.2-0.92,2.48,0.43,3.32c0.53,0.33,1.1,0.6,1.67,0.86c0.54,0.25,1.13,0.42,1.64,0.71c0.21,0.12,0.37,0.49,0.36,0.74
		c-0.01,0.13-0.41,0.33-0.65,0.35c-0.27,0.02-0.57-0.08-0.82-0.21c-1.09-0.54-2.19-1.09-3.25-1.69c-0.37-0.21-0.66-0.24-0.9,0.07
		c-0.98,1.23-1.24,2.01-0.22,3.36c0.25,0.33,0.6,0.62,0.97,0.82c1.38,0.73,2.78,1.43,4.18,2.12c0.84,0.41,1.69,0.79,2.63,1.23
		C76.85,46.39,79.41,42.49,82.07,38.42z M36.85,19.53c0.93-2.25,1.24-4.51,0.33-6.81c-0.08-0.2-0.38-0.38-0.61-0.44
		c-0.47-0.11-0.96-0.13-1.44-0.18c-2.03-0.23-4.07-0.46-6.1-0.71c-0.71-0.08-1.41-0.2-2.11-0.32c-0.4-0.07-0.66,0.07-0.76,0.48
		c-0.28,1.1-0.62,2.19-0.84,3.3c-0.23,1.18-0.26,2.37,0.07,3.56c0.09,0.31,0.14,0.6,0.56,0.63c0.68,0.04,1.36,0.13,2.04,0.17
		c2.24,0.12,4.49,0.24,6.73,0.33C35.41,19.56,36.09,19.53,36.85,19.53z M67.69,37.37c-0.12-0.07-0.24-0.13-0.36-0.2
		c-1.84,3.26-3.6,6.56-5.39,9.84c-1.83,3.35-3.64,6.71-5.47,10.06c-1.8,3.31-3.62,6.61-5.52,10.08c1.17-0.13,2.13-0.21,3.07-0.36
		c0.2-0.03,0.42-0.27,0.53-0.46c0.46-0.82,0.88-1.66,1.32-2.49c2.95-5.59,5.9-11.18,8.86-16.77c0.24-0.45,0.33-0.84,0.08-1.35
		c-0.42-0.85-0.33-1.74,0.14-2.54c0.4-0.67,0.92-1.27,1.49-2.03C66.24,39.86,66.5,38.48,67.69,37.37z M71.82,61.62
		c2.62-2.31,5.15-4.55,7.81-6.9c-1.13-0.75-2.1-1.49-3.17-2.06c-1.09-0.58-2.28-0.99-3.42-1.49c-0.67-0.29-1.32-0.61-2.1-0.97
		c-0.1,3.07-1.04,5.74-2.78,8.14C69.77,59.05,71.26,59.72,71.82,61.62z M31.83,27.84c1.47-1.07,2.32-2.54,3.36-3.85
		c0.09-0.12,0.18-0.35,0.12-0.45c-0.46-0.86-0.54-1.78-0.41-2.77c-1.03-0.08-1.98-0.18-2.94-0.22c-2.25-0.11-4.49-0.18-6.74-0.27
		c-0.53-0.02-0.82-0.25-0.89-0.82c-0.06-0.54-0.24-1.06-0.4-1.73c-0.57,0.68-1.04,1.24-1.53,1.81
		C25.59,22.33,28.7,25.08,31.83,27.84z M62.35,15.3c-0.16-0.2-0.31-0.55-0.48-0.56c-0.19-0.02-0.42,0.26-0.62,0.43
		c-0.05,0.05-0.04,0.16-0.07,0.24c-0.47,1.09-0.83,2.26-1.45,3.27c-1.55,2.52-3.12,5.04-4.86,7.44c-1.47,2.02-3.13,3.92-5.37,5.19
		c-0.34,0.19-0.66,0.46-0.4,0.88c0.28,0.44,0.67,0.21,0.97,0.01c0.75-0.51,1.53-1,2.19-1.61c4.04-3.77,6.83-8.44,9.39-13.26
		C61.98,16.73,62.11,16.04,62.35,15.3z M36.35,59.63c-0.06-0.52-0.46-0.53-0.82-0.49c-1.44,0.13-2.91,0.17-4.32,0.48
		c-2.83,0.61-5.64,1.35-8.45,2.06c-0.46,0.12-0.91,0.34-1.35,0.53c-0.36,0.16-0.82,0.32-0.62,0.84c0.21,0.54,0.64,0.29,1.02,0.16
		c0.75-0.26,1.49-0.57,2.26-0.76c2.54-0.63,5.07-1.27,7.63-1.81c1.27-0.27,2.59-0.33,3.89-0.46C35.95,60.12,36.26,60.06,36.35,59.63
		z M38.37,11.76c0.03,0.01,0.06,0.02,0.1,0.02c0,0.28-0.02,0.57,0,0.85c0.09,1.2,1.1,1.86,2.24,1.48c0.9-0.3,1.7-1.56,1.59-2.49
		c-0.13-1.13-1.19-2.17-2.26-2.19c-0.54-0.01-1.04,0.15-1.24,0.71C38.61,10.67,38.5,11.22,38.37,11.76z M73.15,31.78
		c0.45-0.78,0.91-1.49,1.28-2.25c0.34-0.71,0.63-1.47,0.86-2.23c0.18-0.58-0.05-0.85-0.65-0.93c-0.66-0.09-1.24,0.13-1.73,0.57
		c-1.05,0.92-1.62,2.16-2.35,3.38C71.44,30.82,72.25,31.28,73.15,31.78z M43.15,13.81c-0.82,0.66-1.49,1.2-2.19,1.76
		c-0.15,1.41-0.31,2.92-0.48,4.55c0.57-0.11,1.07-0.15,1.54-0.31c0.66-0.22,0.77-0.54,0.73-1.27c-0.01-0.22,0.18-0.61,0.35-0.65
		c0.64-0.18,0.64-0.6,0.62-1.17c-0.47,0.01-0.97-0.01-0.94-0.6c0.03-0.69,0.65-0.44,1.18-0.52C43.66,14.97,43.41,14.39,43.15,13.81z
		 M36.18,20.88c-0.13,0.83-0.2,1.61,0.41,2.14c0.86,0.75,1.85,0.52,2.81,0.15c0.84-0.32,1.16-0.99,1.29-1.87
		C39.19,21.16,37.73,21.02,36.18,20.88z M62.16,59.3c-0.18,0-0.38-0.05-0.52,0.01c-0.2,0.1-0.45,0.26-0.51,0.44
		c-0.04,0.12,0.21,0.35,0.36,0.5c0.07,0.07,0.21,0.05,0.33,0.07c1.72,0.24,3.41,0.56,5.01,1.26c0.18,0.08,0.38,0.13,0.57,0.13
		c0.4-0.01,0.61-0.4,0.37-0.72c-0.12-0.17-0.34-0.3-0.54-0.39C65.61,59.88,63.89,59.54,62.16,59.3z M26.09,41.39
		c-0.08-0.09-0.23-0.45-0.46-0.52c-0.43-0.13-0.55,0.28-0.64,0.62c-0.03,0.11-0.03,0.23-0.04,0.34c-0.11,1.34-0.59,2.54-1.44,3.59
		c-0.23,0.29-0.45,0.59-0.13,0.89c0.36,0.33,0.68,0.07,0.96-0.2c0.08-0.08,0.15-0.17,0.22-0.26C25.49,44.59,25.91,43.16,26.09,41.39
		z M61.41,12.22c0,0.18-0.06,0.41,0.01,0.58c0.1,0.23,0.29,0.42,0.44,0.63c0.2-0.16,0.5-0.28,0.58-0.49
		c0.38-0.99-0.17-2.92-0.98-3.62c-0.27-0.23-0.58-0.42-0.9-0.1c-0.3,0.29-0.14,0.57,0.09,0.81C61.23,10.64,61.51,11.36,61.41,12.22z
		 M50.19,58.16c-0.03,0-0.26-0.04-0.41,0.05c-0.21,0.13-0.36,0.37-0.53,0.56c0.2,0.16,0.39,0.44,0.6,0.47
		c0.82,0.1,1.64,0.13,2.46,0.16c0.36,0.01,0.74-0.07,0.77-0.5c0.03-0.43-0.31-0.56-0.68-0.59C51.73,58.27,51.05,58.22,50.19,58.16z
		 M38.25,19.82c0.44,0.1,0.88,0.18,0.96-0.38c0.18-1.18,0.32-2.36,0.45-3.54c0.04-0.38-0.18-0.58-0.52-0.49
		C38.84,16.88,38.55,18.31,38.25,19.82z M65.78,26.68c-0.03-0.7-1.02-1.92-1.59-2.02c-0.18-0.03-0.48,0.07-0.56,0.21
		c-0.09,0.14-0.06,0.46,0.05,0.61c0.36,0.5,0.76,0.97,1.18,1.41c0.13,0.13,0.42,0.22,0.59,0.17C65.62,27.01,65.72,26.76,65.78,26.68
		z M34.39,10.77c0.96,0.1,1.8,0.18,2.68,0.27c0.09-0.29,0.16-0.52,0.22-0.75C36.02,9.69,35.11,9.82,34.39,10.77z M33.28,9.78
		c-0.99,0.04-1.99-0.32-2.83,0.53c0.66,0.17,1.32,0.25,1.98,0.33C33,10.71,33.24,10.43,33.28,9.78z"/>
	<path d="M18.19,73.77c0.96-0.2,1.82-0.36,2.66-0.57c0.75-0.18,1.13-0.12,1.26,0.28c0.13,0.41-0.15,0.69-0.87,0.92
		c-1.59,0.52-3.24,0.61-4.89,0.52c-0.52-0.03-1.08-0.18-1.54-0.43c-0.87-0.48-0.94-1.42-0.15-2.02c0.49-0.37,1.08-0.63,1.66-0.83
		c0.59-0.2,1.22-0.25,1.84-0.36c0.38-0.06,0.77-0.09,0.92,0.37c0.13,0.41-0.13,0.67-0.48,0.78C17.96,72.65,18.15,73.11,18.19,73.77z
		 M16.96,73.73c-0.02-0.35-0.03-0.6-0.05-1.02c-0.54,0.26-0.93,0.45-1.32,0.64c0.02,0.07,0.04,0.15,0.05,0.22
		C16.04,73.61,16.45,73.67,16.96,73.73z"/>
	<path d="M56.92,42.88c-0.26,0.86-0.4,1.79-0.82,2.57c-0.73,1.35-1.59,2.63-2.48,3.88c-0.76,1.06-1.83,1.79-2.99,2.37
		c-1.4,0.7-3.45,0.18-4.54-0.95c-1.51-1.55-1.64-3.29-0.95-5.21c0.72-2.02,1.71-3.92,2.94-5.67c0.64-0.91,1.66-1.31,2.72-1.43
		c2.05-0.24,3.82,0.4,5.17,2.02C56.54,41.14,56.82,41.94,56.92,42.88z M52.21,48.88c0.07,0.03,0.14,0.06,0.21,0.1
		c0.79-1.21,1.61-2.4,2.35-3.64c0.33-0.55,0.53-1.19,0.69-1.82c0.3-1.21-0.15-2.2-1.11-2.93c-0.78-0.6-1.7-0.92-2.7-0.94
		c-1.2-0.03-2.21,0.38-2.83,1.43c-0.76,1.3-1.43,2.65-2.13,3.98c-0.1,0.18-0.11,0.41-0.19,0.68C49.08,44.18,52.2,45.17,52.21,48.88z
		"/>
	<path d="M29.35,44.09c0.2-2.29,1.55-4.12,3.6-4.71c0.97-0.28,1.99-0.3,2.78,0.35c2.28,1.85,4.03,4.13,4.77,7.01
		c0.49,1.92-0.1,3.52-1.76,4.79c-1.44,1.11-2.86,1.18-4.38,0.44c-0.52-0.25-1.03-0.66-1.36-1.13c-1.04-1.49-2.05-3.01-2.97-4.58
		C29.67,45.61,29.57,44.81,29.35,44.09z M33.5,49.45c0.23-3.12,2.41-4.52,5.44-3.66c-1.05-1.91-2.15-3.65-3.8-4.94
		c-0.39-0.3-1.09-0.37-1.62-0.3c-1.79,0.23-3.23,2.57-2.68,4.28C31.4,46.51,32.46,47.92,33.5,49.45z"/>
	<path d="M42.77,17.03c-0.32,0.26-0.51,0.54-0.7,0.54c-0.2,0-0.51-0.24-0.56-0.44c-0.1-0.34,0.13-0.63,0.5-0.59
		C42.23,16.56,42.43,16.79,42.77,17.03z"/>
</g>
</svg>
