<?xml version="1.0" encoding="utf-8"?>
<!-- Generator: Adobe Illustrator 25.4.1, SVG Export Plug-In . SVG Version: 6.00 Build 0)  -->
<svg version="1.1" id="Layer_1" xmlns="http://www.w3.org/2000/svg" xmlns:xlink="http://www.w3.org/1999/xlink" x="0px" y="0px"
	 viewBox="0 0 134.84 94.48" style="enable-background:new 0 0 134.84 94.48;" xml:space="preserve">
<g>
	<path d="M58,39.4c-0.21-3.13,0.12-6.25-0.22-9.36c-0.38-0.07-0.72-0.08-1.01-0.2c-0.9-0.36-1.46-1.06-1.42-2.03
		c0.03-0.79,0.18-1.6,0.44-2.35c0.31-0.9,0.4-1.7-0.05-2.6c-0.63-1.25-0.46-2.55,0.06-3.8c0.53-1.28,1.61-1.79,2.88-2.03
		c0.83-0.16,0.9-0.22,0.86-1.09c-0.05-1.22,0.47-2.12,1.37-2.88c0.66-0.56,1.42-0.85,2.27-0.88c0.22-0.01,0.45,0,0.67,0
		c-0.2-0.71-0.45-1.37-0.57-2.05c-0.27-1.61,0.81-3.68,2.31-4.32c1.32-0.56,2.69-0.46,3.94,0.2c3.14,1.66,5.36,4.22,6.89,7.37
		c0.49,1,0.72,2.1,0.45,3.23c-0.05,0.22-0.08,0.49-0.22,0.63c-0.55,0.57-0.33,1.14-0.19,1.79c0.43,1.96,0.76,3.94,1.14,5.94
		c0.1-0.04,0.29-0.12,0.47-0.19c1.49-0.61,2.87-0.37,4.11,0.62c1.24,0.99,1.33,2.87,0.26,4.03c-0.81,0.88-1.81,1.43-2.92,1.81
		c-0.76,0.26-0.79,0.25-0.8,1.11c-0.02,1.64,0,3.27,0,4.91c0,0.73,0,1.46,0,2.22c1.05,0.3,1.73,1.09,2.51,1.75
		c2.34,1.99,4.68,3.98,7.02,5.97c0.02,0.02,0.04,0.03,0.06,0.05c1.19,0.89,1.23,0.92,2.2-0.17c1.08-1.22,2.07-2.53,3.13-3.77
		c0.21-0.25,0.55-0.38,0.82-0.57c0.17-0.12,0.39-0.23,0.48-0.4c0.88-1.64,1.77-3.28,2.59-4.95c0.33-0.67,0.54-1.41,0.71-2.14
		c0.2-0.85,0.64-1.52,1.24-2.12c0.87-0.86,1.86-1.54,2.96-2.05c0.2-0.09,0.4-0.19,0.63-0.3c-0.12-0.56-0.1-1.12-0.83-1.29
		c-0.41-0.1-0.57-0.5-0.49-0.91c0.06-0.28,0.15-0.64,0.36-0.8c0.52-0.42,0.59-0.83,0.31-1.42c-0.22-0.46-0.04-0.87,0.4-1.17
		c0.91-0.63,1.91-1,3.01-1.12c0.76-0.08,1.02,0.17,1.02,0.93c0,0.4,0,0.8,0,1.22c0.15,0.07,0.29,0.14,0.42,0.2
		c0.91,0.42,1.08,0.95,0.71,1.89c-0.14,0.36-0.1,0.79-0.14,1.22c2.9-0.12,3.7,0.48,3.67,2.66c0.56,0.31,1.23,0.57,1.35,1.35
		c0.1,0.67-0.01,1.31-0.46,1.88c0.86,0.88,0.82,1.83,0.24,2.83c-0.09,0.15-0.15,0.39-0.1,0.54c0.31,0.82,0.12,1.53-0.39,2.23
		c1.24,2.37,1.54,5,1.99,7.6c0.56,3.25,1.18,6.48,1.79,9.72c0.08,0.44,0.04,0.75-0.38,1.02c-2.65,1.69-5.63,2.25-8.67,2.57
		c-0.53,0.06-1.1-0.12-1.62-0.3c-0.22-0.08-0.47-0.41-0.51-0.65c-0.19-1.01-0.37-2.03-0.43-3.06c-0.07-1.19-0.26-2.33-0.54-3.49
		c-0.33-1.34-0.46-2.73-0.66-4.09c-0.11-0.74-0.19-1.49-0.31-2.4c-0.27,0.35-0.46,0.58-0.63,0.82c-0.16,0.22-0.32,0.45-0.45,0.64
		c0.13,0.41,0.37,0.8,0.32,1.15c-0.05,0.36-0.36,0.7-0.62,0.99c-1.61,1.8-3.25,3.57-4.87,5.36c-0.85,0.93-1.76,1.82-2.5,2.82
		c-1.46,1.98-3.47,2.14-5.39,0.93c-1.37-0.87-2.62-1.96-3.86-3.02c-1.22-1.05-2.37-2.18-3.56-3.27c-0.1-0.1-0.22-0.18-0.35-0.29
		c-0.06,5.57-0.12,11.09-0.19,16.7c0.73,0.11,1.49,0.26,2.26,0.34c3.65,0.38,7.3,0.78,10.96,1.09c2.68,0.23,5.37,0.31,8.05,0.49
		c1.63,0.11,3.26,0.3,4.89,0.39c1.93,0.1,3.88,0.09,5.81,0.21c2.01,0.12,4.01,0.36,6.01,0.52c0.8,0.06,1.61,0.04,2.41,0.09
		c0.46,0.03,0.67-0.15,0.77-0.6c0.34-1.61,1.16-2.99,2.18-4.26c1.1-1.36,2.5-2.24,4.2-2.65c0.24-0.06,0.5-0.09,0.75-0.08
		c0.58,0.02,0.81,0.29,0.75,0.88c-0.22,2.05-0.47,4.1-0.67,6.15c-0.14,1.48-0.26,2.96-0.33,4.44c-0.14,2.77-0.5,5.51-1.15,8.21
		c-0.24,1-0.39,1.04-1.39,1.1c-3.48,0.21-6.92-0.32-10.4-0.31c-3.57,0.01-7.13-0.36-10.7-0.54c-0.98-0.05-1.96-0.02-2.94-0.05
		c-4.15-0.13-8.3-0.28-12.45-0.4c-2.34-0.06-4.68-0.06-7.02-0.09c-3.05-0.05-6.09-0.12-9.14-0.15c-5.34-0.05-10.67-0.07-16.01-0.13
		c-3.25-0.03-6.49-0.08-9.74-0.15c-2.54-0.06-5.08-0.22-7.62-0.23c-4.05-0.03-8.11,0.02-12.16,0.03c-3.98,0.01-7.96,0-11.93,0
		c-1.13,0-2.26,0-3.45,0c-0.68,1.51-1.69,2.9-2.97,4.11c-1.04,0.99-2.28,1.45-3.67,1.57c-1.24,0.11-1.54-0.15-1.39-1.37
		c0.28-2.24,0.6-4.49,0.97-6.72c0.53-3.25,1.15-6.49,1.63-9.74c0.22-1.5,0.2-1.54,1.88-1.39c1.33,0.11,2.66,0.3,3.99,0.27
		c3.27-0.08,6.53-0.27,9.79-0.41c0.7-0.03,1.41-0.03,2.11-0.03c4.05-0.01,8.1,0,12.15-0.02c4.38-0.02,8.76-0.05,13.14-0.09
		c1.31-0.01,2.62-0.04,3.93-0.08c0.47-0.01,0.94-0.07,1.47-0.12c0-0.64-0.01-1.21,0-1.78c0.05-3.7,0.11-7.4,0.18-11.1
		c0.01-0.48-0.14-0.74-0.57-0.99c-1-0.58-1.96-1.25-2.53-2.39c-1.05,0.79-2.06,1.57-3.1,2.32c-1.26,0.91-2.53,1.82-3.83,2.69
		c-2.58,1.75-6.27,1.03-8.32-1.06c-1.42-1.46-2.84-2.92-4.27-4.38c-1.13-1.15-2.25-2.3-3.38-3.45c-0.16-0.16-0.3-0.35-0.48-0.48
		c-1.24-0.93-2.02-2.23-2.85-3.49c-0.83-1.26-1.63-2.54-2.41-3.83c-0.17-0.28-0.35-0.38-0.66-0.39c-0.8-0.03-1.61-0.05-2.41-0.16
		c-0.61-0.08-1.24-0.21-1.81-0.45c-0.83-0.35-1.16-0.92-1.46-2.16c-1.02-0.19-2.07-0.36-3.09-0.59c-0.71-0.16-1.4-0.41-2.09-0.66
		c-0.28-0.1-0.54-0.28-0.76-0.47c-0.65-0.56-0.67-1.35,0.01-1.88c0.43-0.33,0.94-0.62,1.46-0.76c1.38-0.37,2.79-0.65,4.19-0.96
		c0.27-0.06,0.54-0.1,0.71-0.13c0.36-1.34,0.73-2.59,1.02-3.86c0.51-2.23,2.36-2.96,4.38-2.73c0.62,0.07,1.21,0.33,1.83,0.46
		c0.66,0.14,1.33,0.23,2,0.35c0.2,0.03,0.42,0.02,0.59,0.11c0.49,0.29,0.93,0.14,1.35-0.1c0.98-0.56,1.82-1.28,2.27-2.35
		c0.21-0.51,0.56-0.71,1.06-0.62c0.62,0.11,1.23,0.25,1.83,0.44c0.57,0.18,0.73,0.74,0.34,1.29c-0.85,1.18-1.59,2.46-2.78,3.35
		c1.26-0.54,2.28-1.36,3.04-2.51c0.52-0.77,0.66-0.82,1.54-0.49c0.49,0.18,0.99,0.38,1.47,0.6c0.57,0.26,0.67,0.62,0.32,1.14
		c-0.98,1.46-2.23,2.66-3.73,3.57c-0.41,0.25-0.51,0.49-0.29,0.93c1.14,0.12,2.29,0.23,3.43,0.38c1.7,0.23,3.39,0.47,4.97,1.2
		c0.61,0.28,1.23,0.61,1.23,1.37c0.01,0.76-0.6,1.12-1.21,1.4c-1.5,0.7-3.12,0.96-4.73,1.23c-0.57,0.09-1.13,0.17-1.63,0.25
		c-0.16,0.7-0.3,1.33-0.47,2.04c1.51,2.44,3.39,4.73,5.42,6.89c0.14,0.15,0.29,0.28,0.44,0.41c0.64,0.54,0.87,0.59,1.53,0.11
		c1.12-0.81,2.21-1.66,3.31-2.5c2.06-1.58,4.11-3.16,6.15-4.75c0.65-0.51,1.28-1.05,1.93-1.57c0.79-0.64,1.66-1.05,2.7-0.97
		c0.1,0.01,0.2-0.01,0.3-0.02C57.83,39.48,57.88,39.45,58,39.4z M121.23,75.02c-0.76-0.05-1.49-0.09-2.21-0.14
		c-2.33-0.18-4.66-0.39-6.99-0.54c-1.46-0.09-2.92-0.06-4.37-0.14c-2.08-0.12-4.16-0.3-6.25-0.44c-0.75-0.05-1.51-0.01-2.26-0.07
		c-2.66-0.21-5.32-0.41-7.97-0.67c-3.23-0.32-6.45-0.7-9.68-1.04c-1.25-0.13-2.5-0.29-3.76-0.29c-2.24-0.01-4.48,0.08-6.72,0.13
		c-1.18,0.03-2.36,0.05-3.54,0.1c-1.43,0.06-2.86,0.17-4.3,0.19c-2.39,0.02-4.78-0.05-7.17-0.01c-3.45,0.06-6.89,0.21-10.34,0.27
		c-3.15,0.05-6.29,0.03-9.44,0.01c-2.29-0.01-4.58-0.13-6.87-0.1c-4,0.06-8,0.19-12,0.31c-0.9,0.03-1.8,0.09-2.71,0.14
		c-0.43,3.74-0.85,7.43-1.28,11.22c0.45,0,0.75,0,1.04,0c4.08,0,8.15,0,12.23,0c3.65,0,7.3-0.02,10.95,0.01
		c3.27,0.02,6.54,0.09,9.81,0.15c2.94,0.05,5.89,0.1,8.83,0.15c3.4,0.05,6.79,0.11,10.19,0.15c2.11,0.02,4.23-0.01,6.34,0.01
		c3.6,0.04,7.2,0.1,10.8,0.15c1.59,0.02,3.17,0.02,4.76,0.08c3.22,0.11,6.43,0.26,9.65,0.37c3.19,0.11,6.39,0.19,9.58,0.3
		c3.12,0.11,6.23,0.28,9.35,0.38c1.4,0.05,2.8,0.01,4.33,0.01C121.23,82.16,121.23,78.63,121.23,75.02z M66.29,39.6
		c0.32,0.56,0.07,1.05-0.23,1.52c-0.59,0.95-1.5,1.55-2.41,2.13c-2.04,1.3-4.1,2.55-6.1,3.9c-1.38,0.93-2.6,2.04-3.55,3.46
		c-0.78,1.17-0.85,2.33-0.26,3.56c0.51,1.07,1.42,1.69,2.46,2.11c0.87,0.35,1.5-0.02,1.83-0.9c0.11-0.28,0.2-0.57,0.33-0.84
		c0.12-0.24,0.26-0.51,0.47-0.65c2.22-1.5,4.23-3.25,6.14-5.12c0.5-0.49,0.91-1.07,1.42-1.56c0.15-0.15,0.56-0.24,0.7-0.14
		c0.15,0.11,0.23,0.49,0.17,0.7c-0.1,0.3-0.32,0.57-0.55,0.8c-1.19,1.15-2.39,2.31-3.62,3.43c-0.77,0.7-1.6,1.34-2.47,2.06
		c1.6,0.76,2.51,2.05,3.42,3.36c0.33,0.47,0.65,0.96,1,1.42c0.99,1.29,2.78,1.48,3.89,0.31c0.72-0.76,1.26-1.68,1.84-2.56
		c0.81-1.24,1.55-2.53,2.36-3.77c0.1-0.16,0.51-0.29,0.62-0.21c0.18,0.12,0.35,0.47,0.3,0.65c-0.13,0.42-0.39,0.81-0.6,1.21
		c-0.13,0.24-0.28,0.48-0.47,0.8c1.32-0.26,2.24-0.91,2.95-1.82c1.74-2.23,2.5-4.76,2.06-7.56c-0.31-2.03-1.19-3.79-2.94-4.99
		c-0.65-0.45-1.32-0.8-2.17-0.67c0.28,0.59,0.57,1.15,0.8,1.73c0.1,0.25,0.18,0.56,0.11,0.8c-0.06,0.21-0.34,0.43-0.55,0.47
		c-0.13,0.03-0.45-0.25-0.48-0.43c-0.18-1.06-0.76-1.82-1.62-2.43C69.65,39.3,68.09,38.8,66.29,39.6z M36.04,44.02
		c-0.59,0.4-1.12,0.79-1.67,1.13c-1.05,0.65-2.12,1.25-3.16,1.91c-1,0.64-1.02,0.78-0.54,1.88c0.05,0.12,0.09,0.24,0.17,0.34
		c0.85,1.21,1.6,2.52,2.58,3.61c1.57,1.76,3.27,3.41,4.96,5.07c1.69,1.65,4.63,2.32,6.8,0.84c1.37-0.93,2.69-1.95,4.06-2.88
		c1.02-0.69,1.78-1.61,2.49-2.6c0.34-0.49,0.58-0.97,0.6-1.59c0.01-0.36,0.18-0.73,0.36-1.06c0.61-1.11,1.35-2.14,2.35-2.93
		c1.18-0.94,2.38-1.85,3.63-2.69c1.31-0.89,2.69-1.67,4.04-2.51c0.63-0.39,1.16-0.86,1.28-1.72c-0.3-0.05-0.54-0.13-0.78-0.13
		c-1.74-0.04-3.47-0.04-5.21-0.1c-1.15-0.04-2.11,0.31-2.95,1.08c-0.44,0.41-0.91,0.79-1.39,1.16c-2.05,1.59-4.1,3.18-6.15,4.75
		c-1.24,0.95-2.48,1.88-3.74,2.8c-0.66,0.48-1.37,0.47-2.05,0.05c-0.36-0.22-0.71-0.49-0.99-0.8c-1.15-1.3-2.28-2.62-3.4-3.94
		C36.86,45.15,36.46,44.57,36.04,44.02z M77.61,32.46c0.03-0.3,0.06-0.5,0.07-0.69c0.03-1.16,0.03-1.15,1.15-1.48
		c1.11-0.32,2.1-0.82,2.88-1.71c0.35-0.4,0.45-0.8,0.3-1.32c-0.38-1.32-1.88-2.05-3.27-1.55c-0.28,0.1-0.55,0.25-0.83,0.35
		c-0.85,0.28-1.42-0.12-1.56-1c-0.28-1.84-0.59-3.67-0.89-5.5c-0.04-0.23-0.14-0.45-0.22-0.68c-1.65,0.99-2.58,1.17-4.47,0.97
		c-0.97-0.1-1.94-0.14-2.93-0.21c-0.06,0.25-0.13,0.44-0.16,0.64c-0.37,2.24-2.25,3.29-4.17,3.27c-1.21-0.01-1.21-0.05-1.19,1.14
		c0,0.1,0.02,0.2,0.01,0.3c-0.17,1.94-1.08,3.47-2.74,4.43c-0.62,0.36-0.69,0.73-0.68,1.3c0.05,2.01,0.08,4.02,0.11,6.03
		c0.02,0.89,0.04,1.79,0.06,2.81c1.52,0,2.92,0.01,4.33-0.01c0.2,0,0.43-0.13,0.61-0.25c0.99-0.65,2.11-0.97,3.26-1.12
		c0.91-0.12,1.89-0.21,2.74,0.26c0.9,0.49,1.85,0.57,2.84,0.62c0.55,0.03,1.14,0.05,1.62,0.27c0.72,0.34,1.43,0.38,2.19,0.33
		c0.87-0.06,0.98-0.13,1.01-1.01c0.01-0.22-0.02-0.43-0.04-0.72c-2.11,0.48-4.16,0.39-6.21,0.16c-2.36-0.27-4.42-1.19-5.93-3.08
		c-0.86-1.08-1.24-2.36-1.06-3.75c0.18-1.39,0.85-2.16,2.24-2.37c0.81-0.12,1.66-0.1,2.47,0.01c1.25,0.17,2.28,0.9,3.34,1.52
		c1.26,0.74,2.48,1.55,3.93,1.87C76.79,32.38,77.18,32.4,77.61,32.46z M80.27,41.94c0.07,0.49,0.13,0.83,0.16,1.17
		c0.09,0.93,0.21,1.85,0.24,2.78c0.12,4.47,1.92,8.16,5.18,11.16c0.91,0.83,1.89,1.59,2.89,2.31c0.5,0.36,1.1,0.61,1.69,0.79
		c0.96,0.29,1.76-0.05,2.43-0.79c1.55-1.72,3.14-3.4,4.69-5.12c1.02-1.13,1.88-2.35,2.22-3.88c0.15-0.67,0.01-1.14-0.49-1.61
		c-1.49-1.39-2.94-2.83-4.4-4.25c-0.14-0.13-0.28-0.25-0.45-0.4c-0.19,0.24-0.35,0.43-0.51,0.62c-1.04,1.23-2.06,2.47-3.13,3.68
		c-0.63,0.72-1.42,0.81-2.24,0.32c-0.47-0.28-0.93-0.6-1.36-0.96c-2.14-1.8-4.26-3.61-6.39-5.42
		C80.67,42.24,80.53,42.14,80.27,41.94z M60.95,55.49c-0.15,0.05-0.23,0.06-0.29,0.1c-0.93,0.56-1.86,1.11-2.77,1.68
		c-0.18,0.11-0.35,0.32-0.41,0.52c-0.21,0.69-0.51,1.39-0.54,2.1c-0.11,3.02-0.13,6.04-0.17,9.06c-0.01,0.94,0.85,1.92,1.78,2.02
		c0.55,0.06,1.11,0.08,1.66,0.06c2.54-0.07,5.08-0.15,7.61-0.26c0.32-0.01,0.68-0.16,0.95-0.34c0.98-0.64,1.39-1.58,1.41-2.76
		c0.04-2.41,0.14-4.83,0.21-7.24c0.01-0.31-0.06-0.61-0.1-1.03c-0.32,0.3-0.51,0.54-0.76,0.7c-0.44,0.28-0.88,0.68-1.37,0.75
		c-1.73,0.26-3.24-0.12-4.27-1.71c-0.59-0.91-1.24-1.77-1.91-2.62C61.68,56.14,61.28,55.82,60.95,55.49z M76.71,40.69
		c0.45,0.61,0.85,1.07,1.15,1.58c0.31,0.54,0.57,1.12,0.78,1.71c1.05,3.02,0.59,5.91-0.85,8.68c-0.77,1.48-1.88,2.71-3.46,3.34
		c-0.7,0.28-1.18,0.72-1.57,1.32c-0.92,1.39-1.24,2.96-1.32,4.58c-0.1,2.01-0.12,4.02-0.16,6.04c-0.02,0.9,0,1.79,0,2.83
		c2.14-0.05,4.17-0.09,6.2-0.14c0.14,0,0.3-0.07,0.4-0.16c0.86-0.8,1.62-1.69,1.67-2.94c0.1-2.19,0.21-4.37,0.24-6.56
		c0.02-1.56-0.12-3.12-0.13-4.68c-0.02-3.15,0.07-6.3-0.04-9.44c-0.06-1.88-0.39-3.75-0.63-5.61c-0.03-0.19-0.25-0.5-0.4-0.52
		C78,40.65,77.4,40.69,76.71,40.69z M103.34,36.18c-0.41,0.1-0.71,0.23-1.02,0.24c-0.23,0-0.57-0.09-0.68-0.26
		c-0.19-0.29-0.02-0.59,0.3-0.74c0.27-0.12,0.57-0.2,0.86-0.28c1.9-0.56,3.82-1.06,5.7-1.7c0.61-0.21,1.15-0.7,1.63-1.16
		c0.45-0.43,0.35-1.07-0.12-1.47c-0.42-0.35-0.93-0.34-1.43-0.24c-1.11,0.22-2.21,0.47-3.32,0.7c-1.68,0.35-3.17,1.1-4.5,2.18
		c-0.72,0.58-1.21,1.29-1.49,2.21c-0.36,1.17-0.82,2.31-1.35,3.42c-0.64,1.34-1.37,2.63-2.09,3.92c-0.23,0.42-0.22,0.71,0.16,1.04
		c0.55,0.48,1.04,1.02,1.57,1.53c1.07,1.02,2.14,2.04,3.23,3.08c0.49-0.59,0.91-1.2,1.44-1.69c0.27-0.26,0.32-0.47,0.26-0.78
		c-0.32-1.78-0.18-3.48,0.58-5.15C103.73,39.52,103.76,37.92,103.34,36.18z M12.53,37.07c-0.02,0.09-0.04,0.18-0.05,0.28
		c0.55,0.22,1.08,0.5,1.64,0.66c3.05,0.83,6.2,1.06,9.34,1.18c4.58,0.17,9.16,0.08,13.71-0.57c1.46-0.21,2.91-0.56,4.35-0.91
		c0.48-0.12,1.02-0.25,1.32-0.75c-1.02-0.91-5.81-1.87-8.84-1.77c-0.11,0.28-0.23,0.57-0.34,0.87c-0.52,1.49-1.7,2.29-3.25,2.09
		c-0.87-0.11-1.76-0.26-2.56-0.58c-0.94-0.38-1.79-0.28-2.71-0.01c-0.86,0.26-1.75,0.48-2.64,0.6c-1.72,0.23-3.29-0.75-3.93-2.38
		c-0.03-0.09-0.11-0.16-0.18-0.25C16.37,35.85,14.33,36.03,12.53,37.07z M19.51,40.69c0,0.1,0,0.2,0,0.3
		c0.4,0.12,0.79,0.31,1.2,0.34c1.1,0.09,2.21,0.13,3.31,0.17c0.36,0.01,0.7,0.01,0.87,0.43c0.82,2,2.19,3.66,3.34,5.45
		c0.04,0.06,0.12,0.08,0.24,0.16c2.19-1.65,4.74-2.79,6.95-4.52c-0.43-0.6-1.03-1.08-0.53-1.85c-1.49-0.75-3.06-0.84-4.56-0.91
		c-2.58-0.11-5.18,0.03-7.77,0.11C21.54,40.42,20.52,40.59,19.51,40.69z M107.56,36.66c1.34-0.3,2.75-0.76,3.86-1.87
		c0.07-0.07,0.13-0.15,0.18-0.24c0.19-0.34,0.34-0.71,0-1.03c-0.34-0.31-0.76-0.32-1.09-0.01c-0.73,0.7-1.64,1.06-2.57,1.34
		c-0.62,0.19-0.88,0.61-1.04,1.16C106.76,36.5,106.91,36.67,107.56,36.66z M65.51,17.15c-0.22,0.1-0.45,0.13-0.57,0.27
		c-0.2,0.21-0.38,0.46-0.47,0.73c-0.05,0.14,0.07,0.42,0.19,0.5c0.12,0.07,0.37-0.01,0.53-0.09c0.17-0.08,0.28-0.28,0.45-0.36
		c0.82-0.41,0.9-0.55,0.78-1.46c-0.02-0.14,0-0.29,0-0.55c0.4,0,0.76-0.02,1.12,0.01c0.22,0.02,0.43,0.15,0.65,0.2
		c0.72,0.16,1.15-0.2,0.93-0.88c-0.19-0.58-0.55-1.12-0.9-1.63c-0.08-0.12-0.44-0.06-0.67-0.08c-0.01,0.21-0.09,0.43-0.03,0.62
		c0.09,0.26,0.27,0.49,0.44,0.79C65.6,15.08,65.14,15.66,65.51,17.15z M108.1,39.54c1.17-0.25,2.4-0.73,3.39-1.68
		c0.17-0.17,0.27-0.42,0.37-0.65c0.13-0.29,0.18-0.63-0.15-0.79c-0.17-0.08-0.46,0-0.66,0.08c-0.83,0.34-1.64,0.78-2.49,1.04
		c-0.67,0.21-0.99,0.65-1.19,1.24C107.2,39.3,107.4,39.54,108.1,39.54z M32.78,31.72c0.29,0.15,0.48,0.29,0.69,0.35
		c0.21,0.06,0.51,0.14,0.66,0.04c1.17-0.77,2.31-1.6,3.07-2.9c-0.38-0.16-0.72-0.3-1.1-0.45C35.26,30.03,34.15,30.95,32.78,31.72z
		 M70.76,8.63c-0.42-0.02-0.65,0.29-0.51,0.6c0.06,0.13,0.18,0.24,0.29,0.34c0.9,0.8,1.79,1.61,2.34,2.71
		c0.03,0.07,0.07,0.16,0.13,0.18c0.2,0.06,0.43,0.16,0.6,0.1c0.11-0.04,0.18-0.33,0.17-0.5c-0.02-0.19-0.15-0.37-0.24-0.54
		c-0.56-1.06-1.45-1.84-2.33-2.63C71.06,8.77,70.87,8.69,70.76,8.63z M29.5,29.81c0.63,0.47,1.07,0.48,1.66,0.12
		c1.14-0.68,1.75-1.81,2.56-2.89c-0.41-0.1-0.74-0.17-1.08-0.26C31.91,28.18,30.83,29.13,29.5,29.81z M104.48,47.67
		c0.08,0.53,0.17,1.2,0.28,1.87c0.06,0.37,0.14,0.74,0.21,1.11c0.07,0.33,0.22,0.6,0.6,0.52c0.35-0.07,0.36-0.36,0.32-0.66
		c-0.03-0.17-0.05-0.35-0.08-0.52c-0.14-0.84-0.29-1.68-0.41-2.52c-0.05-0.38-0.01-0.86-0.53-0.83
		C104.33,46.66,104.48,47.16,104.48,47.67z M103.97,44.13c0.04,0.01,0.08,0.02,0.12,0.03c0,0.08-0.01,0.15,0,0.23
		c0.06,0.36,0.02,0.85,0.55,0.83c0.48-0.02,0.44-0.47,0.43-0.82c-0.04-0.95,0.15-1.84,0.53-2.71c0.13-0.31,0.19-0.68-0.22-0.83
		c-0.38-0.14-0.56,0.17-0.64,0.46C104.47,42.26,104.23,43.2,103.97,44.13z M102.94,28.45c1.34,0.45,3.32,0,4.12-0.93
		C105.51,27.08,104.26,27.61,102.94,28.45z M57.06,21.04c0,0.09-0.01,0.24,0,0.39c0.01,0.33,0.11,0.65,0.49,0.63
		c0.44-0.01,0.5-0.37,0.43-0.72c-0.13-0.63,0.12-1.13,0.48-1.6c0.21-0.27,0.35-0.53,0.01-0.77c-0.31-0.22-0.59-0.04-0.78,0.2
		C57.28,19.71,57,20.29,57.06,21.04z M24.27,30.68c0.11-0.08,0.34-0.16,0.38-0.3c0.04-0.15-0.04-0.41-0.16-0.51
		c-0.61-0.54-2.18-0.3-2.65,0.38c-0.2,0.29-0.28,0.62,0.02,0.87c0.29,0.24,0.51,0.02,0.68-0.21c0.29-0.4,0.67-0.48,1.12-0.35
		C23.84,30.59,24.02,30.62,24.27,30.68z M105.76,25.09c-0.7,0.27-1.29,0.46-1.85,0.71c-0.43,0.19-0.45,0.49-0.12,0.83
		c0.66-0.15,1.3-0.31,1.97-0.46C105.76,25.85,105.76,25.58,105.76,25.09z M68.9,8.16C69,8.1,69.2,8.03,69.31,7.9
		c0.06-0.08,0.03-0.29-0.03-0.4C69.12,7.19,68.25,6.86,67.95,7c-0.16,0.08-0.35,0.26-0.36,0.41c-0.01,0.14,0.15,0.37,0.3,0.44
		C68.17,8,68.49,8.05,68.9,8.16z M20.99,33.06c0.46-0.02,0.78-0.4,0.69-0.76c-0.04-0.16-0.25-0.37-0.42-0.4
		c-0.28-0.05-0.65,0.43-0.57,0.75C20.72,32.82,20.91,32.96,20.99,33.06z M28.06,30.67c-0.09-0.47-0.32-0.67-0.66-0.6
		c-0.16,0.03-0.38,0.27-0.38,0.42c-0.01,0.36,0.28,0.54,0.61,0.51C27.79,30.99,27.94,30.77,28.06,30.67z M111.59,39.26
		c-0.31,0.2-0.51,0.34-0.79,0.52c0.25,0.12,0.41,0.2,0.65,0.31C111.5,39.79,111.54,39.58,111.59,39.26z"/>
	<path d="M34.13,49.74c0,0.46-0.43,0.74-0.77,0.45c-0.47-0.4-0.87-0.88-1.23-1.38c-0.09-0.13,0.02-0.48,0.14-0.65
		c0.07-0.1,0.43-0.13,0.52-0.04c0.46,0.45,0.87,0.94,1.3,1.43C34.13,49.59,34.12,49.68,34.13,49.74z"/>
	<path d="M75,25.16c-0.11,0.12-0.26,0.43-0.45,0.45c-0.19,0.02-0.42-0.23-0.61-0.4c-0.08-0.07-0.07-0.23-0.11-0.36
		c-0.31-1.01-0.83-1.44-1.75-1.45c-1.03-0.01-1.73,0.49-2.04,1.46c-0.05,0.17-0.08,0.34-0.12,0.51c-0.07,0.35-0.27,0.54-0.64,0.49
		c-0.38-0.05-0.48-0.35-0.44-0.67c0.12-0.99,0.52-1.84,1.39-2.39c1.89-1.22,4.27-0.28,4.68,1.83C74.94,24.76,74.96,24.88,75,25.16z"
		/>
	<path d="M66.56,25.37c-0.81-0.01-1.09-0.17-1.08-0.56c0.02-0.4,0.39-0.6,1.06-0.54c0.12,0.01,0.29-0.02,0.37,0.05
		c0.17,0.15,0.42,0.35,0.41,0.52c0,0.18-0.25,0.38-0.43,0.51C66.78,25.42,66.59,25.37,66.56,25.37z"/>
	<path d="M66.04,27.49c-0.19-0.13-0.45-0.21-0.52-0.37c-0.07-0.16-0.01-0.51,0.11-0.59c0.33-0.21,0.71-0.35,1.09-0.44
		c0.13-0.03,0.42,0.14,0.46,0.27c0.06,0.17,0.01,0.49-0.11,0.59C66.78,27.18,66.42,27.3,66.04,27.49z"/>
	<path d="M98.38,50.15c-0.02,0.45-0.94,1.69-1.26,1.73c-0.17,0.02-0.45-0.04-0.52-0.15c-0.1-0.16-0.15-0.47-0.06-0.61
		c0.28-0.44,0.6-0.86,0.96-1.24c0.12-0.12,0.42-0.15,0.6-0.09C98.25,49.84,98.33,50.08,98.38,50.15z"/>
</g>
</svg>
