<?xml version="1.0" encoding="utf-8"?>
<!-- Generator: Adobe Illustrator 25.4.1, SVG Export Plug-In . SVG Version: 6.00 Build 0)  -->
<svg version="1.1" id="Layer_1" xmlns="http://www.w3.org/2000/svg" xmlns:xlink="http://www.w3.org/1999/xlink" x="0px" y="0px"
	 viewBox="0 0 189.58 44.13" style="enable-background:new 0 0 189.58 44.13;" xml:space="preserve">
<g>
	<path d="M70.8,6.75c1.42-1.12,2.99-1.93,4.77-2.26c4.22-0.79,7.97,0.07,10.94,3.32c1.49,1.63,2.13,3.61,2.08,5.85
		c-0.06,2.95,0.02,5.9,0.03,8.86c0.01,2.15,0.01,4.3,0.03,6.45c0.02,2.15,0,4.31,0.11,6.45c0.12,2.3-2.25,3.93-4.57,2.87
		c-0.96-0.44-1.47-1.26-1.48-2.34c-0.01-1.63-0.02-3.25-0.04-4.88c-0.03-2.55-0.09-5.1-0.11-7.65c-0.01-1.05-0.48-1.82-1.28-2.42
		c-1.77-1.32-4.72-1.16-6.34,0.34c-0.57,0.52-0.97,1.14-0.96,1.96c0,0.87-0.05,1.75-0.04,2.62c0.02,2.9,0.05,5.8,0.06,8.71
		c0,0.6-0.02,1.2-0.09,1.8c-0.11,1.02-1,1.96-2.07,2.23c-2.3,0.58-4.36-1.1-4.31-3.46c0.06-3.2,0.06-6.41,0.07-9.61
		c0-0.82-0.03-1.65-0.04-2.47c-0.02-1.37-0.79-2.24-1.95-2.78c-1.8-0.84-3.56-0.69-5.2,0.41c-0.88,0.59-1.38,1.43-1.38,2.53
		c0.03,4,0.04,8,0.1,12.01c0.03,1.81-1.4,3.43-3.15,3.44c-1.81,0.02-3.19-1.4-3.18-3.27c0.05-7.21,0.13-14.41,0.12-21.62
		c0-1.84,0.32-3.52,1.34-5.05c1.12-1.67,2.62-2.9,4.48-3.63c4.14-1.64,8.07-1.27,11.73,1.36C70.56,6.59,70.67,6.66,70.8,6.75z"/>
	<path d="M166.16,6.6c1.11-0.88,2.32-1.6,3.68-1.98c4.57-1.25,8.69-0.54,12.03,3.04c1.51,1.62,2.13,3.61,2.09,5.85
		c-0.05,2.98,0.02,5.95,0.03,8.93c0.01,2.13,0.01,4.25,0.03,6.38c0.02,2.15,0,4.31,0.11,6.45c0.12,2.33-2.28,3.93-4.57,2.88
		c-0.96-0.44-1.47-1.25-1.48-2.34c-0.01-1.73-0.02-3.45-0.04-5.18c-0.03-2.45-0.09-4.9-0.11-7.35c-0.01-1.17-0.57-2.02-1.53-2.58
		c-1.82-1.05-3.69-1.01-5.49,0.04c-0.95,0.55-1.59,1.36-1.58,2.55c0,0.82-0.04,1.65-0.03,2.48c0.02,2.9,0.05,5.8,0.06,8.71
		c0,0.6-0.02,1.2-0.09,1.8c-0.1,1.02-0.99,1.96-2.06,2.24c-2.29,0.59-4.36-1.1-4.32-3.45c0.06-3.23,0.06-6.46,0.07-9.68
		c0-0.82-0.02-1.64-0.05-2.47c-0.04-1.41-0.89-2.26-2.07-2.78c-1.67-0.73-3.32-0.61-4.88,0.35c-1.03,0.63-1.58,1.55-1.58,2.8
		c0.03,3.75,0.03,7.51,0.03,11.26c0,0.59,0.01,1.21-0.15,1.77c-0.46,1.6-1.91,2.48-3.52,2.24c-1.49-0.22-2.6-1.61-2.59-3.22
		c0.05-7.03,0.09-14.06,0.14-21.09c0-0.3,0.01-0.6,0-0.9c-0.12-3.15,1.36-5.48,3.83-7.22c4.06-2.87,9.61-2.74,13.63,0.22
		C165.88,6.41,166,6.49,166.16,6.6z"/>
	<path d="M50.02,21.91c0,2.68-0.01,5.35,0,8.03c0.01,2.88-1.31,5.09-3.5,6.8c-4.55,3.57-11.78,2.9-15.45-1.42
		c-1.4-1.65-2.16-3.53-2.12-5.76c0.09-5.28,0.15-10.56,0.1-15.84c-0.03-2.93,1.16-5.17,3.35-6.95c4.31-3.5,11.22-3.18,15.07,0.68
		c1.76,1.77,2.61,3.89,2.54,6.43c-0.08,2.68-0.02,5.35-0.02,8.03C49.99,21.91,50,21.91,50.02,21.91z M39.8,19.33
		c0.01,0,0.03,0,0.04,0c0,0.87-0.02,1.75,0,2.62c0.02,0.96,0.63,1.51,1.65,1.53c1.07,0.03,1.94-0.55,1.96-1.43
		c0.05-1.92,0.06-3.84,0.01-5.76c-0.01-0.36-0.3-0.81-0.59-1.05c-0.63-0.52-1.38-0.5-2.11-0.16c-0.7,0.32-0.96,0.9-0.96,1.63
		C39.8,17.58,39.8,18.46,39.8,19.33z"/>
	<path d="M124.42,21.29c0-2.6,0.06-5.21-0.02-7.81c-0.08-2.72,1.05-4.84,3.01-6.58c4.23-3.76,11.38-3.58,15.36,0.36
		c1.8,1.78,2.64,3.92,2.58,6.48c-0.07,2.93,0.02,5.85,0.03,8.78c0.01,2.68,0.08,5.36-0.04,8.03c-0.1,2.19-1.21,3.98-2.79,5.48
		c-4.66,4.4-13.04,3.62-16.69-1.58c-1.04-1.48-1.62-3.11-1.57-4.98c0.07-2.73,0.02-5.45,0.02-8.18
		C124.35,21.29,124.39,21.29,124.42,21.29z M138.85,19c0.01,0,0.02,0,0.03,0c0-0.87,0-1.75,0-2.62c0-0.5-0.13-0.94-0.54-1.26
		c-0.68-0.51-1.42-0.55-2.19-0.21c-0.7,0.31-0.98,0.89-0.98,1.62c0.01,1.77,0.01,3.54,0.05,5.31c0.01,0.3,0.13,0.65,0.3,0.89
		c0.4,0.55,1.35,0.74,2.13,0.48c0.82-0.27,1.18-0.74,1.19-1.6C138.86,20.75,138.85,19.88,138.85,19z"/>
	<path d="M5.03,23.87c0-3.4,0.06-6.81-0.02-10.21c-0.07-2.81,1.1-4.98,3.16-6.74c4.27-3.63,11.26-3.4,15.19,0.47
		c1.82,1.8,2.67,3.96,2.6,6.55c-0.08,2.9,0.01,5.81,0.03,8.71c0.01,1.3,0.02,2.6,0.03,3.9c0.02,2.73,0.05,5.45,0.07,8.18
		c0,0.4,0,0.8-0.03,1.2c-0.1,1.36-0.77,2.16-2.07,2.51c-1.3,0.35-2.77-0.09-3.43-1.08c-0.17-0.26-0.3-0.58-0.35-0.89
		c-0.08-0.47-0.11-0.94-0.11-1.42c-0.02-4.08-0.05-8.16-0.04-12.24c0.01-1.43-0.64-2.4-1.9-2.95c-1.99-0.88-3.9-0.67-5.66,0.63
		c-0.77,0.57-1.19,1.35-1.18,2.32c0.02,4.13,0.03,8.26,0.11,12.38c0.03,1.52-0.5,2.64-1.73,3.2c-1.31,0.59-2.89,0.29-3.88-0.74
		c-0.64-0.67-0.92-1.45-0.92-2.38c0.02-3.8,0.01-7.61,0.01-11.41C4.95,23.87,4.99,23.87,5.03,23.87z"/>
	<path d="M100.39,23.8c0-3.43,0.06-6.86-0.02-10.28c-0.07-2.75,1.06-4.89,3.05-6.64c4.2-3.7,11.29-3.54,15.25,0.32
		c1.85,1.8,2.72,3.98,2.66,6.6c-0.07,2.9,0.01,5.81,0.03,8.71c0.01,1.43,0.02,2.85,0.03,4.28c0.02,2.6,0.05,5.2,0.07,7.81
		c0,0.4,0,0.8-0.03,1.2c-0.11,1.36-0.77,2.16-2.07,2.52c-1.29,0.35-2.77-0.1-3.43-1.08c-0.18-0.26-0.3-0.58-0.35-0.89
		c-0.08-0.47-0.11-0.94-0.11-1.42c-0.02-4.08-0.06-8.16-0.04-12.24c0.01-1.47-0.68-2.44-1.96-2.99c-1.97-0.84-3.86-0.63-5.6,0.66
		c-0.77,0.57-1.19,1.35-1.19,2.31c0.02,4.13,0.03,8.26,0.11,12.38c0.03,1.54-0.53,2.7-1.8,3.23c-1.36,0.57-2.96,0.22-3.91-0.87
		c-0.57-0.65-0.82-1.4-0.82-2.27c0.01-3.78,0.01-7.56,0.01-11.33C100.31,23.8,100.35,23.8,100.39,23.8z"/>
	<path d="M97.31,19.08c0,0.9,0.01,1.8,0,2.7c-0.03,1.32-0.73,2.26-1.94,2.63c-1.35,0.42-2.76,0.08-3.44-0.95
		c-0.28-0.43-0.45-1.02-0.47-1.54c-0.06-1.85-0.06-3.7-0.03-5.55c0.03-1.53,1.52-2.74,3.16-2.62c1.99,0.15,2.84,1.54,2.74,2.92
		c-0.06,0.8-0.01,1.6-0.01,2.4C97.32,19.08,97.31,19.08,97.31,19.08z"/>
</g>
</svg>
