<?xml version="1.0" encoding="utf-8"?>
<!-- Generator: Adobe Illustrator 25.4.1, SVG Export Plug-In . SVG Version: 6.00 Build 0)  -->
<svg version="1.1" id="Layer_1" xmlns="http://www.w3.org/2000/svg" xmlns:xlink="http://www.w3.org/1999/xlink" x="0px" y="0px"
	 viewBox="0 0 108.18 98.35" style="enable-background:new 0 0 108.18 98.35;" xml:space="preserve">
<path d="M80.99,42.67c2.2,0.47,4.23,1.12,5.28,3.35c0.71,0.05,1.46,0.04,2.19,0.16c2.54,0.41,4.57,1.7,5.88,3.89
	c0.62,1.04,1.17,2.1,1.92,3.07c1.23,1.6,1.49,3.53,1.4,5.52c-0.13,2.66-0.49,5.27-1.27,7.82c-1.18,3.84-3.04,7.33-5.51,10.49
	c-4.33,5.55-9.85,9.58-16.17,12.55c-5.6,2.64-11.5,4.23-17.65,4.92c-10.4,1.16-20.49-0.1-30.14-4.23
	c-6.42-2.75-12.06-6.62-16.58-12.01c-3.58-4.27-6.04-9.1-7.06-14.62c-0.18-1-0.25-2.01-0.38-3.02c-0.02-0.17-0.02-0.36-0.09-0.52
	c-0.34-0.84-0.13-1.61,0.26-2.35c0.8-1.5,1.95-2.65,3.41-3.52c0.29-0.17,0.55-0.43,0.73-0.71c1.41-2.08,2.71-4.25,4.23-6.25
	c2.02-2.63,4.63-4.57,7.67-5.94c2.31-1.04,4.71-1.81,7.23-2.04c1.57-0.14,3.17-0.05,4.75,0.07c1.99,0.14,3.95,0.5,5.77,1.34
	c0.95,0.44,1.85,1.02,2.74,1.57c0.46,0.29,1.05,0.19,1.34-0.27c0.66-1.04,1.3-2.1,2.01-3.11c0.32-0.46,0.77-0.84,1.17-1.26
	c-0.19-0.64-0.43-1.28-0.57-1.95c-0.27-1.36-0.51-2.73-0.72-4.1c-0.12-0.76-0.15-1.53-0.23-2.3c-0.09-0.84,0.09-1.11,0.9-1.34
	c1.79-0.51,3.54-0.27,5.29,0.2c1.68,0.45,3.36,0.91,4.88,2c0.08-0.62,0.16-1.13,0.22-1.65c0.3-2.63,1.23-5.05,2.57-7.31
	c0.19-0.32,0.36-0.66,0.55-0.98c0.57-0.99,1.62-1.13,2.51-0.38c1.9,1.6,3.31,3.58,4.57,5.7c0.89,1.48,1.47,3.06,1.77,4.74
	c0.07,0.4,0.09,0.82,0.13,1.22c0.05,0.03,0.11,0.07,0.16,0.1c0.13-0.18,0.23-0.37,0.38-0.53c1.61-1.67,3.5-2.96,5.62-3.9
	c1.23-0.55,1.66-0.32,1.98,0.98c0.4,1.61,0.46,3.23,0.2,4.86c-0.03,0.19-0.04,0.38,0.03,0.6c0.52-0.99,1.05-1.98,1.57-2.97
	c3.73-7.14,7.46-14.28,11.19-21.42c0.69-1.33,1.38-2.66,2.08-3.99c0.32-0.6,0.5-0.65,1.1-0.33c1.31,0.69,2.61,1.38,3.92,2.08
	c0.71,0.38,0.86,0.92,0.43,1.64c-0.81,1.37-1.63,2.73-2.44,4.09c-2.57,4.3-5.15,8.59-7.73,12.89c-2.32,3.88-4.65,7.77-6.97,11.65
	c-0.16,0.26-0.31,0.53-0.47,0.82c0.5,0.09,0.97,0.14,1.43,0.25c0.32,0.08,0.43-0.14,0.57-0.33c1.55-2.04,3.1-4.08,4.65-6.11
	C88.91,25,94.1,18.18,99.28,11.37c0.4-0.52,0.58-0.55,1.09-0.2c1.18,0.81,2.37,1.62,3.55,2.43c0.82,0.56,0.88,0.94,0.24,1.71
	c-1.05,1.25-2.11,2.49-3.17,3.74c-6.58,7.76-13.17,15.53-19.75,23.29C81.17,42.44,81.09,42.54,80.99,42.67z M3.94,61.27
	c0,0.17-0.01,0.26,0,0.35c0.53,4.27,1.95,8.23,4.2,11.89c3.15,5.12,7.41,9.13,12.48,12.3c8.24,5.16,17.32,7.59,26.96,8.04
	c3.42,0.16,6.84-0.01,10.24-0.46c6.29-0.85,12.3-2.59,17.95-5.47c6.46-3.3,11.96-7.73,15.98-13.85c2.74-4.17,4.37-8.74,4.84-13.72
	c0.01-0.15-0.03-0.31-0.05-0.57c-1.04,1.58-2.36,2.66-3.83,3.59c-2.53,1.61-5.3,2.71-8.14,3.63c-5.14,1.67-10.42,2.66-15.76,3.38
	c-4.66,0.63-9.35,0.98-14.05,1.13c-4.99,0.16-9.98,0.1-14.96-0.23c-4.14-0.27-8.27-0.69-12.37-1.34c-4.56-0.73-9.07-1.69-13.44-3.19
	C10.37,65.52,6.87,64.01,3.94,61.27z M72.38,39.53c0.04,0.06,0.07,0.13,0.11,0.19c0.56-0.22,1.12-0.43,1.67-0.66
	c0.38-0.16,0.74-0.39,1.13-0.54c0.33-0.13,0.53-0.33,0.71-0.63c2.09-3.51,4.18-7.01,6.28-10.51c3.8-6.34,7.59-12.68,11.39-19.03
	c0.09-0.14,0.14-0.3,0.24-0.5C92.59,7.15,91.32,6.48,90,5.79C84.1,17.09,78.24,28.31,72.38,39.53z M81.18,40.91
	c7.43-8.76,14.89-17.56,22.38-26.39c-1.22-0.83-2.38-1.62-3.6-2.44c-6.79,8.93-13.54,17.81-20.22,26.6
	C80.25,39.47,80.7,40.17,81.18,40.91z M60.09,42.07c1.15-0.52,2.18-1.07,2.9-2.09c0.71-0.99,0.96-2.17,1.4-3.27
	c0.89-2.21,0.83-4.49,0.45-6.77c-0.26-1.58-0.95-3.02-1.79-4.38c-1.16-1.86-2.43-3.62-4.13-5.04c-0.4-0.34-0.77-0.34-1,0.08
	c-1.09,1.96-2.31,3.88-2.7,6.14c-0.2,1.15-0.38,2.3-0.5,3.46c-0.03,0.28,0.11,0.7,0.32,0.88c1.62,1.38,2.72,3.11,3.57,5.02
	c0.03,0.06,0.09,0.11,0.13,0.17c0.11-0.52,0.06-1,0.13-1.48c0.07-0.51-0.18-0.83-0.49-1.16c-0.54-0.58-1.15-1.11-1.6-1.75
	c-0.44-0.64-0.74-1.39-1.05-2.11c-0.09-0.21-0.08-0.49-0.03-0.71c0.03-0.14,0.21-0.31,0.34-0.33c0.14-0.02,0.35,0.09,0.43,0.21
	c0.12,0.18,0.15,0.41,0.2,0.62c0.31,1.28,1.18,2.17,2.14,3.22c0.03-0.43,0.06-0.71,0.06-0.99c0-1.46-0.02-2.91-0.03-4.37
	c0-0.35,0.02-0.72,0.49-0.71c0.45,0.01,0.48,0.38,0.49,0.72c0.01,0.13,0.01,0.26,0.01,0.4c0,0.81,0,1.61,0,2.42
	c0.05,0.01,0.1,0.02,0.15,0.02c0.06-0.11,0.13-0.21,0.16-0.32c0.25-0.75,0.49-1.51,0.74-2.26c0.1-0.29,0.14-0.62,0.31-0.86
	c0.1-0.15,0.42-0.24,0.61-0.21c0.11,0.02,0.25,0.34,0.24,0.52c-0.02,0.3-0.14,0.6-0.22,0.89c-0.43,1.41-0.84,2.83-1.69,4.07
	c-0.15,0.22-0.26,0.5-0.27,0.77c-0.06,1.15-0.07,2.29-0.1,3.44c-0.01,0.37,0,0.73,0,1.25c0.19-0.25,0.29-0.35,0.36-0.48
	c0.66-1.2,1.32-2.39,1.96-3.59c0.27-0.51,0.49-0.73,0.8-0.62c0.33,0.12,0.36,0.39,0.12,0.96c-0.81,1.92-1.89,3.68-3.16,5.33
	c-0.06,0.08-0.12,0.2-0.11,0.29C59.82,40.3,59.95,41.15,60.09,42.07z M42.84,40.72c-1.02,1.37-1.59,2.92-2.04,4.51
	c-0.16,0.57-0.19,1.13-0.01,1.69c0.46,1.47,1.35,2.56,2.71,3.34c1.56,0.89,3.2,1.05,4.92,0.85c0.32-0.04,0.64-0.15,0.95-0.27
	c1.56-0.61,2.94-1.51,4.14-2.68c1.48-1.45,2.26-3.2,2.46-5.27c0.2-2.01-1.35-3.67-3.05-3.84C52.25,38.98,51.56,39,50.88,39
	c-0.11,0-0.27,0.08-0.32,0.17c-0.41,0.74-0.8,1.48-1.2,2.24c1.55,0.19,2.57,1.23,2.51,2.51c-0.06,1.18-1.52,2.6-2.71,2.59
	c-0.61,0-1.19-0.12-1.65-0.56c-0.87-0.83-1.14-1.85-0.86-2.93C45.34,42.22,44.12,41.48,42.84,40.72z M18.76,59.83
	c0.04,0.12,0.07,0.26,0.13,0.39c0.72,1.35,1.74,2.45,2.99,3.31c1.11,0.77,2.37,1.27,3.73,1.16c2.29-0.19,4.39-0.94,6.11-2.56
	c0.71-0.66,1.25-1.43,1.44-2.4c0.17-0.84,0.21-1.68,0.15-2.55c-0.17-2.71-2.63-3.94-4.62-3.92c-1.43,0.01-2.86,0.46-4.29,0.77
	c-0.4,0.09-0.77,0.35-1.11,0.51c0.46,0.74,0.86,1.38,1.31,2.1c1-0.52,2.18-0.45,3.34-0.35c0.61,0.05,1.24,0.15,1.79,0.39
	c0.97,0.41,1.11,1.3,0.42,2.09c-0.51,0.58-1.14,0.91-1.92,0.87c-0.96-0.04-1.88-0.23-2.72-0.74c-0.5-0.31-0.99-0.63-1.49-0.95
	C22.73,59.83,20.81,59.95,18.76,59.83z M38.45,42.57c-0.17-0.11-0.3-0.2-0.43-0.27c-1.65-0.94-3.42-1.51-5.29-1.81
	c-2.57-0.41-5.13-0.59-7.71-0.09c-2.01,0.39-3.92,1.04-5.77,1.89c-2.78,1.28-5.15,3.11-7.02,5.51c-1.22,1.56-2.32,3.23-3.35,4.92
	c-0.87,1.42-1.64,2.92-2.35,4.44c-0.56,1.2-0.83,2.51-0.91,3.84c-0.01,0.18,0.01,0.45,0.13,0.55c0.48,0.4,1,0.75,1.57,1.17
	c0.05-0.29,0.09-0.43,0.11-0.58c0.45-3.41,1.54-6.59,3.3-9.56c1.4-2.35,3.15-4.4,5.2-6.14c2.43-2.06,5.25-3.49,8.39-4.19
	c0.99-0.22,2-0.38,3.01-0.42c2.83-0.14,5.5,0.61,8.11,1.63c0.13,0.05,0.3,0.07,0.43,0.03C36.71,43.18,37.53,42.89,38.45,42.57z
	 M39.69,45.56c-1.92,1.42-2.59,3.34-2.29,5.5c0.31,2.27,1.94,3.66,3.86,4.66c2.11,1.1,4.44,1.26,6.77,1.23
	c2.46-0.03,4.77-0.8,7.06-1.63c2.6-0.94,4.73-2.54,6.54-4.59c0.52-0.59,1.04-1.22,0.7-2.19c-0.47,0.38-0.92,0.72-1.34,1.1
	c-1.49,1.34-3.19,2.38-5.01,3.18c-3.05,1.34-6.27,1.93-9.61,1.87c-1.37-0.03-2.74-0.14-3.95-0.91c-0.93-0.6-1.75-1.29-1.95-2.46
	c-0.13-0.72-0.17-1.44,0.02-2.17c0.04-0.14,0.07-0.33,0-0.43C39.9,47.77,39.68,46.73,39.69,45.56z M93.37,61.77
	c-2.83-2.39-10-4.89-15.98-4.11c-4.79,0.62-8.92,2.7-12.9,5.43c0.51,0.52,0.93,0.93,1.33,1.37c0.31,0.33,0.6,0.35,0.98,0.11
	c1.08-0.68,2.18-1.34,3.27-2.01c1.36-0.82,2.73-1.65,4.29-2.03c1.8-0.44,3.63-0.75,5.49-0.81c1.23-0.04,2.46-0.11,3.69,0.2
	c2.54,0.64,4.94,1.61,7.17,3c0.2,0.12,0.37,0.31,0.65,0.13C92.01,62.63,92.66,62.22,93.37,61.77z M43.19,63.34
	c0.6,0.38,1.03,0.68,1.49,0.93c0.15,0.08,0.38,0.1,0.54,0.04c1.29-0.45,2.57-0.93,3.85-1.4c2.43-0.9,4.91-1.16,7.48-0.84
	c2.31,0.29,4.09,1.29,5.22,3.36c0.33,0.61,0.88,1.01,1.48,1.28c0.88,0.4,1.79,0.73,2.7,1.06c0.99,0.36,2.03,0.61,2.98,1.05
	c0.7,0.32,1.34,0.44,2.09,0.29c1.06-0.22,2.14-0.37,3.21-0.55c0-0.05,0.01-0.1,0.01-0.16c-0.3-0.11-0.6-0.25-0.91-0.31
	c-1.08-0.23-2.17-0.42-3.24-0.66c-2.31-0.51-4.37-1.47-5.97-3.31c-0.72-0.83-1.52-1.6-2.33-2.35c-0.94-0.87-2.02-1.53-3.3-1.73
	c-2.04-0.33-4.1-0.32-6.11,0.19c-1.37,0.34-2.73,0.71-4.07,1.17C46.64,61.98,44.99,62.65,43.19,63.34z M13.71,65.64
	c0.91,0.3,1.68,0.57,2.46,0.8c0.19,0.06,0.44,0.02,0.64-0.05c1.43-0.54,2.91-0.72,4.42-0.7c1.34,0.02,2.68,0.14,4.03,0.22
	c2.86,0.17,5.64,0.77,8.35,1.65c1.83,0.6,3.56,1.51,5.35,2.26c0.54,0.23,1.09,0.49,1.66,0.56c1.05,0.13,2.11,0.12,3.17,0.17
	c0.16,0.01,0.32-0.02,0.63-0.04c-1.77-1.71-3.47-3.28-5.52-4.4c-2.26-1.25-4.7-2.01-7.27-2.3c-0.22-0.03-0.52,0.01-0.68,0.13
	c-1.01,0.78-2.2,1.08-3.4,1.4c-2.4,0.64-4.58,0.23-6.58-1.24c-0.2-0.15-0.53-0.22-0.78-0.19C18,64.13,15.94,64.85,13.71,65.64z
	 M67.84,37.05c0.09,0.03,0.18,0.06,0.27,0.09c0.82-1.43,1.63-2.86,2.45-4.3c0.15-0.26,0.32-0.53,0.66-0.39
	c0.38,0.15,0.36,0.48,0.22,0.78c-0.22,0.48-0.43,0.97-0.71,1.42c-0.94,1.49-1.91,2.97-2.87,4.45c-0.09,0.13-0.16,0.27-0.25,0.41
	c1.06-0.26,1.97-0.71,2.67-1.52c0.22-0.26,0.47-0.43,0.8-0.22c0.25,0.15,0.2,0.51-0.08,0.87c-0.08,0.1-0.17,0.21-0.27,0.29
	c-1.01,0.9-2.14,1.57-3.51,1.7c-0.49,0.04-0.82,0.24-1.11,0.6c-0.68,0.85-1.48,1.58-2.4,2.16c-0.23,0.15-0.43,0.33-0.67,0.53
	c0.68,0.3,1.22,0.18,1.69-0.28c0.42-0.42,0.85-0.84,1.32-1.2c1.21-0.94,2.58-1.61,4.03-2.1c0.49-0.17,0.89-0.44,1.12-0.87
	c0.44-0.81,0.91-1.62,1.21-2.49c0.59-1.67,1-3.38,1.13-5.16c0.1-1.36-0.06-2.67-0.47-4.01c-0.26,0.1-0.48,0.15-0.66,0.25
	c-1.19,0.71-2.4,1.39-3.54,2.18c-0.7,0.49-1.29,1.14-1.89,1.75c-0.65,0.67-1.03,1.47-1.02,2.43c0,0.22-0.04,0.44-0.09,0.65
	c-0.22,0.81-0.45,1.61-0.68,2.42c0.58,0.38,0.56,0.37,0.41,1.11c-0.11,0.54-0.3,1.09,0,1.7c0.69-0.73,1.42-1.35,1.25-2.46
	c-0.04-0.25,0.02-0.53,0.08-0.79c0.32-1.21,0.64-2.43,1-3.63c0.1-0.32,0.33-0.63,0.74-0.47c0.39,0.15,0.31,0.48,0.17,0.78
	c-0.05,0.12-0.09,0.25-0.13,0.38C68.42,35.11,68.13,36.08,67.84,37.05z M56.22,38.48c0.06-0.04,0.12-0.08,0.17-0.12
	c-0.28-0.79-0.55-1.57-0.83-2.36c-0.07-0.19-0.21-0.37-0.2-0.55c0.01-0.19,0.11-0.47,0.25-0.53c0.14-0.06,0.4,0.05,0.57,0.16
	c0.11,0.07,0.17,0.26,0.22,0.4c0.32,0.96,0.67,1.91,0.94,2.89c0.15,0.55,0.07,1.18,0.26,1.71c0.21,0.57,0.62,1.06,0.94,1.59
	c0.14,0.23,0.26,0.46,0.39,0.69c0.1-0.31,0.12-0.58,0.1-0.84c-0.25-2.45-0.98-4.72-2.25-6.85c-0.81-1.36-1.84-2.46-3.08-3.42
	c-1.93-1.49-4.21-2.07-6.54-2.54c-1.05-0.21-2.11-0.19-3.15,0.04c-0.34,0.07-0.46,0.24-0.4,0.61c0.11,0.61,0.19,1.22,0.2,1.84
	c0.03,1.76,0.48,3.45,0.96,5.12c0.06,0.22,0.17,0.43,0.3,0.74c0.54-0.57,1.54-0.59,1.39-1.63c-0.32-0.14-0.66-0.22-0.9-0.42
	c-0.14-0.11-0.19-0.44-0.13-0.63c0.03-0.11,0.36-0.18,0.55-0.17c0.25,0.01,0.49,0.13,0.68,0.18c0.38-0.59,0.7-1.1,1.04-1.63
	c-0.44-0.42-0.9-0.84-1.34-1.26c-0.14-0.14-0.31-0.28-0.37-0.46c-0.06-0.16-0.07-0.45,0.03-0.53c0.14-0.11,0.4-0.12,0.59-0.09
	c0.13,0.02,0.23,0.19,0.35,0.29c0.43,0.38,0.84,0.78,1.29,1.14c0.16,0.13,0.38,0.24,0.58,0.25c1.1,0.06,1.38,0.27,1.71,1.36
	c0.19,0.62,0.63,0.81,1.27,0.51c-0.04-0.12-0.07-0.25-0.13-0.36c-0.28-0.47-0.56-0.95-0.86-1.41c-0.18-0.29-0.3-0.58,0.03-0.81
	c0.31-0.22,0.57-0.02,0.73,0.22c0.34,0.51,0.67,1.03,0.96,1.58c0.19,0.36,0.37,0.65,0.79,0.82c0.84,0.34,1.03,0.93,0.67,1.78
	c-0.04,0.1-0.07,0.2-0.11,0.3c0.06-0.04,0.12-0.09,0.17-0.13C54.77,36.83,55.5,37.66,56.22,38.48z M67.9,69.54c0-0.07,0-0.14,0-0.2
	c-0.82-0.23-1.65-0.45-2.47-0.7c-1.99-0.6-3.85-1.38-4.94-3.37c-0.47-0.86-1.24-1.51-2.21-1.81c-1.51-0.46-3.07-0.7-4.64-0.6
	c-2.7,0.17-5.13,1.33-7.69,2.23c0.72,0.61,1.39,1.17,2.02,1.71c0.61-0.17,1.17-0.36,1.75-0.49c1.61-0.36,3.24-0.3,4.88-0.27
	c1.11,0.02,2.16,0.28,3.07,0.89c0.82,0.55,1.61,1.16,2.34,1.84c1.1,1.03,2.35,1.42,3.82,1.23c0.35-0.05,0.7-0.07,1.05-0.11
	C65.88,69.77,66.89,69.65,67.9,69.54z M10.06,62.96c0.05-0.61,0.08-1.15,0.15-1.69c0.5-3.85,1.95-7.31,4.4-10.33
	c1.59-1.96,3.45-3.6,5.79-4.62c2.51-1.09,5.14-1.74,7.87-1.85c1.53-0.07,3.08-0.16,4.6,0.29c0.65,0.19,1.01-0.41,1.5-0.67
	c-1.14-0.39-2.25-0.76-3.39-0.99c-1.29-0.27-2.59-0.46-3.94-0.34c-1.53,0.14-3,0.49-4.44,0.99c-2.29,0.79-4.42,1.95-6.22,3.56
	c-2.73,2.43-4.92,5.3-6.32,8.71c-0.95,2.32-1.61,4.7-1.76,7.2C9.09,63.95,9.54,63.05,10.06,62.96z M90.02,63.8
	c0-0.08,0.01-0.17,0.01-0.25c-1.05-0.5-2.08-1.04-3.15-1.49c-2.08-0.88-4.21-1.6-6.53-1.39c-0.72,0.07-1.46,0.05-2.18,0.15
	c-2.1,0.29-4.21,0.57-6.08,1.69c-1.44,0.86-2.87,1.73-4.3,2.6c-0.14,0.08-0.26,0.2-0.46,0.36c0.69,0.27,1.28,0.5,1.87,0.74
	c0.42,0.18,0.79,0.12,1.18-0.13c0.63-0.4,1.29-0.76,1.96-1.11c2.07-1.09,4.27-1.84,6.6-1.97c1.24-0.07,2.5,0.1,3.74,0.29
	c1.66,0.25,3.31,0.57,4.76,1.48c0.08,0.05,0.22,0.07,0.3,0.04C88.51,64.48,89.26,64.14,90.02,63.8z M31.89,45.52
	c-0.37-0.05-0.86-0.15-1.35-0.17c-2.06-0.07-4.1,0.17-6.1,0.65c-2.71,0.65-5.24,1.7-7.31,3.66c-3.49,3.31-5.41,7.39-6.02,12.13
	c-0.02,0.18,0.02,0.37,0.03,0.66c0.61-0.25,1.22-0.37,1.62-0.72c0.25-0.21,0.19-0.78,0.28-1.19c0.01-0.06,0.03-0.13,0.05-0.19
	c0.57-2.37,1.67-4.5,3.03-6.5c0.38-0.56,0.86-1.06,0.76-1.82c-0.02-0.16,0.07-0.34,0.13-0.51c0.33-1.06,0.75-1.29,1.83-0.97
	c0.04,0.01,0.09-0.01,0.13-0.01c-0.02-0.04-0.05-0.07-0.07-0.11c0.76-0.51,1.5-1.07,2.29-1.53c1.29-0.75,2.75-1.04,4.2-1.37
	c1.52-0.35,3.03-0.59,4.57-0.16c0.12,0.03,0.32-0.03,0.41-0.12C30.88,46.67,31.38,46.09,31.89,45.52z M49.99,70.61
	c-0.11-0.18-0.19-0.31-0.27-0.44c-1.12-1.71-2.7-2.96-4.28-4.19c-1.93-1.51-4.11-2.56-6.4-3.38c-1.63-0.58-3.32-0.88-5.03-1.12
	c-0.2-0.03-0.5,0.05-0.63,0.19c-0.34,0.36-0.62,0.79-0.98,1.26c5.46,0.76,9.71,3.54,13.36,7.67C47.02,70.61,48.45,70.61,49.99,70.61
	z M40.4,43.47c-3.62-0.72-11.73,5.19-12.17,8.67c0.93,0.17,1.85,0.35,2.81,0.53c0.2-0.37,0.37-0.84,0.68-1.2
	c0.97-1.14,1.93-2.3,3.02-3.32c0.73-0.68,1.66-1.13,2.51-1.69c0.11-0.07,0.24-0.12,0.33-0.2c0.81-0.71,1.61-1.43,2.4-2.16
	C40.14,43.95,40.24,43.71,40.4,43.47z M89.88,58.58c0.15,0.08,0.24,0.14,0.34,0.18c0.76,0.34,0.79,0.37,1.35-0.23
	c0.61-0.66,1.27-1.32,1.71-2.1c1.03-1.77,1.37-3.74,0.37-5.57c-1.4-2.56-3.74-3.79-6.66-3.82c-0.81-0.01-0.82,0.04-0.93,0.92
	c2.53,0.33,4.15,1.84,5.12,4.08C92.22,54.46,91.36,56.56,89.88,58.58z M84.53,50.3c1.34,0.67,2.34,1.57,2.64,3.06
	c0.29,1.42,0.11,2.78-0.57,4.12c0.78,0.27,1.5,0.52,2.19,0.76c0.12-0.14,0.19-0.22,0.26-0.3c2.03-2.3,2.12-4.82,0.36-7.01
	c-0.81-1.01-1.81-1.8-3.19-1.93c-0.56-0.05-0.99,0.05-1.23,0.62C84.9,49.83,84.72,50.01,84.53,50.3z M86.33,65.42
	c-0.01-0.06-0.01-0.11-0.02-0.17c-0.31-0.11-0.6-0.27-0.92-0.33c-1.48-0.32-2.97-0.64-4.46-0.89c-0.71-0.12-1.46-0.17-2.17-0.07
	c-1.79,0.25-3.54,0.71-5.18,1.5c-0.76,0.36-1.5,0.78-2.35,1.22c1.52,0.4,2.88,0.81,4.21-0.09c0.09-0.06,0.21-0.07,0.31-0.11
	c1.27-0.48,2.59-0.44,3.92-0.42c0.85,0.01,1.66,0.12,2.41,0.56c0.11,0.07,0.29,0.07,0.42,0.03C83.78,66.24,85.05,65.83,86.33,65.42z
	 M37.1,70.1c-4.4-2.67-15.28-4.22-18.84-3.05C24.51,68.7,30.78,69.58,37.1,70.1z M60.03,70.28c0.03-0.06,0.06-0.12,0.1-0.18
	c-0.94-0.75-1.84-1.58-2.84-2.24c-0.61-0.4-1.36-0.66-2.08-0.78c-1.51-0.24-3.03-0.22-4.54,0.05c-0.59,0.11-1.18,0.24-1.85,0.38
	c0.5,0.58,0.9,1.04,1.22,1.41c0.61,0,1.13-0.02,1.65,0c1.38,0.06,2.63,0.49,3.74,1.34c0.18,0.14,0.44,0.27,0.65,0.26
	C57.4,70.47,58.72,70.37,60.03,70.28z M69.88,55.05c-0.21-1.86,0.63-3.38,1.36-4.92c-0.56-0.26-1.11-0.53-1.68-0.76
	c-0.19-0.08-0.44-0.09-0.64-0.04c-1.66,0.47-2.74,1.62-3.45,3.13c-0.22,0.47-0.01,1.22,0.37,1.42
	C67.08,54.55,68.35,55.08,69.88,55.05z M83.32,50.15c-0.02-0.05-0.05-0.1-0.07-0.14c-0.17-0.01-0.34,0-0.51-0.03
	c-0.93-0.16-1.93-0.17-2.76-0.54c-1.16-0.53-2.17-0.56-3.21,0.15c-0.05,0.04-0.14,0.04-0.18,0.09c-0.1,0.12-0.26,0.25-0.28,0.39
	c-0.16,1.14,0.03,2.24,0.58,3.26c0.41,0.76,0.61,0.85,1.34,0.42c1.25-0.74,2.48-1.5,3.69-2.32C82.43,51.07,82.85,50.58,83.32,50.15z
	 M75.3,50.19c-0.73,0.05-1.4,0.19-2.04,0.12c-0.82-0.08-1.23,0.34-1.52,0.98c-0.28,0.62-0.54,1.26-0.74,1.9
	c-0.2,0.63-0.29,1.29,0,1.92c1.43,0.21,4.3-0.14,5.33-0.81C75.54,53.06,75.18,51.7,75.3,50.19z M43.34,39.88
	c1.19,0.71,2.27,1.36,3.37,2c0.28,0.17,0.53,0.07,0.79-0.12c1.01-0.75,1.62-1.78,2.12-2.9c0.15-0.34,0.1-0.64-0.07-0.94
	c-0.33-0.61-0.8-0.96-1.52-0.98c-0.59-0.02-1.15,0.08-1.64,0.4c-0.66,0.44-1.33,0.87-1.94,1.36C44.06,39.01,43.76,39.42,43.34,39.88
	z M68.72,48.37c0.04-0.75,0.02-1.38-0.73-1.69c-0.87-0.35-1.79-0.61-2.71-0.4c-1.14,0.27-1.96,0.81-1.91,2
	c0.04,0.92,0.14,1.84,0.32,2.74c0.1,0.53,0.41,1.02,0.64,1.57C65.24,50.5,66.56,48.99,68.72,48.37z M37.14,53.4
	c-1.16,1.01-2.01,2.21-2.73,3.5c-0.09,0.16-0.11,0.38-0.12,0.57c-0.07,0.98-0.12,1.97-0.18,3.02c0.56,0.09,1.2,0.19,1.86,0.29
	c0.47-2.13,1.55-3.86,3.03-5.31C38.36,54.77,37.78,54.12,37.14,53.4z M64.5,54.35c-0.95,1.13-1.65,2.37-2.13,3.73
	c-0.57,1.58-0.1,3.24,1.55,4.24c0.56-0.4,1.13-0.81,1.66-1.2c-0.98-2.1-0.65-4.09,0.39-6.07C65.47,54.82,65.02,54.6,64.5,54.35z
	 M36.69,52.34c-0.6-1.4-0.33-2.92,0-4.46c-1.96,1.44-3.7,3.05-4.82,5.31c0.98,0.59,1.68,1.38,2.06,2.41
	C34.86,54.49,35.73,53.47,36.69,52.34z M46.64,57.95c-1.02-0.13-1.9-0.25-2.77-0.34c-0.16-0.02-0.39,0.1-0.5,0.23
	c-0.86,1.01-1.68,2.06-2.21,3.28c-0.15,0.35-0.22,0.74-0.34,1.14c0.34,0.14,0.6,0.27,0.87,0.36c0.2,0.07,0.46,0.18,0.62,0.11
	c1.1-0.45,2.18-0.94,3.28-1.42C45.54,60.1,46.14,59.1,46.64,57.95z M62.6,51.07c-0.46,0.55-0.97,1.05-1.33,1.64
	c-0.76,1.27-1.23,2.67-1.65,4.09c-0.21,0.73-0.3,1.47-0.06,2.21c0.05,0.15,0.15,0.32,0.28,0.39c0.42,0.23,0.87,0.42,1.35,0.65
	c-0.14-1.12,0.08-2.15,0.57-3.1c0.52-0.99,1.12-1.94,1.72-2.89c0.2-0.31,0.29-0.52,0.09-0.88C63.23,52.53,62.95,51.83,62.6,51.07z
	 M39.79,56.12c-1.44,1.32-2.44,2.87-2.81,4.84c1.03,0.31,1.95,0.58,2.91,0.87c0.44-1.75,1.55-3.09,2.58-4.49
	C41.55,56.93,40.71,56.55,39.79,56.12z M75.38,43.37c1.19-0.53,2.44-0.74,3.72-0.78c0.75-0.02,1.04-0.33,1-1.1
	c-0.05-1-0.78-1.96-1.76-2.26c-1.43-0.43-2.67,0.09-3.88,0.8C75.44,41.94,75.44,41.94,75.38,43.37z M64.67,45.36
	c1.7-0.26,3.22-0.02,4.49,0.9c0.88-0.56,1.69-1.07,2.56-1.62c-0.09-0.21-0.15-0.48-0.29-0.68c-0.53-0.73-1.23-1.3-2.06-1.59
	c-0.42-0.15-1-0.16-1.39,0.03C66.62,43.02,65.51,43.98,64.67,45.36z M82.61,56.69c0.82,0.15,1.58,0.28,2.33,0.41
	c0.6,0.11,0.7,0.06,0.97-0.49c0.34-0.69,0.41-1.43,0.41-2.19c-0.01-1.55-0.8-2.57-2.14-3.2c-0.15-0.07-0.42-0.09-0.54,0
	c-0.39,0.3-0.73,0.67-1.1,1.01C83.84,53.45,83.65,55.07,82.61,56.69z M71.22,58.16c-0.3-0.27-0.66-0.54-0.93-0.87
	c-0.28-0.35-0.47-0.78-0.71-1.19c-0.86-0.17-1.76-0.35-2.72-0.54c-0.47,0.78-0.85,1.65-0.88,2.6c-0.02,0.61,0.06,1.23,0.18,1.83
	c0.1,0.51,0.36,0.61,0.75,0.41C68.33,59.66,69.75,58.92,71.22,58.16z M18.49,61.49c-2.95,0.39-5.76,1.11-8.51,2.64
	c0.86,0.36,1.58,0.67,2.31,0.95c0.13,0.05,0.33-0.05,0.5-0.1c1.65-0.54,3.3-1.11,4.95-1.62c0.6-0.19,1.23-0.26,1.89-0.39
	C19.23,62.45,18.88,61.99,18.49,61.49z M94.14,61.03c3.09-2.44,2.6-6.2,0.94-7.66c0.1,2.67-1.45,4.46-3.17,6.21
	C92.68,60.08,93.4,60.54,94.14,61.03z M17.05,54.19c-1.5,2.23-2.75,4.51-3.16,7.24c0.66-0.17,1.21-0.29,1.76-0.46
	c0.14-0.04,0.33-0.18,0.37-0.31c0.25-0.83,0.79-1.47,1.36-2.08c0.62-0.66,0.33-1.58,0.69-2.32c0.01-0.03-0.03-0.08-0.05-0.12
	C17.71,55.52,17.4,54.89,17.05,54.19z M23.33,52.15c1.43-1.21,2.87-2.18,4.74-2.16c0.44-0.59,0.86-1.16,1.35-1.82
	c-2.7-0.25-5.06,0.53-7.57,1.4C23.2,50.19,23.43,50.59,23.33,52.15z M19.96,58.93c0.01,0.02,0.01,0.04,0.02,0.06
	c0.66-0.16,1.34-0.28,1.98-0.5c0.72-0.24,1.12-0.83,1.4-1.5c0.07-0.16,0.08-0.44-0.01-0.56c-0.35-0.47-0.7-0.99-1.17-1.31
	c-0.73-0.5-1.45-0.34-1.94,0.42c-0.5,0.77-0.89,1.61-1.29,2.44c-0.19,0.41,0.04,0.78,0.48,0.9C19.6,58.93,19.78,58.92,19.96,58.93z
	 M80.43,48.49c0,0.06,0,0.11,0,0.17c0.71,0.12,1.42,0.23,2.13,0.34c1.2,0.19,1.9-0.21,2.45-1.26c0.76-1.43-0.14-2.8-1.94-3.32
	C83.17,46.42,82.02,47.6,80.43,48.49z M76.61,55.43c0.28,0.15,0.46,0.28,0.66,0.34c0.8,0.24,1.59,0.51,2.41,0.67
	c0.44,0.09,0.93,0.05,1.37-0.05c1.12-0.24,1.83-1.93,1.26-2.94c-0.34-0.6-0.62-0.68-1.2-0.32c-0.19,0.11-0.37,0.23-0.55,0.36
	c-1.12,0.79-2.31,1.44-3.66,1.77C76.83,55.27,76.78,55.32,76.61,55.43z M77.86,43.66c0.77,0.79,1.01,1.64,1.09,2.56
	c0.05,0.54,0.14,1.08,0.21,1.67c1.15-0.32,1.97-0.89,2.55-1.76c0.34-0.5,0.45-1.09,0.37-1.7c-0.04-0.37-0.23-0.56-0.57-0.63
	C80.37,43.55,79.21,43.51,77.86,43.66z M55.79,46.88c-0.35,0.49-0.69,0.93-0.99,1.38c-0.07,0.11-0.11,0.3-0.07,0.42
	c0.36,1.06,0.97,1.92,1.99,2.45c0.1,0.05,0.27,0.06,0.36,0.01c0.7-0.4,1.39-0.82,2.12-1.25C58.22,48.61,57.16,47.59,55.79,46.88z
	 M73.68,45.56c0.65,0.45,1.23,0.81,1.76,1.24c0.59,0.48,0.65,1.21,0.75,1.92c0.95-0.2,1.54-0.72,1.7-1.65
	c0.17-1,0.09-1.96-0.73-2.67c-0.26-0.23-0.59-0.51-1-0.27C75.31,44.59,74.49,45.09,73.68,45.56z M51.89,57.41
	c-0.94,0.16-1.87,0.47-2.79,0.43c-1.16-0.04-1.71,0.44-2.01,1.46c-0.15,0.51-0.37,1-0.61,1.64c1.82-0.55,3.47-1.05,5.05-1.52
	C51.67,58.71,51.78,58.09,51.89,57.41z M58.54,59.03c-0.35-1.75,0.48-3.23,0.89-4.86c-0.85,0.5-1.56,1-2.34,1.34
	c-0.59,0.26-0.9,0.68-1.07,1.23c-0.16,0.52-0.27,1.07-0.38,1.61c-0.03,0.16,0.02,0.33,0.04,0.49
	C56.65,58.91,57.54,58.97,58.54,59.03z M72.71,44.44c1.04-0.01,1.29-0.23,1.61-1.11c0.37-1.01-0.09-1.8-0.62-2.57
	c-0.22-0.31-0.57-0.29-0.91-0.2c-0.72,0.2-1.44,0.41-2.16,0.62c-0.22,0.06-0.44,0.15-0.74,0.26C71.14,42.25,72.33,42.97,72.71,44.44
	z M58.51,45.3c-0.66,0.07-1.16,0.18-1.65,0.15c-0.47-0.03-0.56,0.18-0.6,0.57c1.48,0.79,2.64,1.94,3.7,3.22
	c0.68-0.58,1.29-1.08,1.97-1.66C60.48,47.05,59.38,46.23,58.51,45.3z M53.85,49.21c-0.37,0.28-0.62,0.55-0.93,0.7
	c-0.74,0.39-0.99,0.99-0.94,1.79c0.03,0.45-0.11,0.92,0.2,1.36c1.25-0.33,2.47-0.69,3.76-1.29C54.84,51.16,54.33,50.24,53.85,49.21z
	 M47.51,43.83c0.03,0.64,0.45,1.38,0.94,1.58c0.68,0.28,1.25,0.09,1.74-0.41c0.09-0.09,0.19-0.19,0.27-0.29
	c0.37-0.42,0.6-0.88,0.29-1.44c-0.3-0.54-0.74-0.87-1.39-0.84c-0.39,0.02-0.8,0.01-1.18,0.12c-0.21,0.06-0.42,0.3-0.53,0.51
	C47.55,43.28,47.56,43.57,47.51,43.83z M71.73,49.2c1.15,0.18,2.27,0.31,3.36-0.08c0.27-1.24-0.33-1.9-1.51-2.38
	c-0.41-0.16-0.9-0.18-1.18,0.15C71.88,47.51,71.32,48.19,71.73,49.2z M70.72,56.17c0.37,0.74,0.96,1.15,1.54,1.5
	c0.24,0.14,0.7-0.09,1.05-0.16c0.21-0.04,0.42-0.12,0.64-0.17c0.89-0.2,1.77-0.4,2.69-0.61c-0.32-0.26-0.63-0.47-0.88-0.73
	c-0.22-0.23-0.43-0.23-0.71-0.19c-0.89,0.11-1.79,0.2-2.68,0.28C71.85,56.12,71.33,56.13,70.72,56.17z M59.21,44.53
	c0.66,0.8,1.41,1.4,2.25,1.79c1.2,0.56,1.29,0.53,1.82-0.7c0.01-0.03-0.01-0.08-0.02-0.16c-1.04-0.17-1.66-0.96-2.31-1.8
	C60.47,44.28,59.64,43.89,59.21,44.53z M47.32,53.76c0.14-0.58,0.26-1.08,0.39-1.61c-0.8-0.05-1.54-0.11-2.28-0.15
	c-0.11-0.01-0.28,0.05-0.34,0.14c-0.32,0.41-0.62,0.83-1.04,1.41C45.24,53.63,46.25,53.69,47.32,53.76z M18.71,55.38
	c0.37-0.33,0.65-0.61,0.96-0.86c0.22-0.18,0.28-0.37,0.14-0.63c-0.42-0.74-0.83-1.5-1.27-2.24c-0.07-0.12-0.22-0.18-0.38-0.31
	C17.38,52.85,18.09,54.06,18.71,55.38z M25.24,57.52c0.89,0.77,2.13,1.21,3.2,1.14c0.57-0.04,0.93-0.35,1.1-0.92
	C28.72,57.12,26.29,57,25.24,57.52z M48.35,53.69c1.03-0.13,1.89-0.24,2.7-0.34c0-0.76,0-1.43,0-2.17
	c-0.64,0.27-1.19,0.54-1.77,0.73c-0.33,0.11-0.52,0.31-0.63,0.61C48.55,52.85,48.48,53.2,48.35,53.69z M49.01,36.07
	c0.17-0.53,0.38-1.06,0.51-1.61c0.07-0.29,0.06-0.62,0-0.91c-0.09-0.43-0.39-0.54-0.74-0.29c-0.91,0.65-1.26,1.58-1.32,2.66
	C48.01,35.97,48.48,36.02,49.01,36.07z M52.59,59.18c0.68-0.1,1.33-0.19,1.98-0.29c0.16-0.83,0.3-1.62,0.46-2.42
	C53.12,56.73,52.72,57.71,52.59,59.18z M5.89,55.79c-0.83,0.68-1.5,1.46-1.97,2.4c-0.42,0.83-0.12,1.7,0.66,2.16
	C5.01,58.86,5.43,57.36,5.89,55.79z M49.91,36.68c0.2,0.48,0.47,0.6,0.9,0.36c0.5-0.28,1.02-0.51,1.5-0.81
	c0.27-0.17,0.51-0.42,0.7-0.68c0.27-0.36,0.08-0.69-0.37-0.69c-0.11,0-0.21,0.06-0.32,0.08C51.23,35.11,50.61,35.93,49.91,36.68z
	 M80.45,67.23c-0.01-0.05-0.01-0.11-0.02-0.16c-1.8-0.3-3.52-0.08-5.21,0.74c0.32,0.18,0.68,0.41,0.99,0.35
	C77.64,67.89,79.04,67.55,80.45,67.23z M22.03,53.93c0.12-0.92,0.27-1.76,0.33-2.61c0.01-0.19-0.26-0.4-0.4-0.6
	c-0.18,0.13-0.44,0.22-0.53,0.4c-0.44,0.82-0.54,1.7-0.38,2.66C21.34,53.82,21.62,53.87,22.03,53.93z M23.87,53.06
	c1.04-0.19,1.97-0.35,2.89-0.53c0.11-0.02,0.25-0.12,0.29-0.22c0.16-0.42,0.29-0.84,0.46-1.33C26.03,51.28,24.9,51.99,23.87,53.06z
	 M64.42,39.58c-0.4,0.62-0.73,1.21-1.14,1.75c-0.41,0.53-0.87,1.02-0.95,1.88c0.76-0.57,1.44-1.04,2.06-1.58
	c0.16-0.14,0.23-0.47,0.22-0.7C64.61,40.5,64.5,40.07,64.42,39.58z M55.7,39.26c-0.7-0.69-1.4-1.39-2.12-2.06
	c-0.14-0.13-0.46-0.24-0.61-0.17c-0.63,0.29-1.23,0.66-1.9,1.03C52.8,37.87,54.35,38.08,55.7,39.26z M72.02,45.69
	c-0.3,0.14-0.5,0.22-0.7,0.33c-0.21,0.12-0.44,0.22-0.62,0.38c-0.32,0.29-0.68,0.58-0.89,0.95c-0.34,0.61-0.05,1.1,0.62,1.28
	c0.2-0.49,0.36-1,0.61-1.46C71.3,46.67,71.65,46.24,72.02,45.69z M41.88,52.14c0.41,0.31,0.83,0.63,1.28,0.97
	c0.37-0.52,0.68-0.96,0.99-1.39C42.9,51.01,42.6,51.06,41.88,52.14z M56.66,40.41c0.1,0.86,0.25,1.61,0.27,2.37
	c0.02,0.88,0.01,0.91,0.87,0.78c0.16-0.03,0.32-0.08,0.57-0.14C57.78,42.38,57.23,41.41,56.66,40.41z M50.9,69.88
	c-0.04,0.07-0.07,0.15-0.11,0.22c0.23,0.17,0.44,0.45,0.69,0.5c0.4,0.08,0.83,0,1.25,0c0.39,0,0.79,0,1.18,0
	C52.95,70.01,51.95,69.8,50.9,69.88z M20.03,52.07c0.2-0.6,0.36-1.07,0.52-1.55c-0.04-0.03-0.08-0.05-0.12-0.08
	c-0.28,0.31-0.57,0.62-0.87,0.95C19.7,51.59,19.83,51.79,20.03,52.07z M41.38,51.07c0.27-0.22,0.45-0.36,0.6-0.49
	c-0.22-0.23-0.41-0.43-0.69-0.73C41.32,50.3,41.35,50.63,41.38,51.07z M17.62,59.76c-0.22,0.35-0.39,0.61-0.64,1
	c0.41-0.08,0.66-0.13,0.97-0.19C17.83,60.27,17.74,60.06,17.62,59.76z"/>
</svg>
