<?xml version="1.0" encoding="utf-8"?>
<!-- Generator: Adobe Illustrator 25.4.1, SVG Export Plug-In . SVG Version: 6.00 Build 0)  -->
<svg version="1.1" id="Layer_1" xmlns="http://www.w3.org/2000/svg" xmlns:xlink="http://www.w3.org/1999/xlink" x="0px" y="0px"
	 viewBox="0 0 193.23 68.82" style="enable-background:new 0 0 193.23 68.82;" xml:space="preserve">
<path d="M189.61,8.46c-0.03,2.3-0.39,4.18-1.1,6c-3.12,7.96-6.21,15.93-9.37,23.88c-0.54,1.35-1.34,2.62-2.43,3.72
	c-0.28,0.28-0.6,0.55-0.95,0.77c-1.57,1-3.22,0.67-4.03-0.86c-0.52-0.98-0.96-2.01-1.26-3.06c-0.42-1.42-0.6-2.89-0.37-4.36
	c0.04-0.26,0.08-0.52,0.18-0.76c3.11-7.84,6.22-15.68,9.34-23.52c0.46-1.16,0.86-2.35,1.38-3.49c0.8-1.74,2.34-2.77,4.41-3.09
	c1.61-0.25,3.13,0.64,3.67,1.98C189.49,6.7,189.68,7.74,189.61,8.46z M172.81,30.72c0.04,0.04,0.09,0.07,0.13,0.11
	c0.14-0.06,0.29-0.11,0.43-0.18c1.86-0.84,3.65-0.31,4.62,1.31c0.61,1.02,1.01,2.07,1.08,3.23c0.11-0.12,0.16-0.23,0.21-0.34
	c2.01-5.14,4.04-10.28,6.03-15.43c1-2.59,2.22-5.13,2.82-7.83c0.41-1.83,0.57-3.66-0.13-5.47c-0.43-1.13-1.68-1.68-2.97-1.27
	c-1.54,0.48-2.56,1.37-3.11,2.77c-2.88,7.38-5.82,14.75-8.74,22.12C173.05,30.06,172.93,30.39,172.81,30.72z M171.49,38.63
	c0.43,0.95,0.84,1.92,1.31,2.85c0.48,0.95,1.24,1.12,2.22,0.53c0.74-0.45,1.26-1.07,1.75-1.81
	C174.48,41.19,173.41,40.84,171.49,38.63z"/>
<path d="M133.4,40.61c0.2-1.17,0.32-2.37,0.63-3.52c0.47-1.73,0.95-3.46,1.66-5.1c0.47-1.09,1.21-2.13,2.03-3.01
	c5.14-5.53,10.75-10.58,16.28-15.7c2.4-2.22,4.91-4.33,7.39-6.46c0.74-0.64,1.67-0.58,2.4,0.06c0.23,0.2,0.45,0.44,0.62,0.7
	c0.88,1.39,1.22,2.9,1.13,4.55c-0.09,1.52-0.24,2.99-0.85,4.41c-0.61,1.42-1.35,2.71-2.52,3.78c-4.8,4.41-9.63,8.78-14.31,13.32
	c-3.08,2.99-5.91,6.24-8.86,9.36c-0.67,0.71-1.38,1.35-2.37,1.58c-0.74,0.17-1.33-0.02-1.86-0.55
	C133.82,43.08,133.42,41.95,133.4,40.61z M141.31,38.31c0.04,0.02,0.08,0.05,0.12,0.07c0.86-0.9,1.72-1.81,2.58-2.71
	c5.29-5.51,11.01-10.58,16.67-15.7c2.15-1.94,3.33-4.28,3.58-7.13c0.14-1.55,0.05-3.08-0.82-4.45c-0.5-0.79-0.96-0.89-1.67-0.3
	c-1.23,1.02-2.47,2.02-3.64,3.1c-4.06,3.75-8.11,7.5-12.13,11.3c-2.21,2.09-4.35,4.27-6.51,6.41c-0.19,0.19-0.36,0.41-0.61,0.69
	c0.42,0.07,0.73,0.12,1.03,0.18c0.95,0.19,1.64,0.73,1.87,1.67c0.29,1.19,0.52,2.4,0.26,3.63
	C141.82,36.16,141.56,37.23,141.31,38.31z M138.21,31.04c-0.96,0.57-1.28,0.98-1.54,1.88c-0.1,0.35-0.23,0.7-0.36,1.05
	c-0.8,2.11-1.41,4.27-1.61,6.52c-0.08,0.87,0.14,1.69,0.72,2.39c0.55,0.67,0.78,0.69,1.59,0.09c-0.14-0.21-0.27-0.41-0.41-0.62
	c-0.45-0.69-0.75-1.45-0.61-2.26c0.31-1.87,0.39-3.79,1.08-5.6C137.49,33.38,137.82,32.24,138.21,31.04z"/>
<path d="M188.1,56.68c-0.71,0.57-1.38,1.13-2.07,1.66c-1.71,1.28-3.64,2.1-5.74,2.5c-0.71,0.13-1.37,0.06-2.08-0.2
	c-6.94-2.63-13.77-5.55-20.93-7.59c-3.42-0.97-6.82-2-10.22-3.05c-0.69-0.21-1.37-0.57-1.96-1c-0.9-0.65-0.97-1.51-0.23-2.35
	c1.56-1.79,3.53-2.96,5.84-3.48c1.55-0.35,3.15-0.5,4.71-0.84c1.58-0.35,3.07-0.04,4.52,0.48c2.86,1.03,5.69,2.16,8.55,3.21
	c4.27,1.57,8.56,3.1,12.84,4.64c2.11,0.76,4.23,1.51,6.34,2.29c0.78,0.29,1.13,0.81,1.02,1.77
	C188.61,55.36,188.31,55.99,188.1,56.68z M151.12,49.81c0.32,0.1,0.64,0.2,0.96,0.3c4.52,1.45,9.07,2.81,13.55,4.38
	c4.45,1.56,8.83,3.33,13.25,4.99c0.33,0.12,0.73,0.2,1.06,0.13c1.27-0.29,2.57-0.52,3.69-1.26c0.92-0.61,1.91-1.15,2.77-1.84
	c0.44-0.35,0.75-0.92,0.96-1.45c0.24-0.6,0.06-0.85-0.58-1.07c-2.44-0.87-4.89-1.71-7.31-2.6c-6.14-2.27-12.26-4.56-18.39-6.84
	c-0.76-0.28-1.54-0.54-2.35-0.81c0.1,1.84-0.9,3.74-2.38,4.37C154.7,48.8,153.05,49.62,151.12,49.81z M157.35,44.09
	c-0.22-0.48-0.5-0.71-1.06-0.61c-1.51,0.27-3.02,0.55-4.55,0.75c-1.97,0.26-3.59,1.24-5.12,2.39c-0.39,0.29-0.67,0.73-1.03,1.14
	c0.43,0.3,0.75,0.53,1.1,0.77c1.05-1.7,2.48-2.62,4.33-2.93c0.59-0.1,1.17-0.22,1.75-0.37C154.29,44.87,155.8,44.48,157.35,44.09z"
	/>
<path d="M125.05,33.42c0.13,1.99,0.26,3.97-0.2,5.95c-0.31,1.31-0.96,2.35-2.02,3.16c-0.81,0.62-2.01,0.55-2.68-0.23
	c-1.17-1.36-2.31-2.74-3.47-4.11c-5.32-6.34-10.6-12.73-16-19.01c-1.37-1.6-1.75-3.4-1.97-5.32c-0.21-1.88-0.09-3.76,0.36-5.6
	c0.22-0.9,0.57-1.79,1.03-2.59c0.69-1.22,1.82-1.38,2.84-0.4c1.11,1.06,2.13,2.21,3.19,3.32c0.86,0.91,1.76,1.78,2.59,2.72
	c1.81,2.08,3.58,4.2,5.38,6.28c1.17,1.35,2.35,2.71,3.59,4c1.37,1.42,2.68,2.86,3.73,4.54c0.6,0.96,1.34,1.84,1.97,2.79
	C124.28,30.29,124.95,31.76,125.05,33.42z M121.91,28.88c-1.38-1.81-2.61-3.58-3.99-5.23c-1.59-1.89-3.32-3.66-4.96-5.52
	c-1.67-1.9-3.28-3.86-4.95-5.75c-1.15-1.3-2.36-2.55-3.55-3.81c-0.7-0.74-1.41-1.49-2.15-2.2c-0.67-0.64-0.88-0.6-1.34,0.23
	c-0.22,0.4-0.43,0.81-0.54,1.25c-0.63,2.52-0.75,5.07-0.24,7.62c0.16,0.83,0.42,1.62,1.01,2.31c2.33,2.73,4.61,5.5,6.92,8.24
	c3.53,4.21,7.06,8.42,10.59,12.63c0.18,0.22,0.39,0.42,0.58,0.63c0.11-0.27,0.1-0.43,0.09-0.6c-0.17-2.02-0.1-4.04,0.2-6.04
	C119.8,31.12,120.17,29.66,121.91,28.88z M122.38,30.16c0.96,3.94,1.34,7.71-0.45,11.37c0.88-0.53,1.28-1.05,1.56-2.02
	c0.68-2.36,0.51-4.73,0.13-7.1c-0.1-0.63-0.44-1.22-0.73-1.81C122.8,30.42,122.55,30.31,122.38,30.16z"/>
<path d="M108.71,49.13c2.08,0.28,4.16,0.61,6.25,0.84c3.56,0.4,7.12,0.74,10.68,1.11c3.28,0.35,6.56,0.66,9.83,1.09
	c3.01,0.39,5.51,1.87,7.68,3.96c1.2,1.16,2.27,2.41,2.89,3.97c0.28,0.7,0.49,1.46,0.57,2.21c0.14,1.27-1.18,2.31-2.41,2.13
	c-2.95-0.45-5.91-0.84-8.87-1.25c-3.21-0.45-6.42-0.88-9.63-1.33c-2.51-0.35-5.01-0.87-7.52-1.01c-2.08-0.11-3.74-1.07-5.39-2.07
	c-1.55-0.94-3-2.07-4.12-3.55c-0.95-1.24-1.73-2.54-1.79-4.16C106.83,49.81,107.45,49.16,108.71,49.13z M108.22,50.41
	c-0.26,0.96,0.04,1.74,0.42,2.45c1.5,2.81,3.89,4.68,6.77,5.84c1.29,0.52,2.66,1.02,4.11,1.02c0.45,0,0.9,0.11,1.35,0.17
	c4.02,0.61,8.04,1.25,12.07,1.82c2.67,0.38,5.36,0.66,8.04,0.98c0.17,0.02,0.35,0,0.67,0c-0.92-0.72-1.76-1.27-2.46-1.96
	c-1.89-1.87-3.51-3.91-3.58-6.75c-0.01-0.35-0.16-0.52-0.48-0.58c-0.25-0.05-0.5-0.1-0.76-0.13c-4.02-0.41-8.04-0.78-12.06-1.22
	c-3.17-0.35-6.32-0.79-9.49-1.17C111.32,50.7,109.79,50.57,108.22,50.41z M136.96,53.83c-0.05,0.08-0.1,0.17-0.14,0.25
	c0.16,0.15,0.29,0.34,0.47,0.44c2.45,1.3,4.54,3.02,6.22,5.23c0.58,0.77,0.93,1.62,0.96,2.6c0,0.16,0.04,0.31,0.06,0.47
	c0.79-0.14,0.93-0.26,0.82-0.91c-0.06-0.39-0.21-0.77-0.36-1.13c-0.74-1.78-1.95-3.21-3.44-4.39c-0.98-0.77-2.05-1.44-3.11-2.08
	C138,54.07,137.45,53.99,136.96,53.83z"/>
<path d="M37.57,6.84c-0.04,1.41-0.36,2.79-1.01,4.02c-0.92,1.73-1.97,3.39-3,5.06c-0.23,0.37-0.58,0.71-0.95,0.96
	c-4.72,3.23-9.45,6.43-14.17,9.66c-2.32,1.59-4.61,3.23-6.93,4.83c-0.68,0.47-1.44,0.8-2.13,1.27c-0.84,0.57-1.72,0.48-2.62,0.24
	c-0.52-0.14-0.86-0.51-0.9-1.02c-0.05-0.62-0.13-1.29,0.04-1.86c0.8-2.58,1.8-5.09,3.13-7.46c0.63-1.13,1.62-1.91,2.58-2.67
	c1.37-1.1,2.86-2.07,4.32-3.05c4.4-2.95,8.79-5.89,13.21-8.8c1.97-1.3,3.98-2.53,5.99-3.78c0.81-0.5,1.14-0.42,1.77,0.29
	C37.51,5.19,37.6,5.99,37.57,6.84z M35.91,5.35c-1.12,0.41-22.22,14.36-23.18,15.33c1.05,0.69,1.26,1.74,1.26,2.9
	c0,1.33-0.23,2.6-0.8,3.81c-0.26,0.56-0.51,1.13-0.84,1.85c1.47-1.04,2.76-1.97,4.08-2.87c5.18-3.56,10.37-7.12,15.55-10.68
	c0.23-0.16,0.46-0.35,0.61-0.58c0.65-0.97,1.29-1.94,1.89-2.95c0.93-1.58,1.68-3.23,1.86-5.09C36.39,6.47,36.4,5.84,35.91,5.35z
	 M12.16,21.77c-0.93-0.13-1.42,0.33-1.71,0.92c-0.87,1.72-1.72,3.46-2.5,5.22c-0.39,0.88-0.68,1.81-0.93,2.74
	C6.8,31.5,7.09,31.79,7.98,31.7C8.72,28.17,9.98,24.85,12.16,21.77z"/>
<path d="M66.21,58.89c0.01-1.47,0.53-2.78,1.25-3.97c1.4-2.3,3.09-4.37,5.32-5.94c0.28-0.19,0.57-0.38,0.89-0.49
	c8.67-3.2,17.35-6.4,26.02-9.59c1.25-0.46,1.72-0.27,2.34,0.92c0.75,1.44,0.78,2.96,0.33,4.49c-0.8,2.75-2.5,4.78-5.11,5.96
	c-2.41,1.09-4.86,2.08-7.31,3.09c-6.38,2.65-12.77,5.3-19.16,7.93c-0.6,0.25-1.23,0.43-1.86,0.61c-1.02,0.29-1.91-0.12-2.29-1.11
	C66.42,60.19,66.35,59.53,66.21,58.89z M100.57,39.91c-8.72,3.22-17.4,6.42-26.12,9.64c0.63,1.09,0.7,2.15,0.5,3.25
	c-0.37,1.99-1.17,3.8-2.44,5.39c-0.32,0.41-0.62,0.84-0.92,1.26c0.31,0.03,0.52-0.04,0.72-0.12c8.06-3.35,16.13-6.68,24.18-10.06
	c2.65-1.11,4.28-3.16,4.83-5.99C101.54,42.1,101.39,40.95,100.57,39.91z M73.21,50.17c-0.58,0.52-1.14,0.96-1.62,1.47
	c-1.6,1.7-3.09,3.48-3.85,5.75c-0.31,0.91-0.31,1.78-0.03,2.67c0.22,0.69,0.48,0.77,1.22,0.4c-0.22-1.93,0.27-3.74,1.39-5.3
	c0.84-1.17,1.89-2.19,2.9-3.22C73.89,51.26,73.94,51.09,73.21,50.17z"/>
<path d="M47.25,12.77c0-0.26-0.01-0.51,0-0.77c0.04-1.04,0.91-1.73,1.94-1.37c3,1.06,6.04,2.02,9.04,3.1
	c4.82,1.74,9.61,3.53,14.41,5.32c1.33,0.5,2.72,0.92,3.94,1.62c1.03,0.6,2,1.45,2.73,2.39c1.09,1.41,2,2.97,2.89,4.52
	c0.39,0.68,0.65,1.47,0.8,2.24c0.45,2.33-1.59,3.12-3.1,2.7c-1.2-0.34-2.35-0.87-3.52-1.3c-3.23-1.19-6.48-2.33-9.69-3.56
	c-3.85-1.48-7.63-3.15-11.51-4.53c-2.45-0.87-4.3-2.38-5.87-4.33C47.91,17.05,47.34,14.98,47.25,12.77z M74.81,21.27
	c-0.77-0.32-1.47-0.65-2.18-0.91c-6.97-2.55-13.94-5.09-20.91-7.62c-1-0.36-2.04-0.64-3.16-0.99c-0.02,0.47-0.05,0.77-0.06,1.08
	c-0.04,1.26,0.38,2.41,0.84,3.55c0.91,2.25,2.64,3.82,4.7,4.89c2.26,1.18,4.69,2.05,7.08,2.95c5.24,1.98,10.5,3.89,15.76,5.83
	c0.12,0.05,0.25,0.08,0.5,0.16c-0.13-0.24-0.19-0.36-0.25-0.47c-0.75-1.46-1.62-2.88-2.23-4.4C74.38,24.08,74.09,22.71,74.81,21.27z
	 M80.95,31.23c0.66-0.12,0.85-0.27,0.84-0.8c-0.01-0.39-0.1-0.79-0.23-1.16c-0.76-2.15-2.04-3.99-3.46-5.74
	c-0.44-0.54-1.04-0.97-1.6-1.4c-0.14-0.1-0.44,0.02-0.67,0.04c0.03,0.22-0.02,0.51,0.11,0.65c0.34,0.38,0.76,0.68,1.12,1.05
	C79.04,25.95,80.67,28.23,80.95,31.23z"/>
<path d="M57.48,54.23c-0.25,0.8-0.42,1.64-0.77,2.4c-0.74,1.59-2.63,1.83-3.86,0.53c-1.92-2.02-3.84-4.04-5.75-6.07
	c-2.63-2.8-5.27-5.59-7.86-8.43c-1.55-1.7-3.09-3.43-4.47-5.27c-1.29-1.73-2.02-3.72-1.91-5.97c0.08-1.55,0.23-3.06,1.06-4.42
	c0.15-0.24,0.29-0.49,0.49-0.69c0.52-0.53,1.09-0.55,1.66-0.07c0.28,0.24,0.55,0.5,0.81,0.76c3.61,3.56,7.23,7.1,10.82,10.68
	c2.38,2.37,4.73,4.77,7.05,7.19c0.4,0.42,0.7,0.98,0.92,1.52C56.7,48.87,57.21,51.49,57.48,54.23z M35.3,27.08
	c-0.32,0.66-0.59,1.09-0.75,1.57c-1.02,3.05-0.44,5.85,1.52,8.35c1.28,1.63,2.62,3.22,4.03,4.75c3.67,3.97,7.4,7.88,11.11,11.82
	c0.12,0.13,0.27,0.24,0.51,0.44c0-0.36,0-0.59,0-0.81c0-1.33-0.07-2.68,0.02-4c0.11-1.45,0.43-2.87,1.76-3.96
	C47.46,39.21,41.46,33.22,35.3,27.08z M54.43,46.43c-0.64,0.1-0.79,0.32-0.55,0.74c0.74,1.32,0.91,2.8,1.16,4.25
	c0.22,1.3,0.35,2.6-0.02,3.89c-0.13,0.46-0.3,0.9-0.53,1.57c0.41-0.19,0.72-0.23,0.84-0.41c0.5-0.71,0.86-1.51,0.77-2.39
	c-0.14-1.35-0.32-2.71-0.61-4.04C55.24,48.84,54.8,47.66,54.43,46.43z"/>
<path d="M36.83,61.36c-0.07,1.97-1.14,2.7-2.97,2c-7.38-2.83-14.8-5.57-22.11-8.56c-3.4-1.39-5.6-4.12-6.47-7.77
	c-0.22-0.94-0.13-1.88,0.46-2.69c0.57-0.77,0.93-0.87,1.83-0.55c6.07,2.11,12.14,4.22,18.21,6.33c1.75,0.61,3.51,1.17,5.23,1.84
	c0.67,0.26,1.34,0.67,1.82,1.19c1.63,1.78,2.95,3.77,3.58,6.13C36.58,59.96,36.69,60.67,36.83,61.36z M30.02,52.96
	c-0.3-0.12-0.51-0.21-0.72-0.28c-3.03-1.06-6.07-2.12-9.1-3.18c-4.16-1.45-8.32-2.89-12.48-4.34c-0.9-0.31-1.23-0.12-1.25,0.82
	c-0.01,0.58,0.07,1.21,0.28,1.75c1.13,2.85,3.04,5,5.94,6.13c5.99,2.33,11.99,4.63,17.99,6.94c0.32,0.12,0.66,0.22,1.02,0.34
	c-0.57-1.01-1.17-1.92-1.62-2.89C29.28,56.54,28.87,54.79,30.02,52.96z M35.55,62.15c-0.1-0.81-0.12-1.61-0.31-2.36
	c-0.55-2.2-1.79-4.04-3.26-5.73c-0.46-0.53-0.6-0.5-1.12,0.12c2.04,2.27,3.96,4.62,3.95,7.97C35.01,62.15,35.2,62.15,35.55,62.15z"
	/>
<path d="M180.66,25.07c0.07-0.2,0.1-0.29,0.14-0.38c1.08-2.67,2.16-5.34,3.24-8.01c0.22-0.53,0.42-1.08,0.7-1.58
	c0.11-0.2,0.4-0.39,0.64-0.44c0.35-0.07,0.59,0.26,0.49,0.64c-0.09,0.32-0.25,0.62-0.37,0.94c-0.98,2.5-1.95,5.01-2.95,7.5
	c-0.21,0.53-0.47,1.06-0.8,1.55c-0.11,0.16-0.49,0.28-0.72,0.25C180.87,25.5,180.75,25.2,180.66,25.07z"/>
<path d="M179.55,18.01c0.06-0.26,0.08-0.38,0.12-0.49c0.99-2.53,1.97-5.05,2.97-7.58c0.08-0.19,0.21-0.4,0.39-0.51
	c0.31-0.19,0.74,0,0.79,0.34c0.03,0.18-0.02,0.38-0.09,0.55c-0.93,2.42-1.88,4.83-2.82,7.25c-0.07,0.18-0.11,0.39-0.25,0.52
	c-0.18,0.17-0.46,0.38-0.66,0.36C179.81,18.43,179.66,18.13,179.55,18.01z"/>
<path d="M175.96,27.07c0.17-0.45,0.29-0.78,0.42-1.12c0.67-1.65,1.34-3.29,2.01-4.94c0.02-0.04,0.04-0.09,0.07-0.13
	c0.27-0.51,0.61-0.72,0.95-0.54c0.47,0.24,0.3,0.59,0.15,0.93c-0.77,1.86-1.53,3.73-2.3,5.6c-0.05,0.11-0.04,0.27-0.13,0.33
	c-0.2,0.15-0.47,0.37-0.67,0.34C176.26,27.51,176.11,27.22,175.96,27.07z"/>
<path d="M145.62,31.9c-0.61,0.03-0.94-0.41-0.73-0.85c0.09-0.2,0.26-0.37,0.43-0.52c4.78-4.35,9.56-8.7,14.34-13.04
	c0.14-0.13,0.31-0.3,0.49-0.32c0.23-0.02,0.56,0.01,0.68,0.16c0.12,0.14,0.1,0.49,0.01,0.69c-0.09,0.22-0.32,0.39-0.51,0.56
	c-3.9,3.54-7.8,7.08-11.69,10.62c-0.86,0.78-1.7,1.6-2.56,2.39C145.91,31.72,145.71,31.83,145.62,31.9z"/>
<path d="M151.92,21.3c-0.14,0.21-0.23,0.43-0.39,0.57c-0.77,0.72-1.55,1.43-2.33,2.13c-0.32,0.29-0.72,0.47-1.05,0.06
	c-0.28-0.34-0.12-0.7,0.19-0.98c0.78-0.71,1.54-1.44,2.35-2.11c0.2-0.16,0.57-0.18,0.85-0.16C151.67,20.83,151.78,21.1,151.92,21.3z
	"/>
<path d="M171.18,54.14c0.04,0.22,0.2,0.54,0.13,0.8c-0.1,0.35-0.46,0.37-0.79,0.24c-0.11-0.04-0.22-0.07-0.32-0.11
	c-2.69-0.99-5.38-1.99-8.08-2.96c-1.18-0.42-2.38-0.76-3.57-1.13c-0.24-0.08-0.49-0.14-0.73-0.23c-0.36-0.15-0.7-0.35-0.56-0.82
	c0.14-0.46,0.52-0.46,0.91-0.38c0.14,0.03,0.27,0.08,0.41,0.12c3.81,1.32,7.62,2.64,11.43,3.97
	C170.34,53.77,170.68,53.93,171.18,54.14z"/>
<path d="M182.04,53.65c0.04,0.22,0.21,0.55,0.12,0.8c-0.14,0.39-0.54,0.35-0.88,0.22c-0.85-0.32-1.69-0.66-2.55-0.96
	c-1.15-0.41-2.31-0.79-3.46-1.19c-0.16-0.06-0.33-0.1-0.48-0.18c-0.32-0.17-0.61-0.39-0.48-0.8c0.15-0.46,0.53-0.47,0.91-0.35
	c1,0.32,2,0.64,2.99,0.99c0.91,0.32,1.82,0.66,2.72,1C181.26,53.29,181.57,53.44,182.04,53.65z"/>
<path d="M172.64,50.11c0.06,0.29,0.23,0.62,0.15,0.87c-0.13,0.4-0.53,0.35-0.87,0.24c-0.89-0.3-1.76-0.62-2.65-0.91
	c-0.51-0.17-1.03-0.3-1.56-0.42c-0.35-0.08-0.64-0.28-0.53-0.62c0.07-0.24,0.38-0.43,0.62-0.58c0.12-0.07,0.34-0.02,0.5,0.03
	c1.29,0.41,2.59,0.84,3.88,1.26c0.11,0.03,0.2,0.11,0.3,0.16C172.53,50.13,172.58,50.12,172.64,50.11z"/>
<path d="M175.57,56.45c-0.07-0.25-0.28-0.58-0.19-0.73c0.12-0.21,0.51-0.45,0.7-0.4c0.95,0.25,1.89,0.58,2.8,0.94
	c0.18,0.07,0.35,0.49,0.3,0.68c-0.05,0.18-0.44,0.44-0.62,0.4C177.59,57.1,176.63,56.77,175.57,56.45z"/>
<path d="M103.15,16.74c0.13,0.1,0.38,0.23,0.56,0.43c1.6,1.81,3.24,3.59,4.78,5.45c2.65,3.23,5.24,6.52,7.86,9.77
	c0.37,0.46,0.79,0.89,1.19,1.34c0.28,0.32,0.5,0.69,0.12,1.05c-0.43,0.41-0.79,0.09-1.08-0.25c-1-1.16-2.03-2.31-2.99-3.5
	c-2.29-2.83-4.52-5.7-6.82-8.52c-1.17-1.43-2.44-2.78-3.66-4.17c-0.2-0.23-0.42-0.48-0.54-0.76
	C102.39,17.19,102.63,16.79,103.15,16.74z"/>
<path d="M110.16,18.69c0.05,0.61-0.41,0.92-0.85,0.68c-0.21-0.12-0.39-0.33-0.55-0.52c-1.86-2.22-3.71-4.44-5.56-6.66
	c-0.12-0.15-0.29-0.32-0.3-0.49c-0.01-0.22,0.04-0.55,0.19-0.66c0.15-0.11,0.49-0.09,0.68,0c0.24,0.12,0.43,0.37,0.61,0.58
	c1.8,2.15,3.6,4.31,5.39,6.47C109.94,18.3,110.07,18.56,110.16,18.69z"/>
<path d="M113.06,21.78c0.36,0.21,0.62,0.29,0.77,0.46c1.4,1.53,2.78,3.08,4.16,4.64c0.27,0.31,0.51,0.71,0.12,1.05
	c-0.43,0.38-0.78,0.08-1.09-0.26c-1.33-1.48-2.66-2.96-3.98-4.45c-0.15-0.17-0.33-0.39-0.32-0.58
	C112.74,22.38,112.92,22.13,113.06,21.78z"/>
<path d="M135.82,61.13c-1.52-0.23-2.87-0.46-4.23-0.62c-3.33-0.38-6.68-0.72-10.01-1.1c-1.19-0.14-2.36-0.35-3.54-0.55
	c-0.44-0.07-0.78-0.3-0.66-0.8c0.11-0.48,0.51-0.47,0.89-0.42c2.88,0.36,5.75,0.73,8.63,1.09c2.79,0.36,5.59,0.71,8.38,1.07
	c0.2,0.03,0.45,0,0.58,0.11c0.21,0.18,0.48,0.47,0.46,0.7C136.31,60.81,135.96,60.99,135.82,61.13z"/>
<path d="M119.36,55.06c-1.63-0.23-3.22-0.47-4.83-0.69c-1.04-0.15-2.08-0.28-3.11-0.42c-0.37-0.05-0.66-0.2-0.7-0.61
	c-0.03-0.42,0.35-0.69,0.91-0.62c1.18,0.15,2.36,0.3,3.54,0.47c1.4,0.2,2.8,0.43,4.2,0.64c0.41,0.06,0.72,0.24,0.69,0.7
	C120.03,54.95,119.71,55.07,119.36,55.06z"/>
<path d="M131.21,56.12c-2.05-0.22-4.17-0.45-6.29-0.68c-0.41-0.04-0.75-0.2-0.71-0.67c0.04-0.54,0.46-0.6,0.88-0.56
	c1.73,0.18,3.45,0.38,5.17,0.56c0.37,0.04,0.74,0.06,1.1,0.1c0.42,0.05,0.82,0.17,0.79,0.7C132.12,56.12,131.71,56.15,131.21,56.12z
	"/>
<path d="M15.74,21.5c-0.19-0.14-0.44-0.23-0.52-0.39c-0.08-0.17-0.04-0.45,0.06-0.62c0.11-0.18,0.33-0.3,0.52-0.43
	c4.92-3.24,9.85-6.47,14.78-9.71c0.16-0.11,0.35-0.25,0.53-0.25c0.2,0,0.5,0.08,0.58,0.22c0.1,0.18,0.1,0.52-0.01,0.69
	c-0.14,0.23-0.42,0.37-0.66,0.53c-4.8,3.16-9.61,6.32-14.41,9.48C16.36,21.19,16.07,21.32,15.74,21.5z"/>
<path d="M23.56,19.58c-0.26,0.29-0.46,0.61-0.74,0.82c-1.07,0.8-2.17,1.56-3.26,2.34c-0.76,0.55-1.52,1.1-2.28,1.65
	c-0.21,0.15-0.43,0.28-0.65,0.41c-0.35,0.19-0.73,0.28-0.97-0.14c-0.22-0.4,0-0.69,0.34-0.93c1.19-0.83,2.37-1.67,3.55-2.52
	c0.92-0.66,1.82-1.36,2.76-2c0.22-0.15,0.57-0.17,0.85-0.15C23.3,19.07,23.4,19.35,23.56,19.58z"/>
<path d="M30.1,15.29c-0.09,0.11-0.21,0.35-0.4,0.48c-1.11,0.75-2.23,1.47-3.35,2.19c-0.09,0.06-0.23,0.15-0.31,0.12
	c-0.28-0.08-0.67-0.14-0.77-0.33c-0.09-0.17,0.08-0.63,0.27-0.76c1.15-0.79,2.32-1.53,3.51-2.27C29.58,14.39,30.11,14.63,30.1,15.29
	z"/>
<path d="M78.17,51.01c-0.17-0.13-0.48-0.26-0.51-0.43c-0.03-0.23,0.09-0.59,0.27-0.71c0.34-0.24,0.77-0.36,1.17-0.51
	c4.04-1.52,8.08-3.04,12.13-4.55c1.84-0.68,3.69-1.32,5.53-1.99c0.42-0.15,0.87-0.32,1.08,0.24c0.2,0.54-0.22,0.78-0.63,0.93
	c-1.87,0.68-3.75,1.33-5.61,2.02c-4.13,1.54-8.24,3.11-12.36,4.66C78.91,50.8,78.58,50.88,78.17,51.01z"/>
<path d="M86.9,52.25c-0.17-0.14-0.46-0.28-0.55-0.49c-0.15-0.38,0.1-0.63,0.46-0.78c1.48-0.59,2.96-1.18,4.44-1.77
	c0.9-0.36,1.8-0.72,2.69-1.07c0.18-0.07,0.39-0.22,0.56-0.19c0.27,0.05,0.61,0.15,0.75,0.36c0.08,0.12-0.12,0.5-0.27,0.7
	c-0.11,0.14-0.34,0.2-0.52,0.27c-2.24,0.9-4.48,1.8-6.73,2.7C87.5,52.09,87.25,52.14,86.9,52.25z"/>
<path d="M82.49,53.56c-0.12,0.12-0.26,0.39-0.49,0.49c-1.32,0.59-2.66,1.14-4,1.7c-0.38,0.16-0.76,0.13-0.93-0.3
	c-0.18-0.44,0.11-0.69,0.49-0.85c1.28-0.55,2.56-1.1,3.85-1.62C82,52.74,82.45,52.96,82.49,53.56z"/>
<path d="M65.62,21.35c-0.61-0.22-1.06-0.37-1.52-0.54c-3.66-1.39-7.33-2.78-10.99-4.18c-0.21-0.08-0.43-0.16-0.63-0.25
	c-0.39-0.18-0.59-0.48-0.41-0.89c0.17-0.4,0.51-0.39,0.87-0.26c1.18,0.42,2.36,0.83,3.53,1.28c2.89,1.1,5.78,2.22,8.67,3.34
	c0.24,0.09,0.53,0.13,0.7,0.3c0.19,0.19,0.41,0.52,0.36,0.74C66.15,21.09,65.78,21.23,65.62,21.35z"/>
<path d="M72.36,27.05c-0.87-0.31-1.65-0.58-2.43-0.86c-1.25-0.46-2.5-0.93-3.75-1.41c-0.13-0.05-0.32-0.09-0.37-0.19
	c-0.11-0.21-0.26-0.49-0.19-0.67c0.06-0.18,0.36-0.35,0.57-0.38c0.23-0.03,0.5,0.08,0.74,0.17c1.71,0.62,3.42,1.25,5.12,1.88
	c0.24,0.09,0.53,0.17,0.67,0.35c0.15,0.19,0.24,0.52,0.18,0.74C72.84,26.86,72.52,26.95,72.36,27.05z"/>
<path d="M57,21.15c-0.48-0.14-0.88-0.22-1.24-0.37c-0.66-0.27-1.31-0.55-1.94-0.87c-0.33-0.17-0.55-0.52-0.3-0.84
	c0.14-0.18,0.56-0.32,0.78-0.25c0.97,0.32,1.92,0.7,2.85,1.12c0.21,0.1,0.4,0.48,0.39,0.72C57.53,20.84,57.17,21,57,21.15z"/>
<path d="M50.93,45.31c0,0.58-0.5,0.86-0.93,0.61c-0.27-0.15-0.49-0.38-0.71-0.6c-1.62-1.64-3.24-3.28-4.86-4.93
	c-0.56-0.57-0.66-0.93-0.34-1.23c0.31-0.28,0.72-0.17,1.24,0.35c1.75,1.76,3.49,3.52,5.22,5.29C50.72,44.97,50.85,45.19,50.93,45.31
	z"/>
<path d="M45.77,44.67c-0.04,0.57-0.49,0.82-0.89,0.6c-0.19-0.11-0.35-0.28-0.5-0.45c-1.55-1.7-3.11-3.41-4.65-5.12
	c-0.51-0.56-0.59-0.98-0.28-1.25c0.31-0.26,0.7-0.13,1.22,0.43c1.55,1.7,3.11,3.41,4.65,5.12C45.52,44.23,45.66,44.51,45.77,44.67z"
	/>
<path d="M37.39,31.77c0.23,0.13,0.46,0.19,0.61,0.34c1.31,1.26,2.6,2.53,3.89,3.81c0.29,0.29,0.44,0.63,0.1,0.97
	c-0.29,0.29-0.65,0.21-0.92-0.05c-1.35-1.3-2.69-2.61-4-3.94c-0.16-0.16-0.17-0.52-0.14-0.77C36.95,32.01,37.21,31.91,37.39,31.77z"
	/>
<path d="M9.3,47.01c0.36,0.11,0.61,0.18,0.85,0.26c5.35,1.89,10.71,3.79,16.06,5.69c0.27,0.09,0.57,0.17,0.77,0.35
	c0.16,0.14,0.31,0.49,0.24,0.64c-0.1,0.2-0.4,0.36-0.64,0.41c-0.2,0.04-0.44-0.09-0.65-0.16C20.46,52.26,15,50.33,9.55,48.4
	c-0.16-0.06-0.37-0.08-0.46-0.2c-0.15-0.21-0.34-0.49-0.3-0.71C8.82,47.29,9.14,47.15,9.3,47.01z"/>
<path d="M22.13,55.31c0.22,0.03,0.3,0.02,0.38,0.05c1.62,0.51,3.24,1.01,4.86,1.53c0.37,0.12,0.55,0.43,0.41,0.81
	c-0.15,0.39-0.49,0.44-0.85,0.33c-1.6-0.49-3.19-1-4.78-1.5c-0.08-0.03-0.19-0.06-0.22-0.12c-0.11-0.23-0.29-0.5-0.26-0.72
	C21.7,55.52,22.01,55.4,22.13,55.31z"/>
<path d="M18.61,54.18c-0.03,0.57-0.35,0.83-0.8,0.68c-0.67-0.22-1.32-0.5-1.96-0.79c-0.33-0.15-0.52-0.47-0.36-0.84
	c0.17-0.38,0.5-0.42,0.86-0.28c0.58,0.23,1.17,0.44,1.72,0.71C18.32,53.78,18.49,54.06,18.61,54.18z"/>
</svg>
