<?xml version="1.0" encoding="utf-8"?>
<!-- Generator: Adobe Illustrator 25.4.1, SVG Export Plug-In . SVG Version: 6.00 Build 0)  -->
<svg version="1.1" id="Layer_1" xmlns="http://www.w3.org/2000/svg" xmlns:xlink="http://www.w3.org/1999/xlink" x="0px" y="0px"
	 viewBox="0 0 162.91 120.44" style="enable-background:new 0 0 162.91 120.44;" xml:space="preserve">
<g>
	<path d="M25.66,103.6c-2.02-0.23-3.86-0.2-5.54-0.69c-3.85-1.13-7.25-3.15-9.99-6.14c-1.4-1.53-1.85-3.48-2.31-5.47
		c-1.03-4.47-0.29-8.78,0.96-13.03c1.61-5.47,4.78-9.86,9.37-13.28c4.88-3.64,10.44-5.71,16.16-7.5c4.43-1.39,8.89-2.55,13.67-2.7
		c0-2.23,0-4.32,0-6.46c-0.39-0.12-0.69-0.24-1.01-0.29c-6.18-1.02-10.15-4.91-12.77-10.26c-1.62-3.32-1.73-7.02-1.58-10.66
		c0.22-5.32,1.77-10.17,5.17-14.39c3.33-4.13,7.67-6.25,12.89-6.43c2.54-0.08,4.93,0.93,7.17,2.1c2.27,1.19,4.33,2.7,6.09,4.64
		c2.08,2.3,4.02,2.52,6.72,0.97c2.68-1.54,5.47-2.72,8.56-3.22c4.24-0.69,9.65,0.85,12.01,6.16c0.5,1.12,1.01,2.24,1.59,3.32
		c1.95,3.59,4.92,5.92,8.97,6.57c2.19,0.35,4.45,0.29,6.67,0.4c6.39,0.32,11.68,3.01,14.51,8.72c5,10.12-1.5,18.03-10.65,18.89
		c-1.05,0.1-2.11,0.01-3.31,0.01c0,0.81,0,1.53,0,2.28c1.44,0.08,2.76,0.2,4.09,0.22c6.19,0.08,12.19,1.37,18.13,2.88
		c4.38,1.11,8.65,2.68,12.32,5.45c1.78,1.34,3.52,2.76,5.14,4.28c0.83,0.78,1.43,1.84,2.04,2.84c2.98,4.88,2.95,9.8,0.67,15.02
		c-1.49,3.4-3.53,6.02-6.91,7.56c-0.1,0.04-0.18,0.13-0.33,0.25c0.12,2.71-1.08,5-2.53,7.23c-1.26,1.93-3.06,2.98-5.2,3.68
		c-4.2,1.37-8.53,1.61-12.89,1.71c-8.81,0.21-17.63,0.33-26.44,0.71c-4.39,0.19-8.76,0.9-13.15,1.32c-3.89,0.37-7.77,0.8-11.67,0.94
		c-4.63,0.16-9.27-0.07-13.9,0.07c-8.47,0.25-16.8-0.89-25.12-2.26C29.78,108.46,27.02,106.94,25.66,103.6z M27.97,76.57
		c1.2,0,2.3-0.01,3.41,0c2.71,0.04,5.32,0.51,7.77,1.74c1.33,0.67,2.63,1.49,3.06,2.94c0.39,1.34,1.22,1.52,2.33,1.59
		c5.9,0.4,11.78,0.79,17.71,0.48c5.12-0.27,10.28,0.1,15.4-0.18c7.9-0.44,15.78-1.29,23.68-1.77c4.56-0.28,9.15-0.27,13.72-0.23
		c1.74,0.02,3.17-0.48,4.48-1.51c0.31-0.24,0.59-0.71,0.6-1.09c0.09-2.63,1.72-3.94,3.99-4.5c1.78-0.44,3.62-0.61,5.45-0.83
		c1.68-0.21,3.27-1.44,3.76-3.07c-2.67-1.74-5.7-2.17-8.78-2.16c-3.79,0-7.57,0.24-11.36,0.31c-7.75,0.16-15.51-0.13-23.24,0.71
		c-0.95,0.1-1.5,0.32-1.91,1.22c-1.31,2.84-3.14,5.37-5.85,6.95c-6.28,3.65-11.65-0.11-13.19-6.06c-0.13-0.51,0.03-1.1,0.1-1.65
		c0.12-0.91,0.27-1.81,0.44-2.9c-1.35,0.09-2.52,0.13-3.67,0.24c-7.48,0.75-14.92,1.78-22.46,1.96c-4.61,0.11-8.97,1.68-13.18,3.53
		C28.52,73.04,27.93,74.55,27.97,76.57z M51.16,65.96c0.84-4.36,3.31-6.85,7.65-7.22c4.06-0.35,6.26,2.03,7.58,5.46
		c0.47,0,0.8-0.03,1.12,0.01c2.26,0.26,3.85-0.43,4.82-2.69c0.63-1.46,1.66-1.8,2.29-1.19c0.93,0.91,0.22,1.75-0.29,2.53
		c-1.36,2.07-2.45,4.26-2.78,6.75c-0.07,0.54-0.18,1.16,0.01,1.64c1.96,5.12,6.26,6.33,10.17,3.26c1.92-1.51,3.32-3.46,4.26-5.71
		c0.77-1.85,1.45-3.74,2.16-5.61c0.46-1.19,1.14-1.74,1.91-1.41c1.09,0.47,0.73,1.31,0.45,2.13c-0.29,0.87-0.54,1.76-0.81,2.67
		c1.19,0.35,1.64-0.13,2.12-0.98c0.78-1.4,1.6-2.85,2.7-3.98c1.83-1.87,4.17-2.34,6.63-1.32c2.18,0.9,3.55,2.47,3.46,5
		c-0.01,0.21,0.1,0.42,0.19,0.78c0.72-0.07,1.4-0.14,2.16-0.22c-0.22-3.79-0.4-7.4-0.65-11.01c-0.03-0.39-0.3-0.82-0.58-1.12
		c-1.9-2.03-3.82-4.03-5.74-6.04c-0.73-0.77-1.39-1.64-2.23-2.26c-2.3-1.72-4.77-2.6-7.62-1.23c-1.1,0.53-2.25,1.03-3.43,1.28
		c-4.57,0.97-8.47-0.33-11.72-3.68c-0.66-0.68-1.31-1.4-2.08-1.94c-4.33-2.99-7.15-3.2-10.74-0.67c-0.77,0.54-1.4,1.27-2.07,1.94
		c-2.06,2.1-3.83,4.54-6.63,5.79c-0.96,0.43-1.92,0.86-2.85,1.28C50.21,52.27,50.51,64.81,51.16,65.96z M89.8,99.03
		c-6.02,4.96-16.4,5.52-23.47-1.31c-6.5,4.72-13,4.89-19.48,0.15c-1.13,0.74-2.16,1.7-3.38,2.14c-1.31,0.47-2.86,0.27-4.19,0.71
		c-1.4,0.46-2.64,1.38-3.99,2.01c-0.54,0.25-1.2,0.25-1.81,0.32c-0.59,0.07-1.18,0.09-1.78,0.13c0.28,2.17,1.12,3.25,3.22,3.57
		c4.68,0.71,9.37,1.59,14.08,1.82c7.63,0.37,15.28,0.47,22.91,0.3c5.11-0.11,10.21-0.92,15.32-1.36c4.83-0.42,9.66-0.88,14.5-1.1
		c4.34-0.2,8.7-0.02,13.05-0.14c4.12-0.12,8.24-0.33,12.35-0.66c2.32-0.18,4.65-0.54,6.92-1.05c2.93-0.65,4.85-3.93,4.32-7.13
		c-0.37,0.08-0.74,0.17-1.11,0.22c-3.42,0.48-6.82,1.09-10.25,1.35c-1.23,0.09-2.81-0.33-3.72-1.11c-1.12-0.96-2.18-1.35-3.55-1.36
		c-0.55,0-1.09-0.25-1.64-0.3c-0.41-0.03-0.92-0.04-1.24,0.16c-1.76,1.1-3.63,1.33-5.56,0.82c-1.85,2.59-3.19,3.55-6.24,4.28
		C99.68,102.82,94.57,102.18,89.8,99.03z M22.92,76.23c-0.02-0.11-0.03-0.23-0.05-0.34c-0.2-0.05-0.41-0.15-0.6-0.13
		c-3,0.25-6,0.56-9,0.76c-1.08,0.07-1.61,0.61-1.85,1.56c-0.45,1.78-0.89,3.57-1.3,5.36C9.3,86.93,10,90.3,11.06,93.61
		c0.26,0.8,0.87,1.61,1.54,2.14c1.48,1.16,3.13,2.1,4.64,3.22c2.03,1.51,4.34,2,6.78,1.95c3.12-0.06,6.25-0.09,9.35-0.39
		c1.32-0.13,2.71-0.71,3.83-1.45c1.48-0.98,1.1-2.91-0.58-3.45c-0.89-0.28-1.85-0.4-2.79-0.45c-3.56-0.19-7.13-0.32-10.69-0.48
		c-0.39-0.02-0.85-0.01-1.13-0.21c-0.41-0.29-0.96-0.76-0.95-1.15c0.01-0.4,0.54-0.94,0.98-1.14c0.47-0.22,1.09-0.18,1.64-0.16
		c4.18,0.19,8.35,0.43,12.53,0.57c1.04,0.03,2.13-0.14,3.12-0.46c1.47-0.48,1.97-2.04,1.03-3.24c-0.44-0.56-1.21-1.06-1.9-1.19
		c-1.74-0.33-3.53-0.59-5.3-0.59c-3.06,0-6.13,0.21-9.2,0.32c-0.5,0.02-1.04,0.08-1.49-0.08c-0.35-0.13-0.82-0.55-0.84-0.86
		c-0.02-0.41,0.23-1.05,0.56-1.22c0.56-0.29,1.27-0.39,1.93-0.42c3.06-0.13,6.13-0.19,9.2-0.31c1.39-0.05,2.78-0.13,4.15-0.33
		c1.06-0.15,2.32-0.55,2.44-1.7c0.12-1.19-1.17-1.59-2.09-2.09c-2.67-1.44-5.58-1.41-8.48-1.45c-2.29-0.03-4.57-0.03-6.86-0.01
		c-0.79,0.01-1.52-0.06-1.69-0.97c-0.17-0.9,0.43-1.29,1.23-1.47C22.34,76.48,22.62,76.34,22.92,76.23z M137.65,70.48
		c0.68,0.94,1,1.82,2.13,2.03c0.37,0.07,0.84,0.72,0.9,1.15c0.11,0.76-0.54,0.99-1.21,1.06c-3.61,0.34-7.22,0.64-10.82,1.04
		c-1.49,0.16-2.98,0.44-4.41,0.88c-0.6,0.18-1.34,0.81-1.51,1.38c-0.5,1.67,0.83,3.45,2.6,3.53c1.55,0.07,3.12-0.02,4.67-0.17
		c2.49-0.25,4.97-0.62,7.47-0.9c0.68-0.08,1.41,0.01,1.54,0.9c0.13,0.93-0.46,1.33-1.27,1.41c-4.15,0.43-8.3,0.93-12.46,1.22
		c-1.22,0.08-1.88,0.51-2.28,1.53c-0.64,1.67-0.07,3.01,1.83,3.41c1.6,0.34,3.33,0.37,4.96,0.18c3.26-0.37,6.5-1.01,9.75-1.5
		c0.91-0.14,1.98-0.46,2.41,0.8c0.28,0.81-0.47,1.4-2.04,1.64c-3.64,0.56-7.28,1.09-10.91,1.67c-1.1,0.18-2.2,0.41-3.24,0.77
		c-1.13,0.39-1.71,1.43-1.57,2.49c0.14,1.13,1.06,1.36,1.93,1.53c0.65,0.13,1.33,0.13,2,0.1c4.84-0.21,9.48-1.43,14.01-2.99
		c3.08-1.06,5.7-2.84,6.68-6.27c0.14-0.48,0.44-0.9,0.62-1.37c0.84-2.2,1.66-4.45,1.15-6.83c-0.54-2.52-1.52-4.94-3.14-6.96
		c-1.18-1.47-2.65-2.65-4.87-2.22C141.05,70.31,139.47,70.32,137.65,70.48z M48,58.69c-2.51-0.96-5.05-1.15-7.57-0.39
		c-4.26,1.29-8.54,2.57-12.71,4.13c-4.16,1.55-7.88,3.95-11.01,7.14c-0.62,0.64-1.1,1.55-1.33,2.42c-0.4,1.49,0.06,1.91,1.63,1.79
		c2.39-0.18,4.78-0.36,7.16-0.6c0.45-0.05,0.97-0.27,1.31-0.57c2.45-2.27,5.41-3.5,8.56-4.36c3.06-0.83,6.14-1.59,9.22-2.39
		C46.32,65.06,48.75,63.19,48,58.69z M106.9,83.76c-0.46-0.03-0.96-0.11-1.44-0.07c-5.95,0.43-11.89,0.87-17.83,1.35
		c-0.45,0.04-0.93,0.31-1.31,0.6c-1.79,1.33-3.55,2.69-5.32,4.05c-0.58,0.45-1.25,0.68-1.8,0.08c-0.6-0.65-0.35-1.35,0.23-1.92
		c0.27-0.28,0.59-0.51,0.89-0.76c0.55-0.46,1.1-0.92,1.7-1.41c-2.32,0-4.42,0-6.6,0c0,2.1-1.09,3.47-2.43,4.62
		c2.15,4.18,6.24,5.56,10.17,3.57c1.66-0.84,2.74-2.21,3.78-3.69c2.65-3.78,5.21-4.21,8.85-1.48c1.22,0.91,2.56,1.4,4.02,1.43
		c1.02,0.02,2.25,0.09,2.79-1.07c0.69-1.47,1.78-2.33,3.28-2.88C107.15,85.7,107.24,85.35,106.9,83.76z M40.83,98.22
		c0.92-0.33,1.91-0.45,2.6-0.97c1-0.76,1.79-1.79,2.64-2.73c1.19-1.31,2.21-2.82,3.56-3.93c1.6-1.32,2.88-1.16,4.59,0.02
		c0.87,0.6,1.69,1.3,2.62,1.78c1.64,0.84,3.13,0.51,4.06-1.04c1.63-2.69,3.87-3.5,6.84-2.69c1.43,0.39,2.76,0,3.99-0.73
		c0.77-0.45,1.23-1.1,1.03-2.2c-0.56-0.03-1.1-0.1-1.65-0.09c-3.29,0.04-6.59,0.31-9.86,0.09c-3.88-0.26-7.38,0.71-10.8,2.32
		c-1.01,0.47-2.01,0.97-3.03,1.41c-0.4,0.17-0.86,0.33-1.27,0.29c-0.33-0.03-0.81-0.3-0.9-0.57c-0.12-0.35-0.07-0.92,0.15-1.21
		c0.28-0.37,0.78-0.6,1.22-0.82c0.86-0.45,1.74-0.85,2.81-1.37c-2.1-0.53-3.66-0.13-5.35,1.21c-0.75,0.59-1.11,1.21-0.92,2.28
		c0.41,2.41-0.43,3.9-2.57,5.1c-0.23,0.13-0.44,0.28-0.56,0.36C40.27,95.83,40.5,96.8,40.83,98.22z M141.46,67.72
		c0.04-0.16,0.08-0.31,0.12-0.47c-0.85-0.5-1.67-1.06-2.56-1.49c-7.49-3.61-15.53-5.09-23.71-5.83c-1.52-0.14-3.14,0.54-4.67,0.99
		c-0.87,0.25-1.53,0.8-1.46,1.95c0.07,1.16,0.51,1.95,1.63,2.22c1.18,0.28,2.38,0.61,3.58,0.61c3.56,0.01,7.13-0.24,10.69-0.17
		c3.19,0.06,6.32,0.58,9.16,2.23c0.32,0.19,0.73,0.35,1.09,0.33C137.38,68,139.42,67.85,141.46,67.72z M91.33,96.93
		c2.01,1.59,3.96,2.19,6,2.52c2.96,0.47,5.89,0.37,8.69-0.81c1.27-0.54,2.55-1.16,2.85-2.6c-1.46-1.75-2.85-3.4-4.05-4.83
		c-1.38,0.44-2.65,0.95-3.96,1.22c-0.85,0.17-1.77,0-2.66-0.03c-1.34-0.05-2.76-0.15-3.78,0.88C93.35,94.36,92.44,95.61,91.33,96.93
		z M120.85,83.33c-0.77,0.08-1.69,0.23-2.62,0.28c-0.95,0.05-1.91,0.01-3.02,0.01c0.68,0.71,1.22,1.26,1.74,1.83
		c0.56,0.61,0.76,1.28,0.09,1.91c-0.62,0.58-1.26,0.3-1.78-0.2c-0.93-0.88-1.86-1.76-2.73-2.7c-1.14-1.22-1.16-1.25-2.89-0.53
		c0.07,1.47-0.36,2.76-1.41,3.92c-0.41,0.45-0.49,1.33-0.45,2.01c0.1,1.99,1.5,3.14,3.02,4.14c2.4,1.59,4.26,1.26,6.05-1.03
		c0.99-1.27,2.03-2.49,2.98-3.78c0.31-0.42,0.5-0.97,0.58-1.49C120.59,86.3,120.7,84.88,120.85,83.33z M90.86,89.98
		c-0.15-0.08-0.29-0.17-0.44-0.25c-0.7,0.92-1.41,1.82-2.08,2.76c-3.62,5.06-10.34,6.42-15.19,2.23c-1.59-1.38-3.48-1.05-5.18,0.88
		c0.41,0.42,0.8,0.88,1.24,1.27c2.06,1.84,4.51,2.91,7.2,3.29c4.64,0.65,8.91-0.18,12.32-3.67C90.49,94.67,91.25,92.49,90.86,89.98z
		 M66.57,91.13c-1.78-0.51-2.29-0.29-3.5,1.44c-1.9,2.71-4.45,3.4-7.43,1.97c-0.65-0.31-1.24-0.74-1.82-1.17
		c-2.02-1.49-2.58-1.44-4.27,0.51c-0.42,0.49-0.76,1.05-1.14,1.59c1.76,2.31,4.18,3.04,6.68,3.31c3.77,0.39,7.19-0.58,9.86-3.46
		C66.02,94.15,66.69,92.77,66.57,91.13z M121.85,92.87c-1.09-0.06-2.04-0.17-2.46,0.99C121.19,94.54,121.56,94.41,121.85,92.87z"/>
	<path d="M69.27,46.09c3.26,0.29,5.52,1.9,7.15,4.54c0.44,0.71,0.66,1.53-0.17,2.07c-0.87,0.56-1.44-0.07-1.91-0.76
		c-0.18-0.28-0.35-0.57-0.55-0.84c-2.77-3.61-7.92-2.94-9.78,1.27c-0.18,0.41-0.27,0.85-0.46,1.26c-0.31,0.66-0.79,1.13-1.58,0.85
		c-0.78-0.28-0.91-0.94-0.71-1.65c0.68-2.48,2.06-4.48,4.39-5.62C66.76,46.63,68.05,46.44,69.27,46.09z"/>
	<path d="M90.76,49.18c2.51,0.23,4.59,1.14,6.11,3.15c0.27,0.35,0.5,0.74,0.67,1.15c0.34,0.8,0.6,1.71-0.42,2.18
		c-0.93,0.43-1.43-0.26-1.76-1.04c-1.38-3.25-6.13-3.6-8.31-1.65c-0.66,0.59-1.04,1.53-1.42,2.37c-0.32,0.7-0.57,1.41-1.51,1.2
		c-0.93-0.21-0.99-0.98-0.87-1.73c0.38-2.53,2-4.07,4.26-4.93C88.54,49.48,89.68,49.4,90.76,49.18z"/>
</g>
</svg>
